<mxfile host="app.diagrams.net" modified="2021-01-04T22:06:53.762Z" agent="5.0 (Windows NT 10.0; Win64; x64) AppleWebKit/537.36 (KHTML, like Gecko) Chrome/87.0.4280.88 Safari/537.36" etag="mTOFxG7niqqZfgdV4MW9" version="14.1.8" type="github" pages="3">
  <diagram id="Hv4MSQO7RJrf4JBUDCrN" name="Page flow">
    <mxGraphModel dx="2554" dy="2801" grid="1" gridSize="10" guides="1" tooltips="1" connect="1" arrows="1" fold="1" page="1" pageScale="1" pageWidth="1100" pageHeight="850" math="0" shadow="0">
      <root>
        <mxCell id="0" />
        <mxCell id="1" parent="0" />
        <mxCell id="5lXfWyK0SqyRImPgirgY-1" value="Datasets Page" style="rounded=0;whiteSpace=wrap;html=1;strokeColor=#82b366;gradientColor=#97d077;fillColor=#d5e8d4;" vertex="1" parent="1">
          <mxGeometry x="-846" y="-1620" width="120" height="60" as="geometry" />
        </mxCell>
        <mxCell id="5lXfWyK0SqyRImPgirgY-2" value="List Results" style="rounded=1;whiteSpace=wrap;html=1;strokeColor=#82b366;fontSize=10;fillColor=#FFFFFF;" vertex="1" parent="1">
          <mxGeometry x="-1010" y="-1431.5" width="100" height="43" as="geometry" />
        </mxCell>
        <mxCell id="5lXfWyK0SqyRImPgirgY-3" value="Search Datasets" style="rounded=1;whiteSpace=wrap;html=1;strokeColor=#82b366;fontSize=10;fillColor=#FFFFFF;" vertex="1" parent="1">
          <mxGeometry x="-1010" y="-1497.5" width="100" height="43" as="geometry" />
        </mxCell>
        <mxCell id="5lXfWyK0SqyRImPgirgY-4" value="Update Datasets" style="rounded=1;whiteSpace=wrap;html=1;strokeColor=#82b366;fontSize=10;fillColor=#FFFFFF;" vertex="1" parent="1">
          <mxGeometry x="-880" y="-1497.5" width="100" height="43" as="geometry" />
        </mxCell>
        <mxCell id="5lXfWyK0SqyRImPgirgY-5" value="Upload Objects to Dataset" style="rounded=1;whiteSpace=wrap;html=1;strokeColor=#82b366;fontSize=10;fillColor=#FFFFFF;" vertex="1" parent="1">
          <mxGeometry x="-880" y="-1433.5" width="100" height="43" as="geometry" />
        </mxCell>
        <mxCell id="5lXfWyK0SqyRImPgirgY-6" value="Create New Datasets" style="rounded=1;whiteSpace=wrap;html=1;strokeColor=#82b366;fontSize=10;fillColor=#FFFFFF;" vertex="1" parent="1">
          <mxGeometry x="-757" y="-1497.5" width="100" height="43" as="geometry" />
        </mxCell>
        <mxCell id="5lXfWyK0SqyRImPgirgY-7" value="Publish Objects to IDL" style="rounded=1;whiteSpace=wrap;html=1;strokeColor=#82b366;fontSize=10;fillColor=#FFFFFF;" vertex="1" parent="1">
          <mxGeometry x="-877" y="-1297.5" width="100" height="43" as="geometry" />
        </mxCell>
        <mxCell id="5lXfWyK0SqyRImPgirgY-8" value="Delete Datasets" style="rounded=1;whiteSpace=wrap;html=1;strokeColor=#82b366;fontSize=10;fillColor=#FFFFFF;" vertex="1" parent="1">
          <mxGeometry x="-631" y="-1497.5" width="100" height="43" as="geometry" />
        </mxCell>
        <mxCell id="5lXfWyK0SqyRImPgirgY-9" value="Upload Objects to Dataset" style="rounded=1;whiteSpace=wrap;html=1;strokeColor=#82b366;fontSize=10;fillColor=#FFFFFF;" vertex="1" parent="1">
          <mxGeometry x="-755" y="-1433.5" width="100" height="43" as="geometry" />
        </mxCell>
        <mxCell id="5lXfWyK0SqyRImPgirgY-10" value="Publish Objects to IDL" style="rounded=1;whiteSpace=wrap;html=1;strokeColor=#82b366;fontSize=10;fillColor=#FFFFFF;" vertex="1" parent="1">
          <mxGeometry x="-757" y="-1297.5" width="100" height="43" as="geometry" />
        </mxCell>
        <mxCell id="5lXfWyK0SqyRImPgirgY-11" value="Add/Update Metadata to Objects" style="rounded=1;whiteSpace=wrap;html=1;strokeColor=#82b366;fontSize=10;fillColor=#FFFFFF;" vertex="1" parent="1">
          <mxGeometry x="-877" y="-1365.5" width="100" height="43" as="geometry" />
        </mxCell>
        <mxCell id="5lXfWyK0SqyRImPgirgY-12" value="Add Metadata to Objects" style="rounded=1;whiteSpace=wrap;html=1;strokeColor=#82b366;fontSize=10;fillColor=#FFFFFF;" vertex="1" parent="1">
          <mxGeometry x="-757" y="-1365.5" width="100" height="43" as="geometry" />
        </mxCell>
        <mxCell id="5lXfWyK0SqyRImPgirgY-13" value="Read Datasets" style="rounded=1;whiteSpace=wrap;html=1;strokeColor=#82b366;fontSize=10;fillColor=#FFFFFF;" vertex="1" parent="1">
          <mxGeometry x="-1010" y="-1365.5" width="100" height="43" as="geometry" />
        </mxCell>
      </root>
    </mxGraphModel>
  </diagram>
  <diagram id="_ggEyKDkjVzS1uxRxCGR" name="Dataset View">
    <mxGraphModel dx="1454" dy="1101" grid="1" gridSize="10" guides="1" tooltips="1" connect="1" arrows="1" fold="1" page="1" pageScale="1" pageWidth="1100" pageHeight="850" math="0" shadow="0">
      <root>
        <mxCell id="UQy8q50rhMzNLok17Bqi-0" />
        <mxCell id="UQy8q50rhMzNLok17Bqi-1" parent="UQy8q50rhMzNLok17Bqi-0" />
        <mxCell id="UQy8q50rhMzNLok17Bqi-2" value="" style="rounded=0;whiteSpace=wrap;html=1;strokeColor=#000000;fillColor=#F8F9FA;" vertex="1" parent="UQy8q50rhMzNLok17Bqi-1">
          <mxGeometry x="40" y="106" width="814" height="719" as="geometry" />
        </mxCell>
        <mxCell id="UQy8q50rhMzNLok17Bqi-3" value="" style="rounded=0;whiteSpace=wrap;html=1;fillColor=#F8F9FA;" vertex="1" parent="UQy8q50rhMzNLok17Bqi-1">
          <mxGeometry x="40" y="195" width="274" height="630" as="geometry" />
        </mxCell>
        <mxCell id="UQy8q50rhMzNLok17Bqi-4" value="" style="rounded=0;whiteSpace=wrap;html=1;fontSize=20;align=left;fillColor=#3333FF;" vertex="1" parent="UQy8q50rhMzNLok17Bqi-1">
          <mxGeometry x="40" y="195" width="274" height="40" as="geometry" />
        </mxCell>
        <mxCell id="UQy8q50rhMzNLok17Bqi-5" value="" style="rounded=0;whiteSpace=wrap;html=1;fillColor=#F8F9FA;" vertex="1" parent="UQy8q50rhMzNLok17Bqi-1">
          <mxGeometry x="40" y="106" width="814" height="89" as="geometry" />
        </mxCell>
        <mxCell id="UQy8q50rhMzNLok17Bqi-6" value="" style="rounded=0;whiteSpace=wrap;html=1;fillColor=#3333FF;" vertex="1" parent="UQy8q50rhMzNLok17Bqi-1">
          <mxGeometry x="40" y="45" width="814" height="61" as="geometry" />
        </mxCell>
        <mxCell id="UQy8q50rhMzNLok17Bqi-7" value="&lt;font style=&quot;font-size: 14px&quot;&gt;FEEDBACK&lt;/font&gt;" style="rounded=1;whiteSpace=wrap;html=1;fillColor=#FF8000;strokeColor=#FF8000;fontColor=#FFFFFF;" vertex="1" parent="UQy8q50rhMzNLok17Bqi-1">
          <mxGeometry x="724" y="54" width="120" height="40" as="geometry" />
        </mxCell>
        <mxCell id="UQy8q50rhMzNLok17Bqi-8" value="" style="shape=image;html=1;verticalAlign=top;verticalLabelPosition=bottom;labelBackgroundColor=#ffffff;imageAspect=0;aspect=fixed;image=https://cdn3.iconfinder.com/data/icons/social-media-2125/78/bell-128.png;strokeColor=#FF8000;fillColor=#FF8000;fontColor=#FFFFFF;" vertex="1" parent="UQy8q50rhMzNLok17Bqi-1">
          <mxGeometry x="670" y="55.5" width="37" height="37" as="geometry" />
        </mxCell>
        <mxCell id="UQy8q50rhMzNLok17Bqi-9" value="" style="whiteSpace=wrap;html=1;shape=mxgraph.basic.octagon2;align=center;verticalAlign=middle;dx=12;shadow=0;sketch=0;fontSize=20;fontColor=#808080;fillColor=#FF8000;strokeColor=#FF8000;" vertex="1" parent="UQy8q50rhMzNLok17Bqi-1">
          <mxGeometry x="50" y="51.5" width="56" height="42" as="geometry" />
        </mxCell>
        <mxCell id="UQy8q50rhMzNLok17Bqi-10" value="Eva" style="text;html=1;strokeColor=none;fillColor=none;align=center;verticalAlign=middle;whiteSpace=wrap;rounded=0;shadow=0;sketch=0;fontSize=20;fontColor=#FFFFFF;fontStyle=1" vertex="1" parent="UQy8q50rhMzNLok17Bqi-1">
          <mxGeometry x="116" y="65" width="40" height="20" as="geometry" />
        </mxCell>
        <mxCell id="UQy8q50rhMzNLok17Bqi-11" value="" style="html=1;verticalLabelPosition=bottom;align=center;labelBackgroundColor=#ffffff;verticalAlign=top;strokeWidth=2;shadow=0;dashed=0;shape=mxgraph.ios7.icons.user;sketch=0;fontSize=20;fontColor=#FFFFFF;fillColor=#FFFFFF;" vertex="1" parent="UQy8q50rhMzNLok17Bqi-1">
          <mxGeometry x="518" y="60.5" width="30" height="30" as="geometry" />
        </mxCell>
        <mxCell id="UQy8q50rhMzNLok17Bqi-12" value="John Doe" style="text;html=1;strokeColor=none;fillColor=none;align=center;verticalAlign=middle;whiteSpace=wrap;rounded=0;shadow=0;sketch=0;fontSize=19;fontColor=#FFFFFF;" vertex="1" parent="UQy8q50rhMzNLok17Bqi-1">
          <mxGeometry x="561.5" y="65.5" width="94" height="20" as="geometry" />
        </mxCell>
        <mxCell id="UQy8q50rhMzNLok17Bqi-13" value="" style="html=1;shadow=0;dashed=0;fillColor=#F8F9FA;strokeColor=none;fontSize=16;fontColor=#181819;align=left;spacing=15;" vertex="1" parent="UQy8q50rhMzNLok17Bqi-1">
          <mxGeometry x="172" y="125" width="555" height="60" as="geometry" />
        </mxCell>
        <mxCell id="UQy8q50rhMzNLok17Bqi-14" value="Search" style="html=1;shadow=0;dashed=0;shape=mxgraph.bootstrap.rrect;rSize=5;fontSize=14;fontColor=#6C767D;strokeColor=#CED4DA;fillColor=#ffffff;align=left;spacing=10;" vertex="1" parent="UQy8q50rhMzNLok17Bqi-13">
          <mxGeometry width="470" height="40" relative="1" as="geometry">
            <mxPoint x="10" y="10" as="offset" />
          </mxGeometry>
        </mxCell>
        <mxCell id="UQy8q50rhMzNLok17Bqi-15" value="" style="ellipse;whiteSpace=wrap;html=1;fillColor=#FFFFFF;" vertex="1" parent="UQy8q50rhMzNLok17Bqi-13">
          <mxGeometry x="425.67961165048536" y="22" width="10.776699029126211" height="10" as="geometry" />
        </mxCell>
        <mxCell id="UQy8q50rhMzNLok17Bqi-16" value="" style="endArrow=none;html=1;" edge="1" parent="UQy8q50rhMzNLok17Bqi-13">
          <mxGeometry width="50" height="50" relative="1" as="geometry">
            <mxPoint x="436.4563106796116" y="32" as="sourcePoint" />
            <mxPoint x="436.4563106796116" y="32" as="targetPoint" />
            <Array as="points">
              <mxPoint x="447.23300970873777" y="40" />
            </Array>
          </mxGeometry>
        </mxCell>
        <mxCell id="UQy8q50rhMzNLok17Bqi-17" value="" style="triangle;whiteSpace=wrap;html=1;rotation=90;fillColor=#000000;" vertex="1" parent="UQy8q50rhMzNLok17Bqi-13">
          <mxGeometry x="458.00970873786395" y="25" width="10.776699029126211" height="10" as="geometry" />
        </mxCell>
        <mxCell id="UQy8q50rhMzNLok17Bqi-18" value="" style="shape=ellipse;dashed=0;strokeColor=none;shadow=1;fontSize=13;align=center;verticalAlign=top;labelPosition=center;verticalLabelPosition=bottom;html=1;aspect=fixed;" vertex="1" parent="UQy8q50rhMzNLok17Bqi-1">
          <mxGeometry x="664.5" y="135" width="40" height="40" as="geometry" />
        </mxCell>
        <mxCell id="UQy8q50rhMzNLok17Bqi-19" value="" style="dashed=0;html=1;shape=mxgraph.gmdl.plus;strokeColor=#737373;strokeWidth=2;shadow=0;" vertex="1" parent="UQy8q50rhMzNLok17Bqi-18">
          <mxGeometry x="12" y="12" width="16" height="16" as="geometry" />
        </mxCell>
        <mxCell id="UQy8q50rhMzNLok17Bqi-20" value="" style="html=1;shadow=0;dashed=0;shape=mxgraph.bootstrap.rrect;rSize=5;strokeColor=#DFDFDF;html=1;whiteSpace=wrap;fillColor=#FFFFFF;fontColor=#495057;" vertex="1" parent="UQy8q50rhMzNLok17Bqi-1">
          <mxGeometry x="44" y="255" width="260" height="300" as="geometry" />
        </mxCell>
        <mxCell id="UQy8q50rhMzNLok17Bqi-21" value="&lt;font style=&quot;font-size: 16px&quot;&gt;Dataset Title #1&lt;/font&gt;&lt;br&gt;Guide: 123456/1258d25s8f22f&lt;br&gt;other data goes here" style="html=1;shadow=0;dashed=0;shape=mxgraph.bootstrap.topButton;rSize=5;perimeter=none;whiteSpace=wrap;resizeWidth=1;align=left;spacing=10;verticalAlign=top;fillColor=#0085FC;strokeColor=#0085FC;fontColor=#ffffff;" vertex="1" parent="UQy8q50rhMzNLok17Bqi-20">
          <mxGeometry width="260" height="100" relative="1" as="geometry" />
        </mxCell>
        <mxCell id="UQy8q50rhMzNLok17Bqi-22" value="&lt;font style=&quot;font-size: 16px&quot;&gt;Dataset Title #2&lt;/font&gt;&lt;br&gt;Guide: 185576/58d6s8dd222dgf8&lt;br&gt;Other data goes here&lt;br&gt;&lt;br&gt;&lt;br&gt;" style="strokeColor=inherit;fillColor=inherit;gradientColor=inherit;fontColor=inherit;html=1;shadow=0;dashed=0;perimeter=none;whiteSpace=wrap;resizeWidth=1;align=left;spacing=10;" vertex="1" parent="UQy8q50rhMzNLok17Bqi-20">
          <mxGeometry width="260" height="100" relative="1" as="geometry">
            <mxPoint y="100" as="offset" />
          </mxGeometry>
        </mxCell>
        <mxCell id="UQy8q50rhMzNLok17Bqi-23" value="&lt;font style=&quot;font-size: 16px&quot;&gt;Dataset Title #3&lt;/font&gt;&lt;br&gt;Guide: 123456/88d55s6c8fs6&lt;br&gt;other data goes here&lt;br&gt;&lt;br&gt;&lt;br&gt;" style="strokeColor=inherit;fillColor=inherit;gradientColor=inherit;fontColor=inherit;html=1;shadow=0;dashed=0;shape=mxgraph.bootstrap.bottomButton;rSize=5;perimeter=none;whiteSpace=wrap;resizeWidth=1;resizeHeight=0;align=left;spacing=10;" vertex="1" parent="UQy8q50rhMzNLok17Bqi-20">
          <mxGeometry y="1" width="260" height="100" relative="1" as="geometry">
            <mxPoint y="-100" as="offset" />
          </mxGeometry>
        </mxCell>
        <mxCell id="UQy8q50rhMzNLok17Bqi-24" value="Dataset Title #1" style="shape=rect;fillColor=#ffffff;strokeColor=#eeeeee;shadow=1;fontColor=#000000;fontSize=23;fontStyle=0;verticalAlign=top;spacingBottom=0;spacingLeft=16;spacingTop=20;align=left;rounded=0;" vertex="1" parent="UQy8q50rhMzNLok17Bqi-1">
          <mxGeometry x="324" y="205" width="520" height="500" as="geometry" />
        </mxCell>
        <mxCell id="UQy8q50rhMzNLok17Bqi-25" value="Guide: 123456/1258d25s8f22f" style="text;fontSize=12;fontStyle=4;verticalAlign=middle;spacingBottom=0;spacingLeft=16;resizeWidth=1;fontColor=#0645AD;" vertex="1" parent="UQy8q50rhMzNLok17Bqi-24">
          <mxGeometry width="520" height="20" relative="1" as="geometry">
            <mxPoint y="59" as="offset" />
          </mxGeometry>
        </mxCell>
        <mxCell id="UQy8q50rhMzNLok17Bqi-26" value="Description:&#xa;&#xa;&#xa;Originating Org:&#xa;&#xa;Data Steward:&#xa;&#xa;Location:&#xa;&#xa;Format:&#xa;&#xa;Data Classification:&#xa;&#xa;RCS Value(s):&#xa;&#xa;PII:&#xa;&#xa;PII Type:&#xa;&#xa;System of Record:&#xa;&#xa;IMO Assigned:&#xa;" style="text;whiteSpace=wrap;fontSize=13;spacing=16;spacingTop=-4;resizeWidth=1;resizeHeight=1;fontStyle=1" vertex="1" parent="UQy8q50rhMzNLok17Bqi-24">
          <mxGeometry width="160" height="333.3333333333333" relative="1" as="geometry">
            <mxPoint x="5" y="80" as="offset" />
          </mxGeometry>
        </mxCell>
        <mxCell id="UQy8q50rhMzNLok17Bqi-27" value="Assign" style="shape=rect;strokeColor=#666666;fontColor=#333333;fontStyle=1;shadow=1;rounded=1;fillColor=#F8F9FA;" vertex="1" parent="UQy8q50rhMzNLok17Bqi-24">
          <mxGeometry y="1" width="70" height="40" relative="1" as="geometry">
            <mxPoint x="8" y="-48" as="offset" />
          </mxGeometry>
        </mxCell>
        <mxCell id="UQy8q50rhMzNLok17Bqi-28" value="Review" style="shape=rect;strokeColor=#666666;fontColor=#333333;fontStyle=1;shadow=1;sketch=0;rounded=1;fillColor=#F8F9FA;" vertex="1" parent="UQy8q50rhMzNLok17Bqi-24">
          <mxGeometry y="1" width="70" height="40" relative="1" as="geometry">
            <mxPoint x="86" y="-48" as="offset" />
          </mxGeometry>
        </mxCell>
        <mxCell id="UQy8q50rhMzNLok17Bqi-29" value="&amp;lt;Classification Here&amp;gt;" style="rounded=0;whiteSpace=wrap;html=1;shadow=0;sketch=0;fontSize=12;align=center;fillColor=#FFFF33;" vertex="1" parent="UQy8q50rhMzNLok17Bqi-24">
          <mxGeometry y="4.62962962962963" width="520" height="18.51851851851852" as="geometry" />
        </mxCell>
        <mxCell id="UQy8q50rhMzNLok17Bqi-30" value="This dataset contains information that someone might find interesting. Who that person is and why they might care is anyone&#39;s guess." style="text;whiteSpace=wrap;fontSize=10;spacing=16;spacingTop=-4;resizeWidth=1;resizeHeight=1;" vertex="1" parent="UQy8q50rhMzNLok17Bqi-24">
          <mxGeometry x="150" y="74.07407407407408" width="330" height="55.55555555555556" as="geometry" />
        </mxCell>
        <mxCell id="UQy8q50rhMzNLok17Bqi-31" value="PPP/QQQ/RRR/ZZZ&#xa;" style="text;whiteSpace=wrap;fontSize=10;spacing=16;spacingTop=-4;resizeWidth=1;resizeHeight=1;" vertex="1" parent="UQy8q50rhMzNLok17Bqi-24">
          <mxGeometry x="150" y="129.63037037037037" width="330" height="37.03703703703704" as="geometry" />
        </mxCell>
        <mxCell id="UQy8q50rhMzNLok17Bqi-32" value="Bob Ross" style="text;whiteSpace=wrap;fontSize=10;spacing=16;spacingTop=-4;resizeWidth=1;resizeHeight=1;" vertex="1" parent="UQy8q50rhMzNLok17Bqi-24">
          <mxGeometry x="150" y="157.40814814814814" width="330" height="37.03703703703704" as="geometry" />
        </mxCell>
        <mxCell id="UQy8q50rhMzNLok17Bqi-33" value="Warehouse B" style="text;whiteSpace=wrap;fontSize=10;spacing=16;spacingTop=-4;resizeWidth=1;resizeHeight=1;" vertex="1" parent="UQy8q50rhMzNLok17Bqi-24">
          <mxGeometry x="150" y="189.99592592592592" width="330" height="37.03703703703704" as="geometry" />
        </mxCell>
        <mxCell id="UQy8q50rhMzNLok17Bqi-34" value="Paper, CD, DVD" style="text;whiteSpace=wrap;fontSize=10;spacing=16;spacingTop=-4;resizeWidth=1;resizeHeight=1;" vertex="1" parent="UQy8q50rhMzNLok17Bqi-24">
          <mxGeometry x="150" y="220.0037037037037" width="330" height="37.03703703703704" as="geometry" />
        </mxCell>
        <mxCell id="UQy8q50rhMzNLok17Bqi-35" value="Spooky" style="text;whiteSpace=wrap;fontSize=10;spacing=16;spacingTop=-4;resizeWidth=1;resizeHeight=1;" vertex="1" parent="UQy8q50rhMzNLok17Bqi-24">
          <mxGeometry x="150" y="250.0014814814815" width="330" height="37.03703703703704" as="geometry" />
        </mxCell>
        <mxCell id="UQy8q50rhMzNLok17Bqi-36" value="RCS 10-38 1a" style="text;whiteSpace=wrap;fontSize=10;spacing=16;spacingTop=-4;resizeWidth=1;resizeHeight=1;fontColor=#0645AD;fontStyle=4" vertex="1" parent="UQy8q50rhMzNLok17Bqi-24">
          <mxGeometry x="150" y="279.99925925925925" width="330" height="37.03703703703704" as="geometry" />
        </mxCell>
        <mxCell id="UQy8q50rhMzNLok17Bqi-37" value="Yes" style="text;whiteSpace=wrap;fontSize=10;spacing=16;spacingTop=-4;resizeWidth=1;resizeHeight=1;" vertex="1" parent="UQy8q50rhMzNLok17Bqi-24">
          <mxGeometry x="150" y="309.99703703703705" width="330" height="37.03703703703704" as="geometry" />
        </mxCell>
        <mxCell id="UQy8q50rhMzNLok17Bqi-38" value="US Persons" style="text;whiteSpace=wrap;fontSize=10;spacing=16;spacingTop=-4;resizeWidth=1;resizeHeight=1;" vertex="1" parent="UQy8q50rhMzNLok17Bqi-24">
          <mxGeometry x="150" y="340.00481481481484" width="330" height="37.03703703703704" as="geometry" />
        </mxCell>
        <mxCell id="UQy8q50rhMzNLok17Bqi-39" value="Rocky" style="text;whiteSpace=wrap;fontSize=10;spacing=16;spacingTop=-4;resizeWidth=1;resizeHeight=1;" vertex="1" parent="UQy8q50rhMzNLok17Bqi-24">
          <mxGeometry x="150" y="370.00259259259263" width="330" height="37.03703703703704" as="geometry" />
        </mxCell>
        <mxCell id="UQy8q50rhMzNLok17Bqi-40" value="Cindy-Luo Who" style="text;whiteSpace=wrap;fontSize=10;spacing=16;spacingTop=-4;resizeWidth=1;resizeHeight=1;" vertex="1" parent="UQy8q50rhMzNLok17Bqi-24">
          <mxGeometry x="150" y="400.0025925925927" width="330" height="37.03703703703704" as="geometry" />
        </mxCell>
        <mxCell id="UQy8q50rhMzNLok17Bqi-41" value="Datasets" style="text;html=1;strokeColor=none;fillColor=none;align=left;verticalAlign=middle;whiteSpace=wrap;rounded=0;labelPosition=center;verticalLabelPosition=middle;fontSize=16;fontStyle=1;fontColor=#FFFFFF;" vertex="1" parent="UQy8q50rhMzNLok17Bqi-1">
          <mxGeometry x="47" y="205" width="260" height="20" as="geometry" />
        </mxCell>
        <mxCell id="UQy8q50rhMzNLok17Bqi-42" value="" style="shape=ellipse;dashed=0;strokeColor=none;shadow=1;fontSize=13;align=center;verticalAlign=top;labelPosition=center;verticalLabelPosition=bottom;html=1;aspect=fixed;fillColor=#F8F9FA;" vertex="1" parent="UQy8q50rhMzNLok17Bqi-1">
          <mxGeometry x="697" y="235" width="30" height="30" as="geometry" />
        </mxCell>
        <mxCell id="UQy8q50rhMzNLok17Bqi-43" value="" style="dashed=0;html=1;shape=mxgraph.gmdl.edit;strokeColor=none;fillColor=#737373;shadow=0;" vertex="1" parent="UQy8q50rhMzNLok17Bqi-42">
          <mxGeometry x="9.642857142857142" y="9.642857142857142" width="10.714285714285714" height="10.714285714285714" as="geometry" />
        </mxCell>
        <mxCell id="UQy8q50rhMzNLok17Bqi-44" value="" style="shape=ellipse;dashed=0;strokeColor=none;shadow=1;fontSize=13;align=center;verticalAlign=top;labelPosition=center;verticalLabelPosition=bottom;html=1;aspect=fixed;fillColor=#F8F9FA;" vertex="1" parent="UQy8q50rhMzNLok17Bqi-1">
          <mxGeometry x="804" y="235" width="30" height="30" as="geometry" />
        </mxCell>
        <mxCell id="UQy8q50rhMzNLok17Bqi-45" value="" style="dashed=0;html=1;shape=mxgraph.gmdl.x;strokeColor=#737373;strokeWidth=2;shadow=0;" vertex="1" parent="UQy8q50rhMzNLok17Bqi-44">
          <mxGeometry x="10.714285714285714" y="10.714285714285714" width="8.571428571428571" height="8.571428571428571" as="geometry" />
        </mxCell>
        <mxCell id="UQy8q50rhMzNLok17Bqi-46" value="" style="shape=ellipse;dashed=0;strokeColor=none;shadow=1;fontSize=13;align=center;verticalAlign=top;labelPosition=center;verticalLabelPosition=bottom;html=1;aspect=fixed;rounded=1;sketch=0;fillColor=#F8F9FA;" vertex="1" parent="UQy8q50rhMzNLok17Bqi-1">
          <mxGeometry x="734" y="235" width="30" height="30" as="geometry" />
        </mxCell>
        <mxCell id="UQy8q50rhMzNLok17Bqi-47" value="" style="dashed=0;html=1;shape=mxgraph.gmdl.star;strokeColor=none;fillColor=#737373;shadow=0;" vertex="1" parent="UQy8q50rhMzNLok17Bqi-46">
          <mxGeometry x="9.642857142857142" y="9.642857142857142" width="10.714285714285714" height="10.714285714285714" as="geometry" />
        </mxCell>
        <mxCell id="UQy8q50rhMzNLok17Bqi-48" value="&amp;lt;Classification Here&amp;gt;" style="rounded=0;whiteSpace=wrap;html=1;shadow=0;sketch=0;fontSize=12;align=center;fillColor=#FFFF33;" vertex="1" parent="UQy8q50rhMzNLok17Bqi-1">
          <mxGeometry x="40" y="25" width="814" height="20" as="geometry" />
        </mxCell>
        <mxCell id="UQy8q50rhMzNLok17Bqi-49" value="" style="html=1;shadow=0;dashed=0;shape=mxgraph.bootstrap.rrect;rSize=5;strokeColor=#DEE2E6;html=1;whiteSpace=wrap;fillColor=#ffffff;fontColor=#0085FC;fontSize=14;" vertex="1" parent="UQy8q50rhMzNLok17Bqi-1">
          <mxGeometry x="124" y="795" width="187" height="25" as="geometry" />
        </mxCell>
        <mxCell id="UQy8q50rhMzNLok17Bqi-50" value="Previous" style="strokeColor=inherit;fillColor=inherit;gradientColor=inherit;html=1;shadow=0;dashed=0;shape=mxgraph.bootstrap.leftButton;rSize=5;perimeter=none;whiteSpace=wrap;resizeHeight=1;fontColor=#6C767D;fontSize=14;" vertex="1" parent="UQy8q50rhMzNLok17Bqi-49">
          <mxGeometry width="70" height="25" relative="1" as="geometry" />
        </mxCell>
        <mxCell id="UQy8q50rhMzNLok17Bqi-51" value="1" style="strokeColor=inherit;fillColor=inherit;gradientColor=inherit;fontColor=inherit;html=1;shadow=0;dashed=0;perimeter=none;whiteSpace=wrap;resizeHeight=1;fontSize=14;" vertex="1" parent="UQy8q50rhMzNLok17Bqi-49">
          <mxGeometry width="30" height="25" relative="1" as="geometry">
            <mxPoint x="70" as="offset" />
          </mxGeometry>
        </mxCell>
        <mxCell id="UQy8q50rhMzNLok17Bqi-52" value="2" style="html=1;shadow=0;dashed=0;perimeter=none;whiteSpace=wrap;resizeHeight=1;fillColor=#0085FC;strokeColor=none;fontColor=#ffffff;fontSize=14;" vertex="1" parent="UQy8q50rhMzNLok17Bqi-49">
          <mxGeometry width="30" height="25" relative="1" as="geometry">
            <mxPoint x="100" as="offset" />
          </mxGeometry>
        </mxCell>
        <mxCell id="UQy8q50rhMzNLok17Bqi-53" value="3" style="strokeColor=inherit;fillColor=inherit;gradientColor=inherit;fontColor=inherit;html=1;shadow=0;dashed=0;perimeter=none;whiteSpace=wrap;resizeHeight=1;fontSize=14;" vertex="1" parent="UQy8q50rhMzNLok17Bqi-49">
          <mxGeometry width="30" height="25" relative="1" as="geometry">
            <mxPoint x="130" as="offset" />
          </mxGeometry>
        </mxCell>
        <mxCell id="UQy8q50rhMzNLok17Bqi-54" value="Next" style="strokeColor=inherit;fillColor=inherit;gradientColor=inherit;fontColor=inherit;html=1;shadow=0;dashed=0;shape=mxgraph.bootstrap.rightButton;rSize=5;perimeter=none;whiteSpace=wrap;resizeHeight=1;fontSize=14;" vertex="1" parent="UQy8q50rhMzNLok17Bqi-49">
          <mxGeometry x="1" width="60" height="25" relative="1" as="geometry">
            <mxPoint x="-60" as="offset" />
          </mxGeometry>
        </mxCell>
        <mxCell id="UQy8q50rhMzNLok17Bqi-55" value="Fav:" style="text;html=1;strokeColor=none;fillColor=none;align=center;verticalAlign=middle;whiteSpace=wrap;rounded=0;shadow=0;sketch=0;fontSize=10;fontColor=#FFFFFF;" vertex="1" parent="UQy8q50rhMzNLok17Bqi-1">
          <mxGeometry x="241" y="205" width="40" height="20" as="geometry" />
        </mxCell>
        <mxCell id="UQy8q50rhMzNLok17Bqi-56" value="" style="shape=image;html=1;verticalAlign=top;verticalLabelPosition=bottom;labelBackgroundColor=#ffffff;imageAspect=0;aspect=fixed;image=https://cdn2.iconfinder.com/data/icons/font-awesome/1792/sort-alpha-asc-128.png;rounded=1;shadow=1;sketch=0;strokeColor=#000000;fillColor=#4285F4;fontSize=11;align=left;fontColor=#97D077;" vertex="1" parent="UQy8q50rhMzNLok17Bqi-1">
          <mxGeometry x="194" y="208" width="15" height="15" as="geometry" />
        </mxCell>
        <mxCell id="UQy8q50rhMzNLok17Bqi-57" value="" style="shape=image;html=1;verticalAlign=top;verticalLabelPosition=bottom;labelBackgroundColor=#ffffff;imageAspect=0;aspect=fixed;image=https://cdn4.iconfinder.com/data/icons/ios-web-user-interface-multi-circle-flat-vol-5/512/Descending_filter_filtering_tool_funnel_sort-128.png;rounded=1;shadow=1;sketch=0;strokeColor=#000000;fillColor=#4285F4;fontSize=11;fontColor=#000000;align=left;" vertex="1" parent="UQy8q50rhMzNLok17Bqi-1">
          <mxGeometry x="219" y="208" width="15" height="15" as="geometry" />
        </mxCell>
        <mxCell id="UQy8q50rhMzNLok17Bqi-58" value="" style="fillColor=#36B37E;strokeColor=none;rounded=1;arcSize=50;shadow=1;sketch=0;fontSize=11;fontColor=#FFFFFF;align=left;" vertex="1" parent="UQy8q50rhMzNLok17Bqi-1">
          <mxGeometry x="274" y="207.5" width="30" height="16" as="geometry" />
        </mxCell>
        <mxCell id="UQy8q50rhMzNLok17Bqi-59" value="" style="shape=ellipse;strokeColor=none;fillColor=#ffffff" vertex="1" parent="UQy8q50rhMzNLok17Bqi-58">
          <mxGeometry x="1" y="0.5" width="12" height="12" relative="1" as="geometry">
            <mxPoint x="-15" y="-6" as="offset" />
          </mxGeometry>
        </mxCell>
        <mxCell id="UQy8q50rhMzNLok17Bqi-60" value="" style="html=1;shadow=0;dashed=0;shape=mxgraph.atlassian.check;strokeColor=#ffffff" vertex="1" parent="UQy8q50rhMzNLok17Bqi-58">
          <mxGeometry y="0.5" width="6" height="5" relative="1" as="geometry">
            <mxPoint x="4" y="-3" as="offset" />
          </mxGeometry>
        </mxCell>
        <mxCell id="UQy8q50rhMzNLok17Bqi-61" value="" style="shape=ellipse;dashed=0;strokeColor=none;shadow=1;fontSize=13;align=center;verticalAlign=top;labelPosition=center;verticalLabelPosition=bottom;html=1;aspect=fixed;rounded=1;sketch=0;fillColor=#F8F9FA;" vertex="1" parent="UQy8q50rhMzNLok17Bqi-1">
          <mxGeometry x="769" y="235" width="30" height="30" as="geometry" />
        </mxCell>
        <mxCell id="UQy8q50rhMzNLok17Bqi-62" value="" style="dashed=0;html=1;shape=mxgraph.gmdl.cloud;strokeColor=none;fillColor=#737373;shadow=0;" vertex="1" parent="UQy8q50rhMzNLok17Bqi-61">
          <mxGeometry x="8.571428571428571" y="10.714285714285714" width="12.857142857142858" height="8.571428571428571" as="geometry" />
        </mxCell>
        <mxCell id="UQy8q50rhMzNLok17Bqi-63" value="" style="shape=flexArrow;endArrow=classic;html=1;width=1.627906976744186;endWidth=1.4940886059503704;endSize=0.670391061452514;strokeColor=none;fillColor=#ffffff;" edge="1" parent="UQy8q50rhMzNLok17Bqi-61">
          <mxGeometry width="50" height="50" relative="1" as="geometry">
            <mxPoint x="14.939999999999827" y="18" as="sourcePoint" />
            <mxPoint x="14.939999999999827" y="12" as="targetPoint" />
          </mxGeometry>
        </mxCell>
        <mxCell id="UQy8q50rhMzNLok17Bqi-64" value="" style="rounded=0;whiteSpace=wrap;html=1;strokeColor=#000000;fillColor=#F8F9FA;" vertex="1" parent="UQy8q50rhMzNLok17Bqi-1">
          <mxGeometry x="40" y="951" width="814" height="719" as="geometry" />
        </mxCell>
        <mxCell id="UQy8q50rhMzNLok17Bqi-65" value="" style="rounded=0;whiteSpace=wrap;html=1;fillColor=#F8F9FA;" vertex="1" parent="UQy8q50rhMzNLok17Bqi-1">
          <mxGeometry x="40" y="1040" width="274" height="630" as="geometry" />
        </mxCell>
        <mxCell id="UQy8q50rhMzNLok17Bqi-66" value="" style="rounded=0;whiteSpace=wrap;html=1;fillColor=#F8F9FA;" vertex="1" parent="UQy8q50rhMzNLok17Bqi-1">
          <mxGeometry x="40" y="951" width="814" height="89" as="geometry" />
        </mxCell>
        <mxCell id="UQy8q50rhMzNLok17Bqi-67" value="" style="rounded=0;whiteSpace=wrap;html=1;fillColor=#3333FF;" vertex="1" parent="UQy8q50rhMzNLok17Bqi-1">
          <mxGeometry x="40" y="890" width="814" height="61" as="geometry" />
        </mxCell>
        <mxCell id="UQy8q50rhMzNLok17Bqi-68" value="&lt;font style=&quot;font-size: 14px&quot;&gt;FEEDBACK&lt;/font&gt;" style="rounded=1;whiteSpace=wrap;html=1;fillColor=#FF8000;strokeColor=#FF8000;fontColor=#FFFFFF;" vertex="1" parent="UQy8q50rhMzNLok17Bqi-1">
          <mxGeometry x="724" y="899" width="120" height="40" as="geometry" />
        </mxCell>
        <mxCell id="UQy8q50rhMzNLok17Bqi-69" value="" style="shape=image;html=1;verticalAlign=top;verticalLabelPosition=bottom;labelBackgroundColor=#ffffff;imageAspect=0;aspect=fixed;image=https://cdn3.iconfinder.com/data/icons/social-media-2125/78/bell-128.png;strokeColor=#FF8000;fillColor=#FF8000;fontColor=#FFFFFF;" vertex="1" parent="UQy8q50rhMzNLok17Bqi-1">
          <mxGeometry x="670" y="900.5" width="37" height="37" as="geometry" />
        </mxCell>
        <mxCell id="UQy8q50rhMzNLok17Bqi-70" value="" style="whiteSpace=wrap;html=1;shape=mxgraph.basic.octagon2;align=center;verticalAlign=middle;dx=12;shadow=0;sketch=0;fontSize=20;fontColor=#808080;fillColor=#FF8000;strokeColor=#FF8000;" vertex="1" parent="UQy8q50rhMzNLok17Bqi-1">
          <mxGeometry x="50" y="896.5" width="56" height="42" as="geometry" />
        </mxCell>
        <mxCell id="UQy8q50rhMzNLok17Bqi-71" value="Eva" style="text;html=1;strokeColor=none;fillColor=none;align=center;verticalAlign=middle;whiteSpace=wrap;rounded=0;shadow=0;sketch=0;fontSize=20;fontColor=#FFFFFF;fontStyle=1" vertex="1" parent="UQy8q50rhMzNLok17Bqi-1">
          <mxGeometry x="116" y="910" width="40" height="20" as="geometry" />
        </mxCell>
        <mxCell id="UQy8q50rhMzNLok17Bqi-72" value="" style="html=1;verticalLabelPosition=bottom;align=center;labelBackgroundColor=#ffffff;verticalAlign=top;strokeWidth=2;shadow=0;dashed=0;shape=mxgraph.ios7.icons.user;sketch=0;fontSize=20;fontColor=#FFFFFF;fillColor=#FFFFFF;" vertex="1" parent="UQy8q50rhMzNLok17Bqi-1">
          <mxGeometry x="518" y="905.5" width="30" height="30" as="geometry" />
        </mxCell>
        <mxCell id="UQy8q50rhMzNLok17Bqi-73" value="John Doe" style="text;html=1;strokeColor=none;fillColor=none;align=center;verticalAlign=middle;whiteSpace=wrap;rounded=0;shadow=0;sketch=0;fontSize=19;fontColor=#FFFFFF;" vertex="1" parent="UQy8q50rhMzNLok17Bqi-1">
          <mxGeometry x="561.5" y="910.5" width="94" height="20" as="geometry" />
        </mxCell>
        <mxCell id="UQy8q50rhMzNLok17Bqi-74" value="" style="html=1;shadow=0;dashed=0;fillColor=#F8F9FA;strokeColor=none;fontSize=16;fontColor=#181819;align=left;spacing=15;" vertex="1" parent="UQy8q50rhMzNLok17Bqi-1">
          <mxGeometry x="172" y="970" width="555" height="60" as="geometry" />
        </mxCell>
        <mxCell id="UQy8q50rhMzNLok17Bqi-75" value="Search" style="html=1;shadow=0;dashed=0;shape=mxgraph.bootstrap.rrect;rSize=5;fontSize=14;fontColor=#6C767D;strokeColor=#CED4DA;fillColor=#ffffff;align=left;spacing=10;" vertex="1" parent="UQy8q50rhMzNLok17Bqi-74">
          <mxGeometry width="470" height="40" relative="1" as="geometry">
            <mxPoint x="10" y="10" as="offset" />
          </mxGeometry>
        </mxCell>
        <mxCell id="UQy8q50rhMzNLok17Bqi-76" value="" style="ellipse;whiteSpace=wrap;html=1;fillColor=#FFFFFF;" vertex="1" parent="UQy8q50rhMzNLok17Bqi-74">
          <mxGeometry x="425.67961165048536" y="22" width="10.776699029126211" height="10" as="geometry" />
        </mxCell>
        <mxCell id="UQy8q50rhMzNLok17Bqi-77" value="" style="endArrow=none;html=1;" edge="1" parent="UQy8q50rhMzNLok17Bqi-74">
          <mxGeometry width="50" height="50" relative="1" as="geometry">
            <mxPoint x="436.4563106796116" y="32" as="sourcePoint" />
            <mxPoint x="436.4563106796116" y="32" as="targetPoint" />
            <Array as="points">
              <mxPoint x="447.23300970873777" y="40" />
            </Array>
          </mxGeometry>
        </mxCell>
        <mxCell id="UQy8q50rhMzNLok17Bqi-78" value="" style="triangle;whiteSpace=wrap;html=1;rotation=90;fillColor=#000000;" vertex="1" parent="UQy8q50rhMzNLok17Bqi-74">
          <mxGeometry x="458.00970873786395" y="25" width="10.776699029126211" height="10" as="geometry" />
        </mxCell>
        <mxCell id="UQy8q50rhMzNLok17Bqi-79" value="" style="shape=ellipse;dashed=0;strokeColor=none;shadow=1;fontSize=13;align=center;verticalAlign=top;labelPosition=center;verticalLabelPosition=bottom;html=1;aspect=fixed;" vertex="1" parent="UQy8q50rhMzNLok17Bqi-1">
          <mxGeometry x="664.5" y="980" width="40" height="40" as="geometry" />
        </mxCell>
        <mxCell id="UQy8q50rhMzNLok17Bqi-80" value="" style="dashed=0;html=1;shape=mxgraph.gmdl.plus;strokeColor=#737373;strokeWidth=2;shadow=0;" vertex="1" parent="UQy8q50rhMzNLok17Bqi-79">
          <mxGeometry x="12" y="12" width="16" height="16" as="geometry" />
        </mxCell>
        <mxCell id="UQy8q50rhMzNLok17Bqi-81" value="" style="html=1;shadow=0;dashed=0;shape=mxgraph.bootstrap.rrect;rSize=5;strokeColor=#DFDFDF;html=1;whiteSpace=wrap;fillColor=#FFFFFF;fontColor=#495057;" vertex="1" parent="UQy8q50rhMzNLok17Bqi-1">
          <mxGeometry x="44" y="1120" width="260" height="300" as="geometry" />
        </mxCell>
        <mxCell id="UQy8q50rhMzNLok17Bqi-82" value="&lt;font style=&quot;font-size: 16px&quot;&gt;Dataset Title #1&lt;/font&gt;&lt;br&gt;Guide: 123456/1258d25s8f22f&lt;br&gt;other data goes here" style="html=1;shadow=0;dashed=0;shape=mxgraph.bootstrap.topButton;rSize=5;perimeter=none;whiteSpace=wrap;resizeWidth=1;align=left;spacing=10;verticalAlign=top;fillColor=#0085FC;strokeColor=#0085FC;fontColor=#ffffff;" vertex="1" parent="UQy8q50rhMzNLok17Bqi-81">
          <mxGeometry width="260" height="100" relative="1" as="geometry" />
        </mxCell>
        <mxCell id="UQy8q50rhMzNLok17Bqi-83" value="&lt;font style=&quot;font-size: 16px&quot;&gt;Dataset Title #2&lt;/font&gt;&lt;br&gt;Guide: 185576/58d6s8dd222dgf8&lt;br&gt;Other data goes here&lt;br&gt;&lt;br&gt;&lt;br&gt;" style="strokeColor=inherit;fillColor=inherit;gradientColor=inherit;fontColor=inherit;html=1;shadow=0;dashed=0;perimeter=none;whiteSpace=wrap;resizeWidth=1;align=left;spacing=10;" vertex="1" parent="UQy8q50rhMzNLok17Bqi-81">
          <mxGeometry width="260" height="100" relative="1" as="geometry">
            <mxPoint y="100" as="offset" />
          </mxGeometry>
        </mxCell>
        <mxCell id="UQy8q50rhMzNLok17Bqi-84" value="&lt;font style=&quot;font-size: 16px&quot;&gt;Dataset Title #3&lt;/font&gt;&lt;br&gt;Guide: 123456/88d55s6c8fs6&lt;br&gt;other data goes here&lt;br&gt;&lt;br&gt;&lt;br&gt;" style="strokeColor=inherit;fillColor=inherit;gradientColor=inherit;fontColor=inherit;html=1;shadow=0;dashed=0;shape=mxgraph.bootstrap.bottomButton;rSize=5;perimeter=none;whiteSpace=wrap;resizeWidth=1;resizeHeight=0;align=left;spacing=10;" vertex="1" parent="UQy8q50rhMzNLok17Bqi-81">
          <mxGeometry y="1" width="260" height="100" relative="1" as="geometry">
            <mxPoint y="-100" as="offset" />
          </mxGeometry>
        </mxCell>
        <mxCell id="UQy8q50rhMzNLok17Bqi-85" value="Dataset Title #1" style="shape=rect;fillColor=#ffffff;strokeColor=#eeeeee;shadow=1;fontColor=#000000;fontSize=23;fontStyle=0;verticalAlign=top;spacingBottom=0;spacingLeft=16;spacingTop=20;align=left;rounded=0;" vertex="1" parent="UQy8q50rhMzNLok17Bqi-1">
          <mxGeometry x="324" y="1050" width="520" height="513.15" as="geometry" />
        </mxCell>
        <mxCell id="UQy8q50rhMzNLok17Bqi-86" value="Guide: 123456/1258d25s8f22f" style="text;fontSize=12;fontStyle=4;verticalAlign=middle;spacingBottom=0;spacingLeft=16;resizeWidth=1;fontColor=#0645AD;" vertex="1" parent="UQy8q50rhMzNLok17Bqi-85">
          <mxGeometry width="520" height="20" relative="1" as="geometry">
            <mxPoint y="59" as="offset" />
          </mxGeometry>
        </mxCell>
        <mxCell id="UQy8q50rhMzNLok17Bqi-87" value="Description:&#xa;&#xa;&#xa;&#xa;Originating Org:&#xa;&#xa;Data Steward:&#xa;&#xa;Location:&#xa;&#xa;Format:&#xa;&#xa;Data Classification:&#xa;&#xa;RCS Value(s):&#xa;&#xa;PII:&#xa;&#xa;PII Type:&#xa;&#xa;System of Record:&#xa;&#xa;IMO Assigned:&#xa;" style="text;whiteSpace=wrap;fontSize=12;spacing=16;spacingTop=-4;resizeWidth=1;resizeHeight=1;fontStyle=1" vertex="1" parent="UQy8q50rhMzNLok17Bqi-85">
          <mxGeometry width="160" height="333.3333333333333" relative="1" as="geometry">
            <mxPoint y="74.07" as="offset" />
          </mxGeometry>
        </mxCell>
        <mxCell id="UQy8q50rhMzNLok17Bqi-88" value="Assign" style="shape=rect;strokeColor=#666666;fontColor=#333333;fontStyle=1;shadow=1;rounded=1;fillColor=#F8F9FA;" vertex="1" parent="UQy8q50rhMzNLok17Bqi-85">
          <mxGeometry y="1" width="70" height="40" relative="1" as="geometry">
            <mxPoint x="3" y="-53.93" as="offset" />
          </mxGeometry>
        </mxCell>
        <mxCell id="UQy8q50rhMzNLok17Bqi-89" value="Review" style="shape=rect;strokeColor=#666666;fontColor=#333333;fontStyle=1;shadow=1;sketch=0;rounded=1;fillColor=#F8F9FA;" vertex="1" parent="UQy8q50rhMzNLok17Bqi-85">
          <mxGeometry y="1" width="70" height="40" relative="1" as="geometry">
            <mxPoint x="81" y="-53.93" as="offset" />
          </mxGeometry>
        </mxCell>
        <mxCell id="UQy8q50rhMzNLok17Bqi-90" value="&amp;lt;Classification Here&amp;gt;" style="rounded=0;whiteSpace=wrap;html=1;shadow=0;sketch=0;fontSize=12;align=center;fillColor=#FFFF33;" vertex="1" parent="UQy8q50rhMzNLok17Bqi-85">
          <mxGeometry y="4.62962962962963" width="520" height="18.51851851851852" as="geometry" />
        </mxCell>
        <mxCell id="UQy8q50rhMzNLok17Bqi-91" value="This dataset contains information that someone might find interesting. Who that person is and why they might care is anyone&#39;s guess." style="text;whiteSpace=wrap;fontSize=10;spacing=16;spacingTop=-4;resizeWidth=1;resizeHeight=1;" vertex="1" parent="UQy8q50rhMzNLok17Bqi-85">
          <mxGeometry x="150" y="74.07407407407408" width="330" height="55.55555555555556" as="geometry" />
        </mxCell>
        <mxCell id="UQy8q50rhMzNLok17Bqi-92" value="PPP/QQQ/RRR/ZZZ&#xa;" style="text;whiteSpace=wrap;fontSize=10;spacing=16;spacingTop=-4;resizeWidth=1;resizeHeight=1;" vertex="1" parent="UQy8q50rhMzNLok17Bqi-85">
          <mxGeometry x="150" y="129.63037037037037" width="330" height="37.03703703703704" as="geometry" />
        </mxCell>
        <mxCell id="UQy8q50rhMzNLok17Bqi-93" value="Bob Ross" style="text;whiteSpace=wrap;fontSize=10;spacing=16;spacingTop=-4;resizeWidth=1;resizeHeight=1;" vertex="1" parent="UQy8q50rhMzNLok17Bqi-85">
          <mxGeometry x="150" y="157.40814814814814" width="330" height="37.03703703703704" as="geometry" />
        </mxCell>
        <mxCell id="UQy8q50rhMzNLok17Bqi-94" value="Warehouse B" style="text;whiteSpace=wrap;fontSize=10;spacing=16;spacingTop=-4;resizeWidth=1;resizeHeight=1;" vertex="1" parent="UQy8q50rhMzNLok17Bqi-85">
          <mxGeometry x="150" y="182.96592592592592" width="330" height="37.03703703703704" as="geometry" />
        </mxCell>
        <mxCell id="UQy8q50rhMzNLok17Bqi-95" value="Paper, CD, DVD" style="text;whiteSpace=wrap;fontSize=10;spacing=16;spacingTop=-4;resizeWidth=1;resizeHeight=1;" vertex="1" parent="UQy8q50rhMzNLok17Bqi-85">
          <mxGeometry x="150" y="212.96370370370371" width="330" height="37.03703703703704" as="geometry" />
        </mxCell>
        <mxCell id="UQy8q50rhMzNLok17Bqi-96" value="Spooky" style="text;whiteSpace=wrap;fontSize=10;spacing=16;spacingTop=-4;resizeWidth=1;resizeHeight=1;" vertex="1" parent="UQy8q50rhMzNLok17Bqi-85">
          <mxGeometry x="150" y="242.9614814814815" width="330" height="37.03703703703704" as="geometry" />
        </mxCell>
        <mxCell id="UQy8q50rhMzNLok17Bqi-97" value="RCS 10-38 1a" style="text;whiteSpace=wrap;fontSize=10;spacing=16;spacingTop=-4;resizeWidth=1;resizeHeight=1;fontColor=#0645AD;fontStyle=4" vertex="1" parent="UQy8q50rhMzNLok17Bqi-85">
          <mxGeometry x="150" y="272.9592592592592" width="330" height="37.03703703703704" as="geometry" />
        </mxCell>
        <mxCell id="UQy8q50rhMzNLok17Bqi-98" value="Yes" style="text;whiteSpace=wrap;fontSize=10;spacing=16;spacingTop=-4;resizeWidth=1;resizeHeight=1;" vertex="1" parent="UQy8q50rhMzNLok17Bqi-85">
          <mxGeometry x="150" y="298.9670370370371" width="330" height="37.03703703703704" as="geometry" />
        </mxCell>
        <mxCell id="UQy8q50rhMzNLok17Bqi-99" value="US Persons" style="text;whiteSpace=wrap;fontSize=10;spacing=16;spacingTop=-4;resizeWidth=1;resizeHeight=1;" vertex="1" parent="UQy8q50rhMzNLok17Bqi-85">
          <mxGeometry x="150" y="326.00481481481484" width="330" height="37.03703703703704" as="geometry" />
        </mxCell>
        <mxCell id="UQy8q50rhMzNLok17Bqi-100" value="Rocky" style="text;whiteSpace=wrap;fontSize=10;spacing=16;spacingTop=-4;resizeWidth=1;resizeHeight=1;" vertex="1" parent="UQy8q50rhMzNLok17Bqi-85">
          <mxGeometry x="150" y="356.48259259259265" width="330" height="37.03703703703704" as="geometry" />
        </mxCell>
        <mxCell id="UQy8q50rhMzNLok17Bqi-101" value="Cindy-Luo Who" style="text;whiteSpace=wrap;fontSize=10;spacing=16;spacingTop=-4;resizeWidth=1;resizeHeight=1;" vertex="1" parent="UQy8q50rhMzNLok17Bqi-85">
          <mxGeometry x="150" y="384.0025925925927" width="330" height="37.03703703703704" as="geometry" />
        </mxCell>
        <mxCell id="UQy8q50rhMzNLok17Bqi-102" value="" style="group;shadow=0;" vertex="1" connectable="0" parent="UQy8q50rhMzNLok17Bqi-85">
          <mxGeometry x="-100" y="39.99999999999998" width="460.00402733964245" height="490" as="geometry" />
        </mxCell>
        <mxCell id="UQy8q50rhMzNLok17Bqi-103" value="Advanced Filters" style="html=1;shadow=0;dashed=0;shape=mxgraph.bootstrap.rrect;rSize=5;html=1;strokeColor=#C8C8C8;fillColor=#ffffff;whiteSpace=wrap;verticalAlign=top;align=left;fontSize=18;spacing=15;spacingTop=-5;container=0;" vertex="1" parent="UQy8q50rhMzNLok17Bqi-102">
          <mxGeometry width="460.00402733964245" height="490" as="geometry" />
        </mxCell>
        <mxCell id="UQy8q50rhMzNLok17Bqi-104" value="" style="rounded=1;fillColor=#F0F2F5;strokeColor=#D8DCE3;align=left;verticalAlign=middle;fontStyle=0;fontSize=12;labelPosition=right;verticalLabelPosition=middle;spacingLeft=10;html=1;shadow=0;dashed=0;sketch=0;" vertex="1" parent="UQy8q50rhMzNLok17Bqi-102">
          <mxGeometry x="140" y="195" width="12" height="12" as="geometry" />
        </mxCell>
        <mxCell id="UQy8q50rhMzNLok17Bqi-105" value="" style="shape=line;strokeColor=#dddddd;resizeWidth=1;" vertex="1" parent="UQy8q50rhMzNLok17Bqi-102">
          <mxGeometry x="0.004027339642448169" y="407.98220611916275" width="460" height="18.14814814814815" as="geometry" />
        </mxCell>
        <mxCell id="UQy8q50rhMzNLok17Bqi-106" value="" style="html=1;shadow=0;dashed=0;shape=mxgraph.bootstrap.rrect;rSize=5;strokeColor=#CED4DA;html=1;whiteSpace=wrap;fillColor=#FFFFFF;fontColor=#7D868C;align=left;spacing=15;spacingLeft=40;fontSize=14;" vertex="1" parent="UQy8q50rhMzNLok17Bqi-102">
          <mxGeometry x="220" y="65" width="230.00000000000006" height="30" as="geometry" />
        </mxCell>
        <mxCell id="UQy8q50rhMzNLok17Bqi-107" value="&lt;font color=&quot;#000000&quot; style=&quot;font-size: 11px;&quot;&gt;IMO Assigned&lt;/font&gt;" style="text;html=1;strokeColor=none;fillColor=none;align=left;verticalAlign=middle;whiteSpace=wrap;rounded=0;shadow=0;sketch=0;fontSize=11;fontColor=#0645AD;" vertex="1" parent="UQy8q50rhMzNLok17Bqi-102">
          <mxGeometry x="9.669999999999959" y="70" width="80.33" height="20" as="geometry" />
        </mxCell>
        <mxCell id="UQy8q50rhMzNLok17Bqi-108" value="" style="html=1;shadow=0;dashed=0;shape=mxgraph.atlassian.checkbox_2;fillColor=#0057D8;strokeColor=none;align=left;verticalAlign=middle;fontStyle=0;fontSize=12;labelPosition=right;verticalLabelPosition=middle;spacingLeft=10;rounded=1;sketch=0;" vertex="1" parent="UQy8q50rhMzNLok17Bqi-102">
          <mxGeometry x="100" y="74" width="12.000000000000002" height="12" as="geometry" />
        </mxCell>
        <mxCell id="UQy8q50rhMzNLok17Bqi-109" value="&lt;font color=&quot;#000000&quot; style=&quot;font-size: 11px;&quot;&gt;PII Decision&lt;/font&gt;" style="text;html=1;strokeColor=none;fillColor=none;align=left;verticalAlign=middle;whiteSpace=wrap;rounded=0;shadow=0;sketch=0;fontSize=11;fontColor=#0645AD;" vertex="1" parent="UQy8q50rhMzNLok17Bqi-102">
          <mxGeometry x="9.669999999999959" y="110" width="80.33" height="20" as="geometry" />
        </mxCell>
        <mxCell id="UQy8q50rhMzNLok17Bqi-110" value="&lt;font color=&quot;#000000&quot; style=&quot;font-size: 11px;&quot;&gt;RCS Assigned&lt;/font&gt;" style="text;html=1;strokeColor=none;fillColor=none;align=left;verticalAlign=middle;whiteSpace=wrap;rounded=0;shadow=0;sketch=0;fontSize=11;fontColor=#0645AD;" vertex="1" parent="UQy8q50rhMzNLok17Bqi-102">
          <mxGeometry x="9.669999999999959" y="150" width="80.33" height="20" as="geometry" />
        </mxCell>
        <mxCell id="UQy8q50rhMzNLok17Bqi-111" value="&lt;font color=&quot;#000000&quot; style=&quot;font-size: 12px;&quot;&gt;Record Type&lt;/font&gt;" style="text;html=1;strokeColor=none;fillColor=none;align=left;verticalAlign=middle;whiteSpace=wrap;rounded=0;shadow=0;sketch=0;fontSize=12;fontColor=#0645AD;" vertex="1" parent="UQy8q50rhMzNLok17Bqi-102">
          <mxGeometry x="9.669999999999959" y="190" width="80.33" height="20" as="geometry" />
        </mxCell>
        <mxCell id="UQy8q50rhMzNLok17Bqi-112" value="" style="rounded=1;fillColor=#F0F2F5;strokeColor=#D8DCE3;align=left;verticalAlign=middle;fontStyle=0;fontSize=12;labelPosition=right;verticalLabelPosition=middle;spacingLeft=10;html=1;shadow=0;dashed=0;sketch=0;" vertex="1" parent="UQy8q50rhMzNLok17Bqi-102">
          <mxGeometry x="100" y="114" width="12" height="12" as="geometry" />
        </mxCell>
        <mxCell id="UQy8q50rhMzNLok17Bqi-113" value="PII Type" style="rounded=1;fillColor=#F1F2F4;strokeColor=none;html=1;fontColor=#596780;align=left;fontSize=12;spacingLeft=10;shadow=0;sketch=0;" vertex="1" parent="UQy8q50rhMzNLok17Bqi-102">
          <mxGeometry x="220" y="105" width="230" height="30" as="geometry" />
        </mxCell>
        <mxCell id="UQy8q50rhMzNLok17Bqi-114" value="" style="shape=triangle;direction=south;fillColor=#596780;strokeColor=none;html=1" vertex="1" parent="UQy8q50rhMzNLok17Bqi-113">
          <mxGeometry x="1" y="0.5" width="12" height="6" relative="1" as="geometry">
            <mxPoint x="-20" y="-3" as="offset" />
          </mxGeometry>
        </mxCell>
        <mxCell id="UQy8q50rhMzNLok17Bqi-115" value="" style="rounded=1;fillColor=#F0F2F5;strokeColor=#D8DCE3;align=left;verticalAlign=middle;fontStyle=0;fontSize=12;labelPosition=right;verticalLabelPosition=middle;spacingLeft=10;html=1;shadow=0;dashed=0;sketch=0;" vertex="1" parent="UQy8q50rhMzNLok17Bqi-102">
          <mxGeometry x="140" y="74" width="12" height="12" as="geometry" />
        </mxCell>
        <mxCell id="UQy8q50rhMzNLok17Bqi-116" value="Yes/No" style="text;html=1;strokeColor=none;fillColor=none;align=center;verticalAlign=middle;whiteSpace=wrap;rounded=0;shadow=0;sketch=0;fontSize=8;fontColor=#000000;" vertex="1" parent="UQy8q50rhMzNLok17Bqi-102">
          <mxGeometry x="86" y="54" width="40" height="20" as="geometry" />
        </mxCell>
        <mxCell id="UQy8q50rhMzNLok17Bqi-117" value="Null" style="text;html=1;strokeColor=none;fillColor=none;align=center;verticalAlign=middle;whiteSpace=wrap;rounded=0;shadow=0;sketch=0;fontSize=8;fontColor=#000000;" vertex="1" parent="UQy8q50rhMzNLok17Bqi-102">
          <mxGeometry x="126" y="54" width="40" height="20" as="geometry" />
        </mxCell>
        <mxCell id="UQy8q50rhMzNLok17Bqi-118" value="" style="rounded=1;fillColor=#F0F2F5;strokeColor=#D8DCE3;align=left;verticalAlign=middle;fontStyle=0;fontSize=12;labelPosition=right;verticalLabelPosition=middle;spacingLeft=10;html=1;shadow=0;dashed=0;sketch=0;" vertex="1" parent="UQy8q50rhMzNLok17Bqi-102">
          <mxGeometry x="140" y="114" width="12" height="12" as="geometry" />
        </mxCell>
        <mxCell id="UQy8q50rhMzNLok17Bqi-119" value="" style="rounded=1;fillColor=#F0F2F5;strokeColor=#D8DCE3;align=left;verticalAlign=middle;fontStyle=0;fontSize=12;labelPosition=right;verticalLabelPosition=middle;spacingLeft=10;html=1;shadow=0;dashed=0;sketch=0;" vertex="1" parent="UQy8q50rhMzNLok17Bqi-102">
          <mxGeometry x="100" y="154" width="12" height="12" as="geometry" />
        </mxCell>
        <mxCell id="UQy8q50rhMzNLok17Bqi-120" value="" style="html=1;shadow=0;dashed=0;shape=mxgraph.atlassian.checkbox_2;fillColor=#0057D8;strokeColor=none;align=left;verticalAlign=middle;fontStyle=0;fontSize=12;labelPosition=right;verticalLabelPosition=middle;spacingLeft=10;rounded=1;sketch=0;" vertex="1" parent="UQy8q50rhMzNLok17Bqi-102">
          <mxGeometry x="140" y="154" width="12.000000000000002" height="12" as="geometry" />
        </mxCell>
        <mxCell id="UQy8q50rhMzNLok17Bqi-121" value="RCS Assigned" style="rounded=1;fillColor=#F1F2F4;strokeColor=none;html=1;fontColor=#596780;align=left;fontSize=12;spacingLeft=10;shadow=0;sketch=0;" vertex="1" parent="UQy8q50rhMzNLok17Bqi-102">
          <mxGeometry x="220" y="145" width="230" height="30" as="geometry" />
        </mxCell>
        <mxCell id="UQy8q50rhMzNLok17Bqi-122" value="" style="shape=triangle;direction=south;fillColor=#596780;strokeColor=none;html=1" vertex="1" parent="UQy8q50rhMzNLok17Bqi-121">
          <mxGeometry x="1" y="0.5" width="12" height="6" relative="1" as="geometry">
            <mxPoint x="-20" y="-3" as="offset" />
          </mxGeometry>
        </mxCell>
        <mxCell id="UQy8q50rhMzNLok17Bqi-123" value="Record Type" style="rounded=1;fillColor=#F1F2F4;strokeColor=none;html=1;fontColor=#596780;align=left;fontSize=12;spacingLeft=10;shadow=0;sketch=0;" vertex="1" parent="UQy8q50rhMzNLok17Bqi-102">
          <mxGeometry x="220" y="185" width="230" height="30" as="geometry" />
        </mxCell>
        <mxCell id="UQy8q50rhMzNLok17Bqi-124" value="" style="shape=triangle;direction=south;fillColor=#596780;strokeColor=none;html=1" vertex="1" parent="UQy8q50rhMzNLok17Bqi-123">
          <mxGeometry x="1" y="0.5" width="12" height="6" relative="1" as="geometry">
            <mxPoint x="-20" y="-3" as="offset" />
          </mxGeometry>
        </mxCell>
        <mxCell id="UQy8q50rhMzNLok17Bqi-125" value="Format Type" style="rounded=1;fillColor=#F1F2F4;strokeColor=none;html=1;fontColor=#596780;align=left;fontSize=12;spacingLeft=10;shadow=0;sketch=0;" vertex="1" parent="UQy8q50rhMzNLok17Bqi-102">
          <mxGeometry x="220" y="225" width="230" height="30" as="geometry" />
        </mxCell>
        <mxCell id="UQy8q50rhMzNLok17Bqi-126" value="" style="shape=triangle;direction=south;fillColor=#596780;strokeColor=none;html=1" vertex="1" parent="UQy8q50rhMzNLok17Bqi-125">
          <mxGeometry x="1" y="0.5" width="12" height="6" relative="1" as="geometry">
            <mxPoint x="-20" y="-3" as="offset" />
          </mxGeometry>
        </mxCell>
        <mxCell id="UQy8q50rhMzNLok17Bqi-127" value="&lt;font color=&quot;#000000&quot; style=&quot;font-size: 11px;&quot;&gt;Record Format&lt;/font&gt;" style="text;html=1;strokeColor=none;fillColor=none;align=left;verticalAlign=middle;whiteSpace=wrap;rounded=0;shadow=0;sketch=0;fontSize=11;fontColor=#0645AD;" vertex="1" parent="UQy8q50rhMzNLok17Bqi-102">
          <mxGeometry x="9.669999999999959" y="230" width="80.33" height="20" as="geometry" />
        </mxCell>
        <mxCell id="UQy8q50rhMzNLok17Bqi-128" value="&lt;font color=&quot;#000000&quot; style=&quot;font-size: 11px;&quot;&gt;Location&lt;/font&gt;" style="text;html=1;strokeColor=none;fillColor=none;align=left;verticalAlign=middle;whiteSpace=wrap;rounded=0;shadow=0;sketch=0;fontSize=11;fontColor=#0645AD;" vertex="1" parent="UQy8q50rhMzNLok17Bqi-102">
          <mxGeometry x="9.669999999999959" y="270" width="80.33" height="20" as="geometry" />
        </mxCell>
        <mxCell id="UQy8q50rhMzNLok17Bqi-129" value="Location" style="rounded=1;fillColor=#F1F2F4;strokeColor=none;html=1;fontColor=#596780;align=left;fontSize=12;spacingLeft=10;shadow=0;sketch=0;" vertex="1" parent="UQy8q50rhMzNLok17Bqi-102">
          <mxGeometry x="220" y="265" width="230" height="30" as="geometry" />
        </mxCell>
        <mxCell id="UQy8q50rhMzNLok17Bqi-130" value="" style="shape=triangle;direction=south;fillColor=#596780;strokeColor=none;html=1" vertex="1" parent="UQy8q50rhMzNLok17Bqi-129">
          <mxGeometry x="1" y="0.5" width="12" height="6" relative="1" as="geometry">
            <mxPoint x="-20" y="-3" as="offset" />
          </mxGeometry>
        </mxCell>
        <mxCell id="UQy8q50rhMzNLok17Bqi-131" value="" style="html=1;shadow=0;dashed=0;shape=mxgraph.atlassian.checkbox_2;fillColor=#0057D8;strokeColor=none;align=left;verticalAlign=middle;fontStyle=0;fontSize=12;labelPosition=right;verticalLabelPosition=middle;spacingLeft=10;rounded=1;sketch=0;" vertex="1" parent="UQy8q50rhMzNLok17Bqi-102">
          <mxGeometry x="100" y="274" width="12.000000000000002" height="12" as="geometry" />
        </mxCell>
        <mxCell id="UQy8q50rhMzNLok17Bqi-132" value="" style="rounded=1;fillColor=#F0F2F5;strokeColor=#D8DCE3;align=left;verticalAlign=middle;fontStyle=0;fontSize=12;labelPosition=right;verticalLabelPosition=middle;spacingLeft=10;html=1;shadow=0;dashed=0;sketch=0;" vertex="1" parent="UQy8q50rhMzNLok17Bqi-102">
          <mxGeometry x="100" y="194" width="12" height="12" as="geometry" />
        </mxCell>
        <mxCell id="UQy8q50rhMzNLok17Bqi-133" value="" style="rounded=1;fillColor=#F0F2F5;strokeColor=#D8DCE3;align=left;verticalAlign=middle;fontStyle=0;fontSize=12;labelPosition=right;verticalLabelPosition=middle;spacingLeft=10;html=1;shadow=0;dashed=0;sketch=0;" vertex="1" parent="UQy8q50rhMzNLok17Bqi-102">
          <mxGeometry x="100" y="234" width="12" height="12" as="geometry" />
        </mxCell>
        <mxCell id="UQy8q50rhMzNLok17Bqi-134" value="" style="rounded=1;fillColor=#F0F2F5;strokeColor=#D8DCE3;align=left;verticalAlign=middle;fontStyle=0;fontSize=12;labelPosition=right;verticalLabelPosition=middle;spacingLeft=10;html=1;shadow=0;dashed=0;sketch=0;" vertex="1" parent="UQy8q50rhMzNLok17Bqi-102">
          <mxGeometry x="140" y="194" width="12" height="12" as="geometry" />
        </mxCell>
        <mxCell id="UQy8q50rhMzNLok17Bqi-135" value="" style="rounded=1;fillColor=#F0F2F5;strokeColor=#D8DCE3;align=left;verticalAlign=middle;fontStyle=0;fontSize=12;labelPosition=right;verticalLabelPosition=middle;spacingLeft=10;html=1;shadow=0;dashed=0;sketch=0;" vertex="1" parent="UQy8q50rhMzNLok17Bqi-102">
          <mxGeometry x="140" y="234" width="12" height="12" as="geometry" />
        </mxCell>
        <mxCell id="UQy8q50rhMzNLok17Bqi-136" value="" style="rounded=1;fillColor=#F0F2F5;strokeColor=#D8DCE3;align=left;verticalAlign=middle;fontStyle=0;fontSize=12;labelPosition=right;verticalLabelPosition=middle;spacingLeft=10;html=1;shadow=0;dashed=0;sketch=0;" vertex="1" parent="UQy8q50rhMzNLok17Bqi-102">
          <mxGeometry x="140" y="274" width="12" height="12" as="geometry" />
        </mxCell>
        <mxCell id="UQy8q50rhMzNLok17Bqi-137" value="&lt;font color=&quot;#000000&quot; style=&quot;font-size: 11px;&quot;&gt;Originating Org:&lt;/font&gt;" style="text;html=1;strokeColor=none;fillColor=none;align=left;verticalAlign=middle;whiteSpace=wrap;rounded=0;shadow=0;sketch=0;fontSize=11;fontColor=#0645AD;" vertex="1" parent="UQy8q50rhMzNLok17Bqi-102">
          <mxGeometry x="9.669999999999959" y="315" width="80.33" height="20" as="geometry" />
        </mxCell>
        <mxCell id="UQy8q50rhMzNLok17Bqi-138" value="" style="shape=line;strokeColor=#dddddd;resizeWidth=1;" vertex="1" parent="UQy8q50rhMzNLok17Bqi-102">
          <mxGeometry x="0.004027339642448169" y="296.8522061191628" width="460" height="18.14814814814815" as="geometry" />
        </mxCell>
        <mxCell id="UQy8q50rhMzNLok17Bqi-139" value="Level 4" style="rounded=1;fillColor=#F1F2F4;strokeColor=none;html=1;fontColor=#596780;align=left;fontSize=12;spacingLeft=10;shadow=0;sketch=0;" vertex="1" parent="UQy8q50rhMzNLok17Bqi-102">
          <mxGeometry x="279.6700000000001" y="350" width="80" height="30" as="geometry" />
        </mxCell>
        <mxCell id="UQy8q50rhMzNLok17Bqi-140" value="" style="shape=triangle;direction=south;fillColor=#596780;strokeColor=none;html=1" vertex="1" parent="UQy8q50rhMzNLok17Bqi-139">
          <mxGeometry x="1" y="0.5" width="12" height="6" relative="1" as="geometry">
            <mxPoint x="-20" y="-3" as="offset" />
          </mxGeometry>
        </mxCell>
        <mxCell id="UQy8q50rhMzNLok17Bqi-141" value="&lt;font color=&quot;#000000&quot;&gt;PPP/QQQ/RRR/ZZZ/AAA&lt;/font&gt;" style="text;html=1;strokeColor=none;fillColor=none;align=left;verticalAlign=middle;whiteSpace=wrap;rounded=0;shadow=0;sketch=0;fontSize=10;fontColor=#0645AD;" vertex="1" parent="UQy8q50rhMzNLok17Bqi-102">
          <mxGeometry x="100" y="315" width="80.33" height="20" as="geometry" />
        </mxCell>
        <mxCell id="UQy8q50rhMzNLok17Bqi-142" value="Level 5" style="rounded=1;fillColor=#F1F2F4;strokeColor=none;html=1;fontColor=#596780;align=left;fontSize=12;spacingLeft=10;shadow=0;sketch=0;" vertex="1" parent="UQy8q50rhMzNLok17Bqi-102">
          <mxGeometry x="370" y="350" width="80" height="30" as="geometry" />
        </mxCell>
        <mxCell id="UQy8q50rhMzNLok17Bqi-143" value="" style="shape=triangle;direction=south;fillColor=#596780;strokeColor=none;html=1" vertex="1" parent="UQy8q50rhMzNLok17Bqi-142">
          <mxGeometry x="1" y="0.5" width="12" height="6" relative="1" as="geometry">
            <mxPoint x="-20" y="-3" as="offset" />
          </mxGeometry>
        </mxCell>
        <mxCell id="UQy8q50rhMzNLok17Bqi-144" value="Level 1" style="rounded=1;fillColor=#F1F2F4;strokeColor=none;html=1;fontColor=#596780;align=left;fontSize=12;spacingLeft=10;shadow=0;sketch=0;" vertex="1" parent="UQy8q50rhMzNLok17Bqi-102">
          <mxGeometry x="9.670000000000073" y="350" width="80" height="30" as="geometry" />
        </mxCell>
        <mxCell id="UQy8q50rhMzNLok17Bqi-145" value="" style="shape=triangle;direction=south;fillColor=#596780;strokeColor=none;html=1" vertex="1" parent="UQy8q50rhMzNLok17Bqi-144">
          <mxGeometry x="1" y="0.5" width="12" height="6" relative="1" as="geometry">
            <mxPoint x="-20" y="-3" as="offset" />
          </mxGeometry>
        </mxCell>
        <mxCell id="UQy8q50rhMzNLok17Bqi-146" value="Level 2" style="rounded=1;fillColor=#F1F2F4;strokeColor=none;html=1;fontColor=#596780;align=left;fontSize=12;spacingLeft=10;shadow=0;sketch=0;" vertex="1" parent="UQy8q50rhMzNLok17Bqi-102">
          <mxGeometry x="99.67000000000007" y="350" width="80" height="30" as="geometry" />
        </mxCell>
        <mxCell id="UQy8q50rhMzNLok17Bqi-147" value="" style="shape=triangle;direction=south;fillColor=#596780;strokeColor=none;html=1" vertex="1" parent="UQy8q50rhMzNLok17Bqi-146">
          <mxGeometry x="1" y="0.5" width="12" height="6" relative="1" as="geometry">
            <mxPoint x="-20" y="-3" as="offset" />
          </mxGeometry>
        </mxCell>
        <mxCell id="UQy8q50rhMzNLok17Bqi-148" value="Filter" style="html=1;shadow=0;dashed=0;shape=mxgraph.bootstrap.rrect;rSize=5;fillColor=#0085FC;strokeColor=none;fontColor=#FFFFFF;fontSize=14;" vertex="1" parent="UQy8q50rhMzNLok17Bqi-102">
          <mxGeometry x="359" y="430" width="91" height="40" as="geometry" />
        </mxCell>
        <mxCell id="UQy8q50rhMzNLok17Bqi-149" value="Cancel" style="html=1;shadow=0;dashed=0;shape=mxgraph.bootstrap.rrect;rSize=5;fillColor=#6C757D;strokeColor=none;fontColor=#FFFFFF;fontSize=14;" vertex="1" parent="UQy8q50rhMzNLok17Bqi-102">
          <mxGeometry x="270" y="430" width="70" height="40" as="geometry" />
        </mxCell>
        <mxCell id="UQy8q50rhMzNLok17Bqi-150" value="" style="shape=line;strokeColor=#dddddd;resizeWidth=1;" vertex="1" parent="UQy8q50rhMzNLok17Bqi-102">
          <mxGeometry x="0.004027339642448169" y="35.852206119162815" width="460" height="18.14814814814815" as="geometry" />
        </mxCell>
        <mxCell id="UQy8q50rhMzNLok17Bqi-151" value="Level 3" style="rounded=1;fillColor=#F1F2F4;strokeColor=none;html=1;fontColor=#596780;align=left;fontSize=12;spacingLeft=10;shadow=0;sketch=0;" vertex="1" parent="UQy8q50rhMzNLok17Bqi-102">
          <mxGeometry x="190.00000000000006" y="350" width="80" height="30" as="geometry" />
        </mxCell>
        <mxCell id="UQy8q50rhMzNLok17Bqi-152" value="" style="shape=triangle;direction=south;fillColor=#596780;strokeColor=none;html=1" vertex="1" parent="UQy8q50rhMzNLok17Bqi-151">
          <mxGeometry x="1" y="0.5" width="12" height="6" relative="1" as="geometry">
            <mxPoint x="-20" y="-3" as="offset" />
          </mxGeometry>
        </mxCell>
        <mxCell id="UQy8q50rhMzNLok17Bqi-153" value="" style="shape=ellipse;dashed=0;strokeColor=none;shadow=1;fontSize=13;align=center;verticalAlign=top;labelPosition=center;verticalLabelPosition=bottom;html=1;aspect=fixed;fillColor=#F8F9FA;" vertex="1" parent="UQy8q50rhMzNLok17Bqi-1">
          <mxGeometry x="697" y="1080" width="30" height="30" as="geometry" />
        </mxCell>
        <mxCell id="UQy8q50rhMzNLok17Bqi-154" value="" style="dashed=0;html=1;shape=mxgraph.gmdl.edit;strokeColor=none;fillColor=#737373;shadow=0;" vertex="1" parent="UQy8q50rhMzNLok17Bqi-153">
          <mxGeometry x="9.642857142857142" y="9.642857142857142" width="10.714285714285714" height="10.714285714285714" as="geometry" />
        </mxCell>
        <mxCell id="UQy8q50rhMzNLok17Bqi-155" value="" style="shape=ellipse;dashed=0;strokeColor=none;shadow=1;fontSize=13;align=center;verticalAlign=top;labelPosition=center;verticalLabelPosition=bottom;html=1;aspect=fixed;fillColor=#F8F9FA;" vertex="1" parent="UQy8q50rhMzNLok17Bqi-1">
          <mxGeometry x="804" y="1080" width="30" height="30" as="geometry" />
        </mxCell>
        <mxCell id="UQy8q50rhMzNLok17Bqi-156" value="" style="dashed=0;html=1;shape=mxgraph.gmdl.x;strokeColor=#737373;strokeWidth=2;shadow=0;" vertex="1" parent="UQy8q50rhMzNLok17Bqi-155">
          <mxGeometry x="10.714285714285714" y="10.714285714285714" width="8.571428571428571" height="8.571428571428571" as="geometry" />
        </mxCell>
        <mxCell id="UQy8q50rhMzNLok17Bqi-157" value="" style="shape=ellipse;dashed=0;strokeColor=none;shadow=1;fontSize=13;align=center;verticalAlign=top;labelPosition=center;verticalLabelPosition=bottom;html=1;aspect=fixed;rounded=1;sketch=0;fillColor=#F8F9FA;" vertex="1" parent="UQy8q50rhMzNLok17Bqi-1">
          <mxGeometry x="734" y="1080" width="30" height="30" as="geometry" />
        </mxCell>
        <mxCell id="UQy8q50rhMzNLok17Bqi-158" value="" style="dashed=0;html=1;shape=mxgraph.gmdl.star;strokeColor=none;fillColor=#737373;shadow=0;" vertex="1" parent="UQy8q50rhMzNLok17Bqi-157">
          <mxGeometry x="9.642857142857142" y="9.642857142857142" width="10.714285714285714" height="10.714285714285714" as="geometry" />
        </mxCell>
        <mxCell id="UQy8q50rhMzNLok17Bqi-159" value="&amp;lt;Classification Here&amp;gt;" style="rounded=0;whiteSpace=wrap;html=1;shadow=0;sketch=0;fontSize=12;align=center;fillColor=#FFFF33;" vertex="1" parent="UQy8q50rhMzNLok17Bqi-1">
          <mxGeometry x="40" y="870" width="814" height="20" as="geometry" />
        </mxCell>
        <mxCell id="UQy8q50rhMzNLok17Bqi-160" value="" style="html=1;shadow=0;dashed=0;shape=mxgraph.bootstrap.rrect;rSize=5;strokeColor=#DEE2E6;html=1;whiteSpace=wrap;fillColor=#ffffff;fontColor=#0085FC;fontSize=14;" vertex="1" parent="UQy8q50rhMzNLok17Bqi-1">
          <mxGeometry x="124" y="1640" width="187" height="25" as="geometry" />
        </mxCell>
        <mxCell id="UQy8q50rhMzNLok17Bqi-161" value="Previous" style="strokeColor=inherit;fillColor=inherit;gradientColor=inherit;html=1;shadow=0;dashed=0;shape=mxgraph.bootstrap.leftButton;rSize=5;perimeter=none;whiteSpace=wrap;resizeHeight=1;fontColor=#6C767D;fontSize=14;" vertex="1" parent="UQy8q50rhMzNLok17Bqi-160">
          <mxGeometry width="70" height="25" relative="1" as="geometry" />
        </mxCell>
        <mxCell id="UQy8q50rhMzNLok17Bqi-162" value="1" style="strokeColor=inherit;fillColor=inherit;gradientColor=inherit;fontColor=inherit;html=1;shadow=0;dashed=0;perimeter=none;whiteSpace=wrap;resizeHeight=1;fontSize=14;" vertex="1" parent="UQy8q50rhMzNLok17Bqi-160">
          <mxGeometry width="30" height="25" relative="1" as="geometry">
            <mxPoint x="70" as="offset" />
          </mxGeometry>
        </mxCell>
        <mxCell id="UQy8q50rhMzNLok17Bqi-163" value="2" style="html=1;shadow=0;dashed=0;perimeter=none;whiteSpace=wrap;resizeHeight=1;fillColor=#0085FC;strokeColor=none;fontColor=#ffffff;fontSize=14;" vertex="1" parent="UQy8q50rhMzNLok17Bqi-160">
          <mxGeometry width="30" height="25" relative="1" as="geometry">
            <mxPoint x="100" as="offset" />
          </mxGeometry>
        </mxCell>
        <mxCell id="UQy8q50rhMzNLok17Bqi-164" value="3" style="strokeColor=inherit;fillColor=inherit;gradientColor=inherit;fontColor=inherit;html=1;shadow=0;dashed=0;perimeter=none;whiteSpace=wrap;resizeHeight=1;fontSize=14;" vertex="1" parent="UQy8q50rhMzNLok17Bqi-160">
          <mxGeometry width="30" height="25" relative="1" as="geometry">
            <mxPoint x="130" as="offset" />
          </mxGeometry>
        </mxCell>
        <mxCell id="UQy8q50rhMzNLok17Bqi-165" value="Next" style="strokeColor=inherit;fillColor=inherit;gradientColor=inherit;fontColor=inherit;html=1;shadow=0;dashed=0;shape=mxgraph.bootstrap.rightButton;rSize=5;perimeter=none;whiteSpace=wrap;resizeHeight=1;fontSize=14;" vertex="1" parent="UQy8q50rhMzNLok17Bqi-160">
          <mxGeometry x="1" width="60" height="25" relative="1" as="geometry">
            <mxPoint x="-60" as="offset" />
          </mxGeometry>
        </mxCell>
        <mxCell id="UQy8q50rhMzNLok17Bqi-166" value="" style="rounded=0;whiteSpace=wrap;html=1;fontSize=20;align=left;fillColor=#3333FF;" vertex="1" parent="UQy8q50rhMzNLok17Bqi-1">
          <mxGeometry x="40" y="1040" width="274" height="40" as="geometry" />
        </mxCell>
        <mxCell id="UQy8q50rhMzNLok17Bqi-167" value="Datasets" style="text;html=1;strokeColor=none;fillColor=none;align=left;verticalAlign=middle;whiteSpace=wrap;rounded=0;labelPosition=center;verticalLabelPosition=middle;fontSize=16;fontStyle=1;fontColor=#FFFFFF;" vertex="1" parent="UQy8q50rhMzNLok17Bqi-1">
          <mxGeometry x="47" y="1050" width="260" height="20" as="geometry" />
        </mxCell>
        <mxCell id="UQy8q50rhMzNLok17Bqi-168" value="Fav:" style="text;html=1;strokeColor=none;fillColor=none;align=center;verticalAlign=middle;whiteSpace=wrap;rounded=0;shadow=0;sketch=0;fontSize=10;fontColor=#FFFFFF;" vertex="1" parent="UQy8q50rhMzNLok17Bqi-1">
          <mxGeometry x="241" y="1050" width="40" height="20" as="geometry" />
        </mxCell>
        <mxCell id="UQy8q50rhMzNLok17Bqi-169" value="" style="shape=image;html=1;verticalAlign=top;verticalLabelPosition=bottom;labelBackgroundColor=#ffffff;imageAspect=0;aspect=fixed;image=https://cdn2.iconfinder.com/data/icons/font-awesome/1792/sort-alpha-asc-128.png;rounded=1;shadow=1;sketch=0;strokeColor=#000000;fillColor=#4285F4;fontSize=11;align=left;fontColor=#97D077;" vertex="1" parent="UQy8q50rhMzNLok17Bqi-1">
          <mxGeometry x="194" y="1053" width="15" height="15" as="geometry" />
        </mxCell>
        <mxCell id="UQy8q50rhMzNLok17Bqi-170" value="" style="shape=image;html=1;verticalAlign=top;verticalLabelPosition=bottom;labelBackgroundColor=#ffffff;imageAspect=0;aspect=fixed;image=https://cdn4.iconfinder.com/data/icons/ios-web-user-interface-multi-circle-flat-vol-5/512/Descending_filter_filtering_tool_funnel_sort-128.png;rounded=1;shadow=1;sketch=0;strokeColor=#000000;fillColor=#4285F4;fontSize=11;fontColor=#000000;align=left;" vertex="1" parent="UQy8q50rhMzNLok17Bqi-1">
          <mxGeometry x="219" y="1053" width="15" height="15" as="geometry" />
        </mxCell>
        <mxCell id="UQy8q50rhMzNLok17Bqi-171" value="" style="fillColor=#36B37E;strokeColor=none;rounded=1;arcSize=50;shadow=1;sketch=0;fontSize=11;fontColor=#FFFFFF;align=left;" vertex="1" parent="UQy8q50rhMzNLok17Bqi-1">
          <mxGeometry x="274" y="1052" width="30" height="16" as="geometry" />
        </mxCell>
        <mxCell id="UQy8q50rhMzNLok17Bqi-172" value="" style="shape=ellipse;strokeColor=none;fillColor=#ffffff" vertex="1" parent="UQy8q50rhMzNLok17Bqi-171">
          <mxGeometry x="1" y="0.5" width="12" height="12" relative="1" as="geometry">
            <mxPoint x="-14" y="-6" as="offset" />
          </mxGeometry>
        </mxCell>
        <mxCell id="UQy8q50rhMzNLok17Bqi-173" value="" style="html=1;shadow=0;dashed=0;shape=mxgraph.atlassian.check;strokeColor=#ffffff" vertex="1" parent="UQy8q50rhMzNLok17Bqi-171">
          <mxGeometry y="0.5" width="6" height="5" relative="1" as="geometry">
            <mxPoint x="4" y="-3" as="offset" />
          </mxGeometry>
        </mxCell>
        <mxCell id="UQy8q50rhMzNLok17Bqi-174" value="" style="shape=ellipse;dashed=0;strokeColor=none;shadow=1;fontSize=13;align=center;verticalAlign=top;labelPosition=center;verticalLabelPosition=bottom;html=1;aspect=fixed;rounded=1;sketch=0;fillColor=#F8F9FA;" vertex="1" parent="UQy8q50rhMzNLok17Bqi-1">
          <mxGeometry x="770" y="1080" width="30" height="30" as="geometry" />
        </mxCell>
        <mxCell id="UQy8q50rhMzNLok17Bqi-175" value="" style="dashed=0;html=1;shape=mxgraph.gmdl.cloud;strokeColor=none;fillColor=#737373;shadow=0;" vertex="1" parent="UQy8q50rhMzNLok17Bqi-174">
          <mxGeometry x="8.571428571428571" y="10.714285714285714" width="12.857142857142858" height="8.571428571428571" as="geometry" />
        </mxCell>
        <mxCell id="UQy8q50rhMzNLok17Bqi-176" value="" style="shape=flexArrow;endArrow=classic;html=1;width=1.627906976744186;endWidth=1.4940886059503704;endSize=0.670391061452514;strokeColor=none;fillColor=#ffffff;" edge="1" parent="UQy8q50rhMzNLok17Bqi-174">
          <mxGeometry width="50" height="50" relative="1" as="geometry">
            <mxPoint x="14.939999999999827" y="18" as="sourcePoint" />
            <mxPoint x="14.939999999999827" y="12" as="targetPoint" />
          </mxGeometry>
        </mxCell>
        <mxCell id="UQy8q50rhMzNLok17Bqi-177" value="" style="rounded=0;whiteSpace=wrap;html=1;fillColor=#3333FF;" vertex="1" parent="UQy8q50rhMzNLok17Bqi-1">
          <mxGeometry x="41" y="1730" width="1069" height="60" as="geometry" />
        </mxCell>
        <mxCell id="UQy8q50rhMzNLok17Bqi-178" value="&lt;font style=&quot;font-size: 14px&quot;&gt;FEEDBACK&lt;/font&gt;" style="rounded=1;whiteSpace=wrap;html=1;fillColor=#FF8000;strokeColor=#FF8000;fontColor=#FFFFFF;" vertex="1" parent="UQy8q50rhMzNLok17Bqi-1">
          <mxGeometry x="978" y="1740" width="120" height="40" as="geometry" />
        </mxCell>
        <mxCell id="UQy8q50rhMzNLok17Bqi-179" value="" style="shape=image;html=1;verticalAlign=top;verticalLabelPosition=bottom;labelBackgroundColor=#ffffff;imageAspect=0;aspect=fixed;image=https://cdn3.iconfinder.com/data/icons/social-media-2125/78/bell-128.png;strokeColor=#FF8000;fillColor=#FF8000;fontColor=#FFFFFF;" vertex="1" parent="UQy8q50rhMzNLok17Bqi-1">
          <mxGeometry x="916" y="1740" width="37" height="37" as="geometry" />
        </mxCell>
        <mxCell id="UQy8q50rhMzNLok17Bqi-180" value="" style="whiteSpace=wrap;html=1;shape=mxgraph.basic.octagon2;align=center;verticalAlign=middle;dx=12;shadow=0;sketch=0;fontSize=20;fontColor=#808080;fillColor=#FF8000;strokeColor=#FF8000;" vertex="1" parent="UQy8q50rhMzNLok17Bqi-1">
          <mxGeometry x="51" y="1736.5" width="56" height="42" as="geometry" />
        </mxCell>
        <mxCell id="UQy8q50rhMzNLok17Bqi-181" value="Eva" style="text;html=1;strokeColor=none;fillColor=none;align=center;verticalAlign=middle;whiteSpace=wrap;rounded=0;shadow=0;sketch=0;fontSize=20;fontColor=#FFFFFF;fontStyle=1" vertex="1" parent="UQy8q50rhMzNLok17Bqi-1">
          <mxGeometry x="117" y="1750" width="40" height="20" as="geometry" />
        </mxCell>
        <mxCell id="UQy8q50rhMzNLok17Bqi-182" value="" style="html=1;verticalLabelPosition=bottom;align=center;labelBackgroundColor=#ffffff;verticalAlign=top;strokeWidth=2;shadow=0;dashed=0;shape=mxgraph.ios7.icons.user;sketch=0;fontSize=20;fontColor=#FFFFFF;fillColor=#FFFFFF;" vertex="1" parent="UQy8q50rhMzNLok17Bqi-1">
          <mxGeometry x="764" y="1745" width="30" height="30" as="geometry" />
        </mxCell>
        <mxCell id="UQy8q50rhMzNLok17Bqi-183" value="John Doe" style="text;html=1;strokeColor=none;fillColor=none;align=center;verticalAlign=middle;whiteSpace=wrap;rounded=0;shadow=0;sketch=0;fontSize=19;fontColor=#FFFFFF;" vertex="1" parent="UQy8q50rhMzNLok17Bqi-1">
          <mxGeometry x="807.5" y="1750" width="94" height="20" as="geometry" />
        </mxCell>
        <mxCell id="UQy8q50rhMzNLok17Bqi-184" value="&amp;lt;Classification Here&amp;gt;" style="rounded=0;whiteSpace=wrap;html=1;shadow=0;sketch=0;fontSize=12;align=center;fillColor=#FFFF33;" vertex="1" parent="UQy8q50rhMzNLok17Bqi-1">
          <mxGeometry x="41" y="1710" width="1069" height="20" as="geometry" />
        </mxCell>
        <mxCell id="UQy8q50rhMzNLok17Bqi-185" value="" style="rounded=0;whiteSpace=wrap;html=1;" vertex="1" parent="UQy8q50rhMzNLok17Bqi-1">
          <mxGeometry x="41" y="1790" width="1069" height="750" as="geometry" />
        </mxCell>
        <mxCell id="UQy8q50rhMzNLok17Bqi-186" value="" style="line;strokeWidth=1;fillColor=none;align=left;verticalAlign=middle;spacingTop=-1;spacingLeft=3;spacingRight=3;rotatable=0;labelPosition=right;points=[];portConstraint=eastwest;sketch=0;direction=south;" vertex="1" parent="UQy8q50rhMzNLok17Bqi-1">
          <mxGeometry x="296" y="1869" width="8" height="671" as="geometry" />
        </mxCell>
        <mxCell id="UQy8q50rhMzNLok17Bqi-187" value="" style="group;labelBackgroundColor=#ffffff;" connectable="0" vertex="1" parent="UQy8q50rhMzNLok17Bqi-1">
          <mxGeometry x="360" y="1801" width="555" height="60" as="geometry" />
        </mxCell>
        <mxCell id="UQy8q50rhMzNLok17Bqi-188" value="" style="html=1;shadow=0;dashed=0;fillColor=#F8F9FA;strokeColor=none;fontSize=16;fontColor=#181819;align=left;spacing=15;" vertex="1" parent="UQy8q50rhMzNLok17Bqi-187">
          <mxGeometry width="555" height="60" as="geometry" />
        </mxCell>
        <mxCell id="UQy8q50rhMzNLok17Bqi-189" value="Search" style="html=1;shadow=0;dashed=0;shape=mxgraph.bootstrap.rrect;rSize=5;fontSize=14;fontColor=#6C767D;strokeColor=#CED4DA;fillColor=#ffffff;align=left;spacing=10;" vertex="1" parent="UQy8q50rhMzNLok17Bqi-188">
          <mxGeometry width="470" height="40" relative="1" as="geometry">
            <mxPoint x="10" y="10" as="offset" />
          </mxGeometry>
        </mxCell>
        <mxCell id="UQy8q50rhMzNLok17Bqi-190" value="" style="ellipse;whiteSpace=wrap;html=1;fillColor=#FFFFFF;" vertex="1" parent="UQy8q50rhMzNLok17Bqi-188">
          <mxGeometry x="425.67961165048536" y="22" width="10.776699029126211" height="10" as="geometry" />
        </mxCell>
        <mxCell id="UQy8q50rhMzNLok17Bqi-191" value="" style="endArrow=none;html=1;" edge="1" parent="UQy8q50rhMzNLok17Bqi-188">
          <mxGeometry width="50" height="50" relative="1" as="geometry">
            <mxPoint x="436.4563106796116" y="32" as="sourcePoint" />
            <mxPoint x="436.4563106796116" y="32" as="targetPoint" />
            <Array as="points">
              <mxPoint x="447.23300970873777" y="40" />
            </Array>
          </mxGeometry>
        </mxCell>
        <mxCell id="UQy8q50rhMzNLok17Bqi-192" value="" style="triangle;whiteSpace=wrap;html=1;rotation=90;fillColor=#000000;" vertex="1" parent="UQy8q50rhMzNLok17Bqi-188">
          <mxGeometry x="458.00970873786395" y="25" width="10.776699029126211" height="10" as="geometry" />
        </mxCell>
        <mxCell id="UQy8q50rhMzNLok17Bqi-193" value="" style="shape=ellipse;dashed=0;strokeColor=none;shadow=1;fontSize=13;align=center;verticalAlign=top;labelPosition=center;verticalLabelPosition=bottom;html=1;aspect=fixed;" vertex="1" parent="UQy8q50rhMzNLok17Bqi-187">
          <mxGeometry x="492.5" y="10" width="40" height="40" as="geometry" />
        </mxCell>
        <mxCell id="UQy8q50rhMzNLok17Bqi-194" value="" style="dashed=0;html=1;shape=mxgraph.gmdl.plus;strokeColor=#737373;strokeWidth=2;shadow=0;" vertex="1" parent="UQy8q50rhMzNLok17Bqi-193">
          <mxGeometry x="12" y="12" width="16" height="16" as="geometry" />
        </mxCell>
        <mxCell id="UQy8q50rhMzNLok17Bqi-195" value="" style="line;strokeWidth=1;fillColor=none;align=left;verticalAlign=middle;spacingTop=-1;spacingLeft=3;spacingRight=3;rotatable=0;labelPosition=right;points=[];portConstraint=eastwest;sketch=0;direction=west;" vertex="1" parent="UQy8q50rhMzNLok17Bqi-1">
          <mxGeometry x="43" y="1864" width="1067" height="8" as="geometry" />
        </mxCell>
        <mxCell id="UQy8q50rhMzNLok17Bqi-196" value="" style="line;strokeWidth=1;fillColor=none;align=left;verticalAlign=middle;spacingTop=-1;spacingLeft=3;spacingRight=3;rotatable=0;labelPosition=right;points=[];portConstraint=eastwest;sketch=0;direction=south;" vertex="1" parent="UQy8q50rhMzNLok17Bqi-1">
          <mxGeometry x="572" y="1909" width="8" height="630" as="geometry" />
        </mxCell>
        <mxCell id="UQy8q50rhMzNLok17Bqi-197" value="" style="perimeter=none;dashed=0;shape=mxgraph.gmdl.triangle;strokeColor=none;fillColor=#666666;direction=south;aspect=fixed;" vertex="1" parent="UQy8q50rhMzNLok17Bqi-1">
          <mxGeometry x="286" y="2211" width="8" height="16" as="geometry">
            <mxPoint x="-27" as="offset" />
          </mxGeometry>
        </mxCell>
        <mxCell id="UQy8q50rhMzNLok17Bqi-198" value="" style="rounded=0;whiteSpace=wrap;html=1;fontSize=20;align=left;fillColor=#3333FF;" vertex="1" parent="UQy8q50rhMzNLok17Bqi-1">
          <mxGeometry x="300" y="1868" width="276" height="40" as="geometry" />
        </mxCell>
        <mxCell id="UQy8q50rhMzNLok17Bqi-199" value="" style="html=1;shadow=0;dashed=0;shape=mxgraph.bootstrap.rrect;rSize=5;strokeColor=#DFDFDF;html=1;whiteSpace=wrap;fillColor=#FFFFFF;fontColor=#495057;" vertex="1" parent="UQy8q50rhMzNLok17Bqi-1">
          <mxGeometry x="303" y="1910" width="260" height="300" as="geometry" />
        </mxCell>
        <mxCell id="UQy8q50rhMzNLok17Bqi-200" value="&lt;font style=&quot;font-size: 16px&quot;&gt;Dataset Title #1&lt;/font&gt;&lt;br&gt;Guide: 123456/1258d25s8f22f&lt;br&gt;other data goes here" style="html=1;shadow=0;dashed=0;shape=mxgraph.bootstrap.topButton;rSize=5;perimeter=none;whiteSpace=wrap;resizeWidth=1;align=left;spacing=10;verticalAlign=top;fillColor=#0085FC;strokeColor=#0085FC;fontColor=#ffffff;" vertex="1" parent="UQy8q50rhMzNLok17Bqi-199">
          <mxGeometry width="260" height="100" relative="1" as="geometry" />
        </mxCell>
        <mxCell id="UQy8q50rhMzNLok17Bqi-201" value="&lt;font style=&quot;font-size: 16px&quot;&gt;Dataset Title #2&lt;/font&gt;&lt;br&gt;Guide: 185576/58d6s8dd222dgf8&lt;br&gt;Other data goes here&lt;br&gt;&lt;br&gt;&lt;br&gt;" style="strokeColor=inherit;fillColor=inherit;gradientColor=inherit;fontColor=inherit;html=1;shadow=0;dashed=0;perimeter=none;whiteSpace=wrap;resizeWidth=1;align=left;spacing=10;" vertex="1" parent="UQy8q50rhMzNLok17Bqi-199">
          <mxGeometry width="260" height="100" relative="1" as="geometry">
            <mxPoint y="100" as="offset" />
          </mxGeometry>
        </mxCell>
        <mxCell id="UQy8q50rhMzNLok17Bqi-202" value="&lt;font style=&quot;font-size: 16px&quot;&gt;Dataset Title #3&lt;/font&gt;&lt;br&gt;Guide: 123456/88d55s6c8fs6&lt;br&gt;other data goes here&lt;br&gt;&lt;br&gt;&lt;br&gt;" style="strokeColor=inherit;fillColor=inherit;gradientColor=inherit;fontColor=inherit;html=1;shadow=0;dashed=0;shape=mxgraph.bootstrap.bottomButton;rSize=5;perimeter=none;whiteSpace=wrap;resizeWidth=1;resizeHeight=0;align=left;spacing=10;" vertex="1" parent="UQy8q50rhMzNLok17Bqi-199">
          <mxGeometry y="1" width="260" height="100" relative="1" as="geometry">
            <mxPoint y="-100" as="offset" />
          </mxGeometry>
        </mxCell>
        <mxCell id="UQy8q50rhMzNLok17Bqi-203" value="Datasets" style="text;html=1;strokeColor=none;fillColor=none;align=left;verticalAlign=middle;whiteSpace=wrap;rounded=0;labelPosition=center;verticalLabelPosition=middle;fontSize=16;fontStyle=1;fontColor=#FFFFFF;" vertex="1" parent="UQy8q50rhMzNLok17Bqi-1">
          <mxGeometry x="307" y="1878" width="258" height="20" as="geometry" />
        </mxCell>
        <mxCell id="UQy8q50rhMzNLok17Bqi-204" value="" style="html=1;verticalLabelPosition=bottom;labelBackgroundColor=#ffffff;verticalAlign=top;shadow=0;dashed=0;strokeWidth=2;shape=mxgraph.ios7.misc.scroll_(vertical);fillColor=#a0a0a0;sketch=0;" vertex="1" parent="UQy8q50rhMzNLok17Bqi-1">
          <mxGeometry x="568" y="1917" width="6" height="80" as="geometry" />
        </mxCell>
        <mxCell id="UQy8q50rhMzNLok17Bqi-205" value="" style="group" connectable="0" vertex="1" parent="UQy8q50rhMzNLok17Bqi-1">
          <mxGeometry x="577" y="1869" width="530" height="500" as="geometry" />
        </mxCell>
        <mxCell id="UQy8q50rhMzNLok17Bqi-206" value="Dataset Title #1" style="shape=rect;fillColor=#ffffff;strokeColor=#eeeeee;shadow=1;fontColor=#000000;fontSize=23;fontStyle=0;verticalAlign=top;spacingBottom=0;spacingLeft=16;spacingTop=20;align=left;rounded=0;" vertex="1" parent="UQy8q50rhMzNLok17Bqi-205">
          <mxGeometry width="530" height="500" as="geometry" />
        </mxCell>
        <mxCell id="UQy8q50rhMzNLok17Bqi-207" value="Guide: 123456/1258d25s8f22f" style="text;fontSize=12;fontStyle=4;verticalAlign=middle;spacingBottom=0;spacingLeft=16;resizeWidth=1;fontColor=#0645AD;" vertex="1" parent="UQy8q50rhMzNLok17Bqi-206">
          <mxGeometry width="530" height="20" relative="1" as="geometry">
            <mxPoint y="59" as="offset" />
          </mxGeometry>
        </mxCell>
        <mxCell id="UQy8q50rhMzNLok17Bqi-208" value="Description:&#xa;&#xa;&#xa;Originating Org:&#xa;&#xa;Data Steward:&#xa;&#xa;Location:&#xa;&#xa;Format:&#xa;&#xa;Data Classification:&#xa;&#xa;RCS Value(s):&#xa;&#xa;PII:&#xa;&#xa;PII Type:&#xa;&#xa;System of Record:&#xa;&#xa;IMO Assigned:&#xa;" style="text;whiteSpace=wrap;fontSize=13;spacing=16;spacingTop=-4;resizeWidth=1;resizeHeight=1;fontStyle=1" vertex="1" parent="UQy8q50rhMzNLok17Bqi-206">
          <mxGeometry width="163.07692307692312" height="333.3333333333333" relative="1" as="geometry">
            <mxPoint x="5" y="80" as="offset" />
          </mxGeometry>
        </mxCell>
        <mxCell id="UQy8q50rhMzNLok17Bqi-209" value="Assign" style="shape=rect;strokeColor=#666666;fontColor=#333333;fontStyle=1;shadow=1;rounded=1;fillColor=#F8F9FA;" vertex="1" parent="UQy8q50rhMzNLok17Bqi-206">
          <mxGeometry y="1" width="70" height="40" relative="1" as="geometry">
            <mxPoint x="8" y="-48" as="offset" />
          </mxGeometry>
        </mxCell>
        <mxCell id="UQy8q50rhMzNLok17Bqi-210" value="Review" style="shape=rect;strokeColor=#666666;fontColor=#333333;fontStyle=1;shadow=1;sketch=0;rounded=1;fillColor=#F8F9FA;" vertex="1" parent="UQy8q50rhMzNLok17Bqi-206">
          <mxGeometry y="1" width="70" height="40" relative="1" as="geometry">
            <mxPoint x="86" y="-48" as="offset" />
          </mxGeometry>
        </mxCell>
        <mxCell id="UQy8q50rhMzNLok17Bqi-211" value="&amp;lt;Classification Here&amp;gt;" style="rounded=0;whiteSpace=wrap;html=1;shadow=0;sketch=0;fontSize=12;align=center;fillColor=#FFFF33;" vertex="1" parent="UQy8q50rhMzNLok17Bqi-206">
          <mxGeometry y="0.6296296296296298" width="530" height="18.51851851851852" as="geometry" />
        </mxCell>
        <mxCell id="UQy8q50rhMzNLok17Bqi-212" value="This dataset contains information that someone might find interesting. Who that person is and why they might care is anyone&#39;s guess." style="text;whiteSpace=wrap;fontSize=10;spacing=16;spacingTop=-4;resizeWidth=1;resizeHeight=1;" vertex="1" parent="UQy8q50rhMzNLok17Bqi-206">
          <mxGeometry x="152.8846153846154" y="74.07407407407408" width="336.3461538461539" height="55.55555555555556" as="geometry" />
        </mxCell>
        <mxCell id="UQy8q50rhMzNLok17Bqi-213" value="PPP/QQQ/RRR/ZZZ&#xa;" style="text;whiteSpace=wrap;fontSize=10;spacing=16;spacingTop=-4;resizeWidth=1;resizeHeight=1;" vertex="1" parent="UQy8q50rhMzNLok17Bqi-206">
          <mxGeometry x="152.8846153846154" y="128.63037037037037" width="336.3461538461539" height="37.03703703703704" as="geometry" />
        </mxCell>
        <mxCell id="UQy8q50rhMzNLok17Bqi-214" value="Bob Ross" style="text;whiteSpace=wrap;fontSize=10;spacing=16;spacingTop=-4;resizeWidth=1;resizeHeight=1;" vertex="1" parent="UQy8q50rhMzNLok17Bqi-206">
          <mxGeometry x="152.8846153846154" y="157.40814814814814" width="336.3461538461539" height="37.03703703703704" as="geometry" />
        </mxCell>
        <mxCell id="UQy8q50rhMzNLok17Bqi-215" value="Warehouse B" style="text;whiteSpace=wrap;fontSize=10;spacing=16;spacingTop=-4;resizeWidth=1;resizeHeight=1;" vertex="1" parent="UQy8q50rhMzNLok17Bqi-206">
          <mxGeometry x="152.8846153846154" y="189.99592592592592" width="336.3461538461539" height="37.03703703703704" as="geometry" />
        </mxCell>
        <mxCell id="UQy8q50rhMzNLok17Bqi-216" value="Paper, CD, DVD" style="text;whiteSpace=wrap;fontSize=10;spacing=16;spacingTop=-4;resizeWidth=1;resizeHeight=1;" vertex="1" parent="UQy8q50rhMzNLok17Bqi-206">
          <mxGeometry x="152.8846153846154" y="220.0037037037037" width="336.3461538461539" height="37.03703703703704" as="geometry" />
        </mxCell>
        <mxCell id="UQy8q50rhMzNLok17Bqi-217" value="Spooky" style="text;whiteSpace=wrap;fontSize=10;spacing=16;spacingTop=-4;resizeWidth=1;resizeHeight=1;" vertex="1" parent="UQy8q50rhMzNLok17Bqi-206">
          <mxGeometry x="152.8846153846154" y="250.0014814814815" width="336.3461538461539" height="37.03703703703704" as="geometry" />
        </mxCell>
        <mxCell id="UQy8q50rhMzNLok17Bqi-218" value="RCS 10-38 1a" style="text;whiteSpace=wrap;fontSize=10;spacing=16;spacingTop=-4;resizeWidth=1;resizeHeight=1;fontColor=#0645AD;fontStyle=4" vertex="1" parent="UQy8q50rhMzNLok17Bqi-206">
          <mxGeometry x="152.8846153846154" y="279.99925925925925" width="336.3461538461539" height="37.03703703703704" as="geometry" />
        </mxCell>
        <mxCell id="UQy8q50rhMzNLok17Bqi-219" value="Yes" style="text;whiteSpace=wrap;fontSize=10;spacing=16;spacingTop=-4;resizeWidth=1;resizeHeight=1;" vertex="1" parent="UQy8q50rhMzNLok17Bqi-206">
          <mxGeometry x="152.8846153846154" y="309.99703703703705" width="336.3461538461539" height="37.03703703703704" as="geometry" />
        </mxCell>
        <mxCell id="UQy8q50rhMzNLok17Bqi-220" value="US Persons" style="text;whiteSpace=wrap;fontSize=10;spacing=16;spacingTop=-4;resizeWidth=1;resizeHeight=1;" vertex="1" parent="UQy8q50rhMzNLok17Bqi-206">
          <mxGeometry x="152.8846153846154" y="340.00481481481484" width="336.3461538461539" height="37.03703703703704" as="geometry" />
        </mxCell>
        <mxCell id="UQy8q50rhMzNLok17Bqi-221" value="Rocky" style="text;whiteSpace=wrap;fontSize=10;spacing=16;spacingTop=-4;resizeWidth=1;resizeHeight=1;" vertex="1" parent="UQy8q50rhMzNLok17Bqi-206">
          <mxGeometry x="152.8846153846154" y="370.00259259259263" width="336.3461538461539" height="37.03703703703704" as="geometry" />
        </mxCell>
        <mxCell id="UQy8q50rhMzNLok17Bqi-222" value="Cindy-Luo Who" style="text;whiteSpace=wrap;fontSize=10;spacing=16;spacingTop=-4;resizeWidth=1;resizeHeight=1;" vertex="1" parent="UQy8q50rhMzNLok17Bqi-206">
          <mxGeometry x="152.8846153846154" y="400.0025925925927" width="336.3461538461539" height="37.03703703703704" as="geometry" />
        </mxCell>
        <mxCell id="UQy8q50rhMzNLok17Bqi-223" value="" style="shape=ellipse;dashed=0;strokeColor=none;shadow=1;fontSize=13;align=center;verticalAlign=top;labelPosition=center;verticalLabelPosition=bottom;html=1;aspect=fixed;fillColor=#F8F9FA;" vertex="1" parent="UQy8q50rhMzNLok17Bqi-205">
          <mxGeometry x="408.97637795275597" y="30" width="23.95275590551181" height="23.95275590551181" as="geometry" />
        </mxCell>
        <mxCell id="UQy8q50rhMzNLok17Bqi-224" value="" style="dashed=0;html=1;shape=mxgraph.gmdl.edit;strokeColor=none;fillColor=#737373;shadow=0;" vertex="1" parent="UQy8q50rhMzNLok17Bqi-223">
          <mxGeometry x="7.699100112485939" y="7.699100112485939" width="8.554555680539933" height="8.554555680539933" as="geometry" />
        </mxCell>
        <mxCell id="UQy8q50rhMzNLok17Bqi-225" value="" style="shape=ellipse;dashed=0;strokeColor=none;shadow=1;fontSize=13;align=center;verticalAlign=top;labelPosition=center;verticalLabelPosition=bottom;html=1;aspect=fixed;fillColor=#F8F9FA;" vertex="1" parent="UQy8q50rhMzNLok17Bqi-205">
          <mxGeometry x="498.2834645669294" y="30" width="23.95275590551181" height="23.95275590551181" as="geometry" />
        </mxCell>
        <mxCell id="UQy8q50rhMzNLok17Bqi-226" value="" style="dashed=0;html=1;shape=mxgraph.gmdl.x;strokeColor=#737373;strokeWidth=2;shadow=0;" vertex="1" parent="UQy8q50rhMzNLok17Bqi-225">
          <mxGeometry x="8.554555680539933" y="8.554555680539933" width="6.843644544431946" height="6.843644544431946" as="geometry" />
        </mxCell>
        <mxCell id="UQy8q50rhMzNLok17Bqi-227" value="" style="shape=ellipse;dashed=0;strokeColor=none;shadow=1;fontSize=13;align=center;verticalAlign=top;labelPosition=center;verticalLabelPosition=bottom;html=1;aspect=fixed;rounded=1;sketch=0;fillColor=#F8F9FA;" vertex="1" parent="UQy8q50rhMzNLok17Bqi-205">
          <mxGeometry x="439.85826771653564" y="30" width="23.95275590551181" height="23.95275590551181" as="geometry" />
        </mxCell>
        <mxCell id="UQy8q50rhMzNLok17Bqi-228" value="" style="dashed=0;html=1;shape=mxgraph.gmdl.star;strokeColor=none;fillColor=#737373;shadow=0;" vertex="1" parent="UQy8q50rhMzNLok17Bqi-227">
          <mxGeometry x="7.699100112485939" y="7.699100112485939" width="8.554555680539933" height="8.554555680539933" as="geometry" />
        </mxCell>
        <mxCell id="UQy8q50rhMzNLok17Bqi-229" value="" style="shape=ellipse;dashed=0;strokeColor=none;shadow=1;fontSize=13;align=center;verticalAlign=top;labelPosition=center;verticalLabelPosition=bottom;html=1;aspect=fixed;rounded=1;sketch=0;fillColor=#F8F9FA;" vertex="1" parent="UQy8q50rhMzNLok17Bqi-205">
          <mxGeometry x="469.0708661417325" y="30" width="23.95275590551181" height="23.95275590551181" as="geometry" />
        </mxCell>
        <mxCell id="UQy8q50rhMzNLok17Bqi-230" value="" style="dashed=0;html=1;shape=mxgraph.gmdl.cloud;strokeColor=none;fillColor=#737373;shadow=0;" vertex="1" parent="UQy8q50rhMzNLok17Bqi-229">
          <mxGeometry x="6.843644544431946" y="8.554555680539933" width="10.265466816647919" height="6.843644544431946" as="geometry" />
        </mxCell>
        <mxCell id="UQy8q50rhMzNLok17Bqi-231" value="Fav:" style="text;html=1;strokeColor=none;fillColor=none;align=center;verticalAlign=middle;whiteSpace=wrap;rounded=0;shadow=0;sketch=0;fontSize=10;fontColor=#FFFFFF;" vertex="1" parent="UQy8q50rhMzNLok17Bqi-1">
          <mxGeometry x="506" y="1878" width="40" height="20" as="geometry" />
        </mxCell>
        <mxCell id="UQy8q50rhMzNLok17Bqi-232" value="" style="shape=image;html=1;verticalAlign=top;verticalLabelPosition=bottom;labelBackgroundColor=#ffffff;imageAspect=0;aspect=fixed;image=https://cdn2.iconfinder.com/data/icons/font-awesome/1792/sort-alpha-asc-128.png;rounded=1;shadow=1;sketch=0;strokeColor=#000000;fillColor=#4285F4;fontSize=11;align=left;fontColor=#97D077;" vertex="1" parent="UQy8q50rhMzNLok17Bqi-1">
          <mxGeometry x="489" y="1881" width="15" height="15" as="geometry" />
        </mxCell>
        <mxCell id="UQy8q50rhMzNLok17Bqi-233" value="" style="fillColor=#36B37E;strokeColor=none;rounded=1;arcSize=50;shadow=1;sketch=0;fontSize=11;fontColor=#FFFFFF;align=left;" vertex="1" parent="UQy8q50rhMzNLok17Bqi-1">
          <mxGeometry x="540" y="1881" width="30" height="16" as="geometry" />
        </mxCell>
        <mxCell id="UQy8q50rhMzNLok17Bqi-234" value="PII Type" style="rounded=1;fillColor=#F1F2F4;strokeColor=none;html=1;fontColor=#596780;align=left;fontSize=12;spacingLeft=10;shadow=0;sketch=0;" vertex="1" parent="UQy8q50rhMzNLok17Bqi-1">
          <mxGeometry x="60" y="1960" width="230" height="30" as="geometry" />
        </mxCell>
        <mxCell id="UQy8q50rhMzNLok17Bqi-235" value="" style="shape=triangle;direction=south;fillColor=#596780;strokeColor=none;html=1" vertex="1" parent="UQy8q50rhMzNLok17Bqi-234">
          <mxGeometry x="1" y="0.5" width="12" height="6" relative="1" as="geometry">
            <mxPoint x="-20" y="-3" as="offset" />
          </mxGeometry>
        </mxCell>
        <mxCell id="UQy8q50rhMzNLok17Bqi-236" value="Select RCS" style="rounded=1;fillColor=#F1F2F4;strokeColor=none;html=1;fontColor=#596780;align=left;fontSize=12;spacingLeft=10;shadow=0;sketch=0;" vertex="1" parent="UQy8q50rhMzNLok17Bqi-1">
          <mxGeometry x="60" y="1910" width="230" height="30" as="geometry" />
        </mxCell>
        <mxCell id="UQy8q50rhMzNLok17Bqi-237" value="" style="shape=triangle;direction=south;fillColor=#596780;strokeColor=none;html=1" vertex="1" parent="UQy8q50rhMzNLok17Bqi-236">
          <mxGeometry x="1" y="0.5" width="12" height="6" relative="1" as="geometry">
            <mxPoint x="-20" y="-3" as="offset" />
          </mxGeometry>
        </mxCell>
        <mxCell id="UQy8q50rhMzNLok17Bqi-238" value="Record Type" style="rounded=1;fillColor=#F1F2F4;strokeColor=none;html=1;fontColor=#596780;align=left;fontSize=12;spacingLeft=10;shadow=0;sketch=0;" vertex="1" parent="UQy8q50rhMzNLok17Bqi-1">
          <mxGeometry x="60" y="2010" width="230" height="30" as="geometry" />
        </mxCell>
        <mxCell id="UQy8q50rhMzNLok17Bqi-239" value="" style="shape=triangle;direction=south;fillColor=#596780;strokeColor=none;html=1" vertex="1" parent="UQy8q50rhMzNLok17Bqi-238">
          <mxGeometry x="1" y="0.5" width="12" height="6" relative="1" as="geometry">
            <mxPoint x="-20" y="-3" as="offset" />
          </mxGeometry>
        </mxCell>
        <mxCell id="UQy8q50rhMzNLok17Bqi-240" value="Select Format&amp;nbsp;" style="rounded=1;fillColor=#F1F2F4;strokeColor=none;html=1;fontColor=#596780;align=left;fontSize=12;spacingLeft=10;shadow=0;sketch=0;" vertex="1" parent="UQy8q50rhMzNLok17Bqi-1">
          <mxGeometry x="60" y="2059" width="230" height="30" as="geometry" />
        </mxCell>
        <mxCell id="UQy8q50rhMzNLok17Bqi-241" value="" style="shape=triangle;direction=south;fillColor=#596780;strokeColor=none;html=1" vertex="1" parent="UQy8q50rhMzNLok17Bqi-240">
          <mxGeometry x="1" y="0.5" width="12" height="6" relative="1" as="geometry">
            <mxPoint x="-20" y="-3" as="offset" />
          </mxGeometry>
        </mxCell>
        <mxCell id="UQy8q50rhMzNLok17Bqi-242" value="Location" style="rounded=1;fillColor=#F1F2F4;strokeColor=none;html=1;fontColor=#596780;align=left;fontSize=12;spacingLeft=10;shadow=0;sketch=0;" vertex="1" parent="UQy8q50rhMzNLok17Bqi-1">
          <mxGeometry x="60" y="2104" width="230" height="30" as="geometry" />
        </mxCell>
        <mxCell id="UQy8q50rhMzNLok17Bqi-243" value="" style="shape=triangle;direction=south;fillColor=#596780;strokeColor=none;html=1" vertex="1" parent="UQy8q50rhMzNLok17Bqi-242">
          <mxGeometry x="1" y="0.5" width="12" height="6" relative="1" as="geometry">
            <mxPoint x="-20" y="-3" as="offset" />
          </mxGeometry>
        </mxCell>
        <mxCell id="UQy8q50rhMzNLok17Bqi-244" value="&lt;font color=&quot;#000000&quot; style=&quot;font-size: 11px&quot;&gt;Originating Organization&lt;br&gt;&lt;/font&gt;" style="text;html=1;strokeColor=none;fillColor=none;align=left;verticalAlign=middle;whiteSpace=wrap;rounded=0;shadow=0;sketch=0;fontSize=11;fontColor=#0645AD;" vertex="1" parent="UQy8q50rhMzNLok17Bqi-1">
          <mxGeometry x="47.5" y="2160" width="179" height="20" as="geometry" />
        </mxCell>
        <mxCell id="UQy8q50rhMzNLok17Bqi-245" value="Level 4" style="rounded=1;fillColor=#F1F2F4;strokeColor=none;html=1;fontColor=#596780;align=left;fontSize=12;spacingLeft=10;shadow=0;sketch=0;" vertex="1" parent="UQy8q50rhMzNLok17Bqi-1">
          <mxGeometry x="60.0000000000001" y="2297" width="80" height="30" as="geometry" />
        </mxCell>
        <mxCell id="UQy8q50rhMzNLok17Bqi-246" value="" style="shape=triangle;direction=south;fillColor=#596780;strokeColor=none;html=1" vertex="1" parent="UQy8q50rhMzNLok17Bqi-245">
          <mxGeometry x="1" y="0.5" width="12" height="6" relative="1" as="geometry">
            <mxPoint x="-20" y="-3" as="offset" />
          </mxGeometry>
        </mxCell>
        <mxCell id="UQy8q50rhMzNLok17Bqi-247" value="Level 5" style="rounded=1;fillColor=#F1F2F4;strokeColor=none;html=1;fontColor=#596780;align=left;fontSize=12;spacingLeft=10;shadow=0;sketch=0;" vertex="1" parent="UQy8q50rhMzNLok17Bqi-1">
          <mxGeometry x="60.00000000000004" y="2339" width="80" height="30" as="geometry" />
        </mxCell>
        <mxCell id="UQy8q50rhMzNLok17Bqi-248" value="" style="shape=triangle;direction=south;fillColor=#596780;strokeColor=none;html=1" vertex="1" parent="UQy8q50rhMzNLok17Bqi-247">
          <mxGeometry x="1" y="0.5" width="12" height="6" relative="1" as="geometry">
            <mxPoint x="-20" y="-3" as="offset" />
          </mxGeometry>
        </mxCell>
        <mxCell id="UQy8q50rhMzNLok17Bqi-249" value="Level 1" style="rounded=1;fillColor=#F1F2F4;strokeColor=none;html=1;fontColor=#596780;align=left;fontSize=12;spacingLeft=10;shadow=0;sketch=0;" vertex="1" parent="UQy8q50rhMzNLok17Bqi-1">
          <mxGeometry x="60.000000000000114" y="2183.5" width="80" height="30" as="geometry" />
        </mxCell>
        <mxCell id="UQy8q50rhMzNLok17Bqi-250" value="" style="shape=triangle;direction=south;fillColor=#596780;strokeColor=none;html=1" vertex="1" parent="UQy8q50rhMzNLok17Bqi-249">
          <mxGeometry x="1" y="0.5" width="12" height="6" relative="1" as="geometry">
            <mxPoint x="-20" y="-3" as="offset" />
          </mxGeometry>
        </mxCell>
        <mxCell id="UQy8q50rhMzNLok17Bqi-251" value="Level 2" style="rounded=1;fillColor=#F1F2F4;strokeColor=none;html=1;fontColor=#596780;align=left;fontSize=12;spacingLeft=10;shadow=0;sketch=0;" vertex="1" parent="UQy8q50rhMzNLok17Bqi-1">
          <mxGeometry x="60.000000000000114" y="2219" width="80" height="30" as="geometry" />
        </mxCell>
        <mxCell id="UQy8q50rhMzNLok17Bqi-252" value="" style="shape=triangle;direction=south;fillColor=#596780;strokeColor=none;html=1" vertex="1" parent="UQy8q50rhMzNLok17Bqi-251">
          <mxGeometry x="1" y="0.5" width="12" height="6" relative="1" as="geometry">
            <mxPoint x="-20" y="-3" as="offset" />
          </mxGeometry>
        </mxCell>
        <mxCell id="UQy8q50rhMzNLok17Bqi-253" value="Filter" style="html=1;shadow=0;dashed=0;shape=mxgraph.bootstrap.rrect;rSize=5;fillColor=#0085FC;strokeColor=none;fontColor=#FFFFFF;fontSize=14;" vertex="1" parent="UQy8q50rhMzNLok17Bqi-1">
          <mxGeometry x="130.5" y="2490" width="91" height="40" as="geometry" />
        </mxCell>
        <mxCell id="UQy8q50rhMzNLok17Bqi-254" value="Cancel" style="html=1;shadow=0;dashed=0;shape=mxgraph.bootstrap.rrect;rSize=5;fillColor=#6C757D;strokeColor=none;fontColor=#FFFFFF;fontSize=14;" vertex="1" parent="UQy8q50rhMzNLok17Bqi-1">
          <mxGeometry x="226" y="2490" width="70" height="40" as="geometry" />
        </mxCell>
        <mxCell id="UQy8q50rhMzNLok17Bqi-255" value="&lt;font color=&quot;#666666&quot; style=&quot;font-size: 16px;&quot;&gt;Filter&lt;/font&gt;" style="text;strokeColor=none;fillColor=none;html=1;fontSize=16;fontStyle=1;verticalAlign=middle;align=center;labelBackgroundColor=none;sketch=0;" vertex="1" parent="UQy8q50rhMzNLok17Bqi-1">
          <mxGeometry x="40" y="1867" width="77" height="32" as="geometry" />
        </mxCell>
        <mxCell id="UQy8q50rhMzNLok17Bqi-256" value="left filter can be collapsed when not in used.&lt;br&gt;Might be good to keep this 3 panel set up throughout Eva to keep the layout consistent throughout&lt;br&gt;&lt;br&gt;Options&lt;br&gt;&lt;ul&gt;&lt;li&gt;categorized to filter sections to be collapsible&lt;/li&gt;&lt;li&gt;multi select for filter options&lt;/li&gt;&lt;/ul&gt;" style="text;html=1;strokeColor=none;fillColor=none;align=center;verticalAlign=middle;whiteSpace=wrap;rounded=0;labelBackgroundColor=none;sketch=0;fontSize=16;" vertex="1" parent="UQy8q50rhMzNLok17Bqi-1">
          <mxGeometry x="47" y="2570" width="340" height="192" as="geometry" />
        </mxCell>
        <mxCell id="UQy8q50rhMzNLok17Bqi-257" value="Level 3" style="rounded=1;fillColor=#F1F2F4;strokeColor=none;html=1;fontColor=#596780;align=left;fontSize=12;spacingLeft=10;shadow=0;sketch=0;" vertex="1" parent="UQy8q50rhMzNLok17Bqi-1">
          <mxGeometry x="60.000000000000114" y="2258" width="80" height="30" as="geometry" />
        </mxCell>
        <mxCell id="UQy8q50rhMzNLok17Bqi-258" value="" style="shape=triangle;direction=south;fillColor=#596780;strokeColor=none;html=1" vertex="1" parent="UQy8q50rhMzNLok17Bqi-257">
          <mxGeometry x="1" y="0.5" width="12" height="6" relative="1" as="geometry">
            <mxPoint x="-20" y="-3" as="offset" />
          </mxGeometry>
        </mxCell>
        <mxCell id="UQy8q50rhMzNLok17Bqi-259" value="" style="line;strokeWidth=1;fillColor=none;align=left;verticalAlign=middle;spacingTop=-1;spacingLeft=3;spacingRight=3;rotatable=0;labelPosition=right;points=[];portConstraint=eastwest;strokeColor=#E6E6E6;" vertex="1" parent="UQy8q50rhMzNLok17Bqi-1">
          <mxGeometry x="41" y="2478" width="259" height="8" as="geometry" />
        </mxCell>
      </root>
    </mxGraphModel>
  </diagram>
  <diagram id="Fyvmv_OZFv4r6V8GVXGr" name="Dataset Create">
    <mxGraphModel dx="1454" dy="1101" grid="1" gridSize="10" guides="1" tooltips="1" connect="1" arrows="1" fold="1" page="1" pageScale="1" pageWidth="1100" pageHeight="850" math="0" shadow="0">
      <root>
        <mxCell id="oVsmTPzflaDgjarKPhA9-0" />
        <mxCell id="oVsmTPzflaDgjarKPhA9-1" parent="oVsmTPzflaDgjarKPhA9-0" />
        <mxCell id="oVsmTPzflaDgjarKPhA9-2" value="" style="shape=rect;fillColor=#ffffff;rounded=1;shadow=1;sketch=0;fontSize=8;fontColor=#000000;align=left;arcSize=1;" vertex="1" parent="oVsmTPzflaDgjarKPhA9-1">
          <mxGeometry x="60" y="110" width="704" height="690" as="geometry" />
        </mxCell>
        <mxCell id="oVsmTPzflaDgjarKPhA9-3" value="1" style="shape=ellipse;strokeColor=none;fillColor=#4285F4;fontColor=#ffffff;" vertex="1" parent="oVsmTPzflaDgjarKPhA9-2">
          <mxGeometry width="24" height="24" relative="1" as="geometry">
            <mxPoint x="24" y="24" as="offset" />
          </mxGeometry>
        </mxCell>
        <mxCell id="oVsmTPzflaDgjarKPhA9-4" value="Dataset Details" style="shape=rect;strokeColor=none;fillColor=none;align=left;fontStyle=1;" vertex="1" parent="oVsmTPzflaDgjarKPhA9-2">
          <mxGeometry width="200" height="24" relative="1" as="geometry">
            <mxPoint x="60" y="24" as="offset" />
          </mxGeometry>
        </mxCell>
        <mxCell id="oVsmTPzflaDgjarKPhA9-5" value="Next" style="shape=rect;strokeColor=none;fillColor=#4285f4;fontColor=#ffffff;rounded=1;" vertex="1" parent="oVsmTPzflaDgjarKPhA9-2">
          <mxGeometry width="102" height="36" relative="1" as="geometry">
            <mxPoint x="150" y="264" as="offset" />
          </mxGeometry>
        </mxCell>
        <mxCell id="oVsmTPzflaDgjarKPhA9-6" value="2" style="shape=ellipse;strokeColor=none;fillColor=#9e9e9e;fontColor=#ffffff;" vertex="1" parent="oVsmTPzflaDgjarKPhA9-2">
          <mxGeometry width="24" height="24" relative="1" as="geometry">
            <mxPoint x="24" y="310" as="offset" />
          </mxGeometry>
        </mxCell>
        <mxCell id="oVsmTPzflaDgjarKPhA9-7" value="Dataset Classification Details" style="shape=rect;strokeColor=none;fillColor=none;align=left;fontColor=#aaaaaa;" vertex="1" parent="oVsmTPzflaDgjarKPhA9-2">
          <mxGeometry width="200" height="24" relative="1" as="geometry">
            <mxPoint x="60" y="310" as="offset" />
          </mxGeometry>
        </mxCell>
        <mxCell id="oVsmTPzflaDgjarKPhA9-8" value="3" style="shape=ellipse;strokeColor=none;fillColor=#9e9e9e;fontColor=#ffffff;" vertex="1" parent="oVsmTPzflaDgjarKPhA9-2">
          <mxGeometry width="24" height="24" relative="1" as="geometry">
            <mxPoint x="24" y="376" as="offset" />
          </mxGeometry>
        </mxCell>
        <mxCell id="oVsmTPzflaDgjarKPhA9-9" value="Dataset Location" style="shape=rect;strokeColor=none;fillColor=none;align=left;fontColor=#aaaaaa;" vertex="1" parent="oVsmTPzflaDgjarKPhA9-2">
          <mxGeometry width="200" height="24" relative="1" as="geometry">
            <mxPoint x="60" y="376" as="offset" />
          </mxGeometry>
        </mxCell>
        <mxCell id="oVsmTPzflaDgjarKPhA9-10" value="" style="shape=line;direction=north;strokeColor=#b3b3b3;" vertex="1" parent="oVsmTPzflaDgjarKPhA9-2">
          <mxGeometry width="10" height="25" relative="1" as="geometry">
            <mxPoint x="31" y="344" as="offset" />
          </mxGeometry>
        </mxCell>
        <mxCell id="oVsmTPzflaDgjarKPhA9-11" value="Title" style="html=1;shadow=0;dashed=0;shape=mxgraph.bootstrap.rrect;rSize=5;strokeColor=#CED4DA;html=1;whiteSpace=wrap;fillColor=#FFFFFF;fontColor=#7D868C;align=left;spacing=2;spacingLeft=10;fontSize=12;" vertex="1" parent="oVsmTPzflaDgjarKPhA9-2">
          <mxGeometry x="60" y="100" width="610" height="30" as="geometry" />
        </mxCell>
        <mxCell id="oVsmTPzflaDgjarKPhA9-12" value="&lt;font style=&quot;font-size: 12px&quot;&gt;Description&lt;/font&gt;" style="html=1;shadow=0;dashed=0;shape=mxgraph.bootstrap.rrect;rSize=5;strokeColor=#CED4DA;html=1;whiteSpace=wrap;fillColor=#FFFFFF;fontColor=#7D868C;align=left;spacing=2;spacingLeft=10;fontSize=14;verticalAlign=top;" vertex="1" parent="oVsmTPzflaDgjarKPhA9-2">
          <mxGeometry x="60" y="140" width="610" height="50" as="geometry" />
        </mxCell>
        <mxCell id="oVsmTPzflaDgjarKPhA9-13" value="Cancel" style="html=1;shadow=0;dashed=0;shape=mxgraph.bootstrap.rrect;rSize=5;fillColor=#6C757D;strokeColor=none;fontColor=#FFFFFF;fontSize=14;" vertex="1" parent="oVsmTPzflaDgjarKPhA9-2">
          <mxGeometry x="500.33402733964255" y="632" width="70" height="36" as="geometry" />
        </mxCell>
        <mxCell id="oVsmTPzflaDgjarKPhA9-14" value="Classification" style="rounded=1;fillColor=#F1F2F4;strokeColor=none;html=1;fontColor=#596780;align=left;fontSize=12;spacingLeft=10;shadow=0;sketch=0;" vertex="1" parent="oVsmTPzflaDgjarKPhA9-2">
          <mxGeometry x="60" y="60" width="610" height="30" as="geometry" />
        </mxCell>
        <mxCell id="oVsmTPzflaDgjarKPhA9-15" value="" style="shape=triangle;direction=south;fillColor=#596780;strokeColor=none;html=1" vertex="1" parent="oVsmTPzflaDgjarKPhA9-14">
          <mxGeometry x="1" y="0.5" width="12" height="6" relative="1" as="geometry">
            <mxPoint x="-20" y="-3" as="offset" />
          </mxGeometry>
        </mxCell>
        <mxCell id="oVsmTPzflaDgjarKPhA9-16" value="&lt;font color=&quot;#000000&quot; style=&quot;font-size: 11px;&quot;&gt;Originating Org:&lt;/font&gt;" style="text;html=1;strokeColor=none;fillColor=none;align=left;verticalAlign=middle;whiteSpace=wrap;rounded=0;shadow=0;sketch=0;fontSize=11;fontColor=#0645AD;" vertex="1" parent="oVsmTPzflaDgjarKPhA9-2">
          <mxGeometry x="59.99999999999996" y="199" width="80.33" height="20" as="geometry" />
        </mxCell>
        <mxCell id="oVsmTPzflaDgjarKPhA9-17" value="Level 4" style="rounded=1;fillColor=#F1F2F4;strokeColor=none;html=1;fontColor=#596780;align=left;fontSize=12;spacingLeft=10;shadow=0;sketch=0;" vertex="1" parent="oVsmTPzflaDgjarKPhA9-2">
          <mxGeometry x="330" y="224" width="80" height="30" as="geometry" />
        </mxCell>
        <mxCell id="oVsmTPzflaDgjarKPhA9-18" value="" style="shape=triangle;direction=south;fillColor=#596780;strokeColor=none;html=1" vertex="1" parent="oVsmTPzflaDgjarKPhA9-17">
          <mxGeometry x="1" y="0.5" width="12" height="6" relative="1" as="geometry">
            <mxPoint x="-20" y="-3" as="offset" />
          </mxGeometry>
        </mxCell>
        <mxCell id="oVsmTPzflaDgjarKPhA9-19" value="&lt;font color=&quot;#000000&quot;&gt;PPP/QQQ/RRR/ZZZ/AAA&lt;/font&gt;" style="text;html=1;strokeColor=none;fillColor=none;align=left;verticalAlign=middle;whiteSpace=wrap;rounded=0;shadow=0;sketch=0;fontSize=10;fontColor=#0645AD;" vertex="1" parent="oVsmTPzflaDgjarKPhA9-2">
          <mxGeometry x="149.99999999999997" y="199" width="80.33" height="20" as="geometry" />
        </mxCell>
        <mxCell id="oVsmTPzflaDgjarKPhA9-20" value="Level 5" style="rounded=1;fillColor=#F1F2F4;strokeColor=none;html=1;fontColor=#596780;align=left;fontSize=12;spacingLeft=10;shadow=0;sketch=0;" vertex="1" parent="oVsmTPzflaDgjarKPhA9-2">
          <mxGeometry x="420.33" y="224" width="80" height="30" as="geometry" />
        </mxCell>
        <mxCell id="oVsmTPzflaDgjarKPhA9-21" value="" style="shape=triangle;direction=south;fillColor=#596780;strokeColor=none;html=1" vertex="1" parent="oVsmTPzflaDgjarKPhA9-20">
          <mxGeometry x="1" y="0.5" width="12" height="6" relative="1" as="geometry">
            <mxPoint x="-20" y="-3" as="offset" />
          </mxGeometry>
        </mxCell>
        <mxCell id="oVsmTPzflaDgjarKPhA9-22" value="Level 1" style="rounded=1;fillColor=#F1F2F4;strokeColor=none;html=1;fontColor=#596780;align=left;fontSize=12;spacingLeft=10;shadow=0;sketch=0;" vertex="1" parent="oVsmTPzflaDgjarKPhA9-2">
          <mxGeometry x="60.000000000000014" y="224" width="80" height="30" as="geometry" />
        </mxCell>
        <mxCell id="oVsmTPzflaDgjarKPhA9-23" value="" style="shape=triangle;direction=south;fillColor=#596780;strokeColor=none;html=1" vertex="1" parent="oVsmTPzflaDgjarKPhA9-22">
          <mxGeometry x="1" y="0.5" width="12" height="6" relative="1" as="geometry">
            <mxPoint x="-20" y="-3" as="offset" />
          </mxGeometry>
        </mxCell>
        <mxCell id="oVsmTPzflaDgjarKPhA9-24" value="Level 2" style="rounded=1;fillColor=#F1F2F4;strokeColor=none;html=1;fontColor=#596780;align=left;fontSize=12;spacingLeft=10;shadow=0;sketch=0;" vertex="1" parent="oVsmTPzflaDgjarKPhA9-2">
          <mxGeometry x="150" y="224" width="80" height="30" as="geometry" />
        </mxCell>
        <mxCell id="oVsmTPzflaDgjarKPhA9-25" value="" style="shape=triangle;direction=south;fillColor=#596780;strokeColor=none;html=1" vertex="1" parent="oVsmTPzflaDgjarKPhA9-24">
          <mxGeometry x="1" y="0.5" width="12" height="6" relative="1" as="geometry">
            <mxPoint x="-20" y="-3" as="offset" />
          </mxGeometry>
        </mxCell>
        <mxCell id="oVsmTPzflaDgjarKPhA9-26" value="Level 3" style="rounded=1;fillColor=#F1F2F4;strokeColor=none;html=1;fontColor=#596780;align=left;fontSize=12;spacingLeft=10;shadow=0;sketch=0;" vertex="1" parent="oVsmTPzflaDgjarKPhA9-2">
          <mxGeometry x="240" y="224" width="80" height="30" as="geometry" />
        </mxCell>
        <mxCell id="oVsmTPzflaDgjarKPhA9-27" value="" style="shape=triangle;direction=south;fillColor=#596780;strokeColor=none;html=1" vertex="1" parent="oVsmTPzflaDgjarKPhA9-26">
          <mxGeometry x="1" y="0.5" width="12" height="6" relative="1" as="geometry">
            <mxPoint x="-20" y="-3" as="offset" />
          </mxGeometry>
        </mxCell>
        <mxCell id="oVsmTPzflaDgjarKPhA9-28" value="4" style="shape=ellipse;strokeColor=none;fillColor=#9e9e9e;fontColor=#ffffff;" vertex="1" parent="oVsmTPzflaDgjarKPhA9-2">
          <mxGeometry x="24" y="452" width="24" height="24" as="geometry" />
        </mxCell>
        <mxCell id="oVsmTPzflaDgjarKPhA9-29" value="" style="shape=line;direction=north;strokeColor=#b3b3b3;" vertex="1" parent="oVsmTPzflaDgjarKPhA9-2">
          <mxGeometry x="31" y="414" width="10" height="25" as="geometry" />
        </mxCell>
        <mxCell id="oVsmTPzflaDgjarKPhA9-30" value="5" style="shape=ellipse;strokeColor=none;fillColor=#9e9e9e;fontColor=#ffffff;" vertex="1" parent="oVsmTPzflaDgjarKPhA9-2">
          <mxGeometry x="24" y="522" width="24" height="24" as="geometry" />
        </mxCell>
        <mxCell id="oVsmTPzflaDgjarKPhA9-31" value="" style="shape=line;direction=north;strokeColor=#b3b3b3;" vertex="1" parent="oVsmTPzflaDgjarKPhA9-2">
          <mxGeometry x="31" y="484" width="10" height="25" as="geometry" />
        </mxCell>
        <mxCell id="oVsmTPzflaDgjarKPhA9-32" value="6" style="shape=ellipse;strokeColor=none;fillColor=#9e9e9e;fontColor=#ffffff;" vertex="1" parent="oVsmTPzflaDgjarKPhA9-2">
          <mxGeometry x="24" y="592" width="24" height="24" as="geometry" />
        </mxCell>
        <mxCell id="oVsmTPzflaDgjarKPhA9-33" value="" style="shape=line;direction=north;strokeColor=#b3b3b3;" vertex="1" parent="oVsmTPzflaDgjarKPhA9-2">
          <mxGeometry x="31" y="554" width="10" height="25" as="geometry" />
        </mxCell>
        <mxCell id="oVsmTPzflaDgjarKPhA9-34" value="PII" style="shape=rect;strokeColor=none;fillColor=none;align=left;fontColor=#aaaaaa;" vertex="1" parent="oVsmTPzflaDgjarKPhA9-2">
          <mxGeometry x="60" y="452" width="200" height="24" as="geometry" />
        </mxCell>
        <mxCell id="oVsmTPzflaDgjarKPhA9-35" value="Record Schedule" style="shape=rect;strokeColor=none;fillColor=none;align=left;fontColor=#aaaaaa;" vertex="1" parent="oVsmTPzflaDgjarKPhA9-2">
          <mxGeometry x="60" y="522" width="200" height="24" as="geometry" />
        </mxCell>
        <mxCell id="oVsmTPzflaDgjarKPhA9-36" value="Notes" style="shape=rect;strokeColor=none;fillColor=none;align=left;fontColor=#aaaaaa;" vertex="1" parent="oVsmTPzflaDgjarKPhA9-2">
          <mxGeometry x="60" y="592" width="200" height="24" as="geometry" />
        </mxCell>
        <mxCell id="oVsmTPzflaDgjarKPhA9-37" value="Save" style="shape=rect;strokeColor=none;rounded=1;fontColor=#FFFFFF;fillColor=#9E9E9E;" vertex="1" parent="oVsmTPzflaDgjarKPhA9-2">
          <mxGeometry x="580" y="632" width="102" height="36" as="geometry" />
        </mxCell>
        <mxCell id="oVsmTPzflaDgjarKPhA9-38" value="" style="shape=line;direction=north;strokeColor=#b3b3b3;" vertex="1" parent="oVsmTPzflaDgjarKPhA9-2">
          <mxGeometry x="31" y="50" width="10" height="250" as="geometry" />
        </mxCell>
        <mxCell id="oVsmTPzflaDgjarKPhA9-39" value="" style="shape=line;direction=north;strokeColor=#b3b3b3;" vertex="1" parent="oVsmTPzflaDgjarKPhA9-2">
          <mxGeometry x="31" y="621" width="10" height="25" as="geometry" />
        </mxCell>
        <mxCell id="oVsmTPzflaDgjarKPhA9-40" value="S" style="shape=ellipse;strokeColor=none;fillColor=#9e9e9e;fontColor=#ffffff;" vertex="1" parent="oVsmTPzflaDgjarKPhA9-2">
          <mxGeometry x="24" y="655" width="24" height="24" as="geometry" />
        </mxCell>
        <mxCell id="oVsmTPzflaDgjarKPhA9-41" value="" style="shape=rect;fillColor=#ffffff;rounded=1;shadow=1;sketch=0;fontSize=8;fontColor=#000000;align=left;arcSize=1;" vertex="1" parent="oVsmTPzflaDgjarKPhA9-1">
          <mxGeometry x="60" y="960" width="704" height="690" as="geometry" />
        </mxCell>
        <mxCell id="oVsmTPzflaDgjarKPhA9-42" value="1" style="shape=ellipse;strokeColor=none;fontColor=#ffffff;fillColor=#9E9E9E;" vertex="1" parent="oVsmTPzflaDgjarKPhA9-41">
          <mxGeometry width="24" height="24" relative="1" as="geometry">
            <mxPoint x="24" y="24" as="offset" />
          </mxGeometry>
        </mxCell>
        <mxCell id="oVsmTPzflaDgjarKPhA9-43" value="Dataset Details" style="shape=rect;strokeColor=none;fillColor=none;align=left;fontStyle=0;fontColor=#9E9E9E;" vertex="1" parent="oVsmTPzflaDgjarKPhA9-41">
          <mxGeometry width="200" height="24" relative="1" as="geometry">
            <mxPoint x="60" y="24" as="offset" />
          </mxGeometry>
        </mxCell>
        <mxCell id="oVsmTPzflaDgjarKPhA9-44" value="2" style="shape=ellipse;strokeColor=none;fontColor=#ffffff;fillColor=#4285F4;" vertex="1" parent="oVsmTPzflaDgjarKPhA9-41">
          <mxGeometry width="24" height="24" relative="1" as="geometry">
            <mxPoint x="24" y="90" as="offset" />
          </mxGeometry>
        </mxCell>
        <mxCell id="oVsmTPzflaDgjarKPhA9-45" value="Dataset Classification Details" style="shape=rect;strokeColor=none;fillColor=none;align=left;fontStyle=1" vertex="1" parent="oVsmTPzflaDgjarKPhA9-41">
          <mxGeometry width="200" height="24" relative="1" as="geometry">
            <mxPoint x="60" y="90" as="offset" />
          </mxGeometry>
        </mxCell>
        <mxCell id="oVsmTPzflaDgjarKPhA9-46" value="3" style="shape=ellipse;strokeColor=none;fillColor=#9e9e9e;fontColor=#ffffff;" vertex="1" parent="oVsmTPzflaDgjarKPhA9-41">
          <mxGeometry width="24" height="24" relative="1" as="geometry">
            <mxPoint x="24" y="380" as="offset" />
          </mxGeometry>
        </mxCell>
        <mxCell id="oVsmTPzflaDgjarKPhA9-47" value="Dataset Location" style="shape=rect;strokeColor=none;fillColor=none;align=left;fontColor=#aaaaaa;" vertex="1" parent="oVsmTPzflaDgjarKPhA9-41">
          <mxGeometry width="200" height="24" relative="1" as="geometry">
            <mxPoint x="60" y="380" as="offset" />
          </mxGeometry>
        </mxCell>
        <mxCell id="oVsmTPzflaDgjarKPhA9-48" value="4" style="shape=ellipse;strokeColor=none;fillColor=#9e9e9e;fontColor=#ffffff;" vertex="1" parent="oVsmTPzflaDgjarKPhA9-41">
          <mxGeometry x="24" y="456" width="24" height="24" as="geometry" />
        </mxCell>
        <mxCell id="oVsmTPzflaDgjarKPhA9-49" value="" style="shape=line;direction=north;strokeColor=#b3b3b3;" vertex="1" parent="oVsmTPzflaDgjarKPhA9-41">
          <mxGeometry x="31" y="418" width="10" height="25" as="geometry" />
        </mxCell>
        <mxCell id="oVsmTPzflaDgjarKPhA9-50" value="5" style="shape=ellipse;strokeColor=none;fillColor=#9e9e9e;fontColor=#ffffff;" vertex="1" parent="oVsmTPzflaDgjarKPhA9-41">
          <mxGeometry x="24" y="526" width="24" height="24" as="geometry" />
        </mxCell>
        <mxCell id="oVsmTPzflaDgjarKPhA9-51" value="" style="shape=line;direction=north;strokeColor=#b3b3b3;" vertex="1" parent="oVsmTPzflaDgjarKPhA9-41">
          <mxGeometry x="31" y="488" width="10" height="25" as="geometry" />
        </mxCell>
        <mxCell id="oVsmTPzflaDgjarKPhA9-52" value="6" style="shape=ellipse;strokeColor=none;fillColor=#9e9e9e;fontColor=#ffffff;" vertex="1" parent="oVsmTPzflaDgjarKPhA9-41">
          <mxGeometry x="24" y="596" width="24" height="24" as="geometry" />
        </mxCell>
        <mxCell id="oVsmTPzflaDgjarKPhA9-53" value="" style="shape=line;direction=north;strokeColor=#b3b3b3;" vertex="1" parent="oVsmTPzflaDgjarKPhA9-41">
          <mxGeometry x="31" y="558" width="10" height="25" as="geometry" />
        </mxCell>
        <mxCell id="oVsmTPzflaDgjarKPhA9-54" value="PII" style="shape=rect;strokeColor=none;fillColor=none;align=left;fontColor=#aaaaaa;" vertex="1" parent="oVsmTPzflaDgjarKPhA9-41">
          <mxGeometry x="60" y="456" width="200" height="24" as="geometry" />
        </mxCell>
        <mxCell id="oVsmTPzflaDgjarKPhA9-55" value="Record Schedule" style="shape=rect;strokeColor=none;fillColor=none;align=left;fontColor=#aaaaaa;" vertex="1" parent="oVsmTPzflaDgjarKPhA9-41">
          <mxGeometry x="60" y="526" width="200" height="24" as="geometry" />
        </mxCell>
        <mxCell id="oVsmTPzflaDgjarKPhA9-56" value="Notes" style="shape=rect;strokeColor=none;fillColor=none;align=left;fontColor=#aaaaaa;" vertex="1" parent="oVsmTPzflaDgjarKPhA9-41">
          <mxGeometry x="60" y="596" width="200" height="24" as="geometry" />
        </mxCell>
        <mxCell id="oVsmTPzflaDgjarKPhA9-57" value="" style="shape=line;direction=north;strokeColor=#b3b3b3;" vertex="1" parent="oVsmTPzflaDgjarKPhA9-41">
          <mxGeometry x="31" y="57" width="10" height="25" as="geometry" />
        </mxCell>
        <mxCell id="oVsmTPzflaDgjarKPhA9-58" value="Aggregate Classification" style="rounded=1;fillColor=#F1F2F4;strokeColor=none;html=1;fontColor=#596780;align=left;fontSize=12;spacingLeft=10;shadow=0;sketch=0;" vertex="1" parent="oVsmTPzflaDgjarKPhA9-41">
          <mxGeometry x="60" y="130" width="610" height="30" as="geometry" />
        </mxCell>
        <mxCell id="oVsmTPzflaDgjarKPhA9-59" value="" style="shape=triangle;direction=south;fillColor=#596780;strokeColor=none;html=1" vertex="1" parent="oVsmTPzflaDgjarKPhA9-58">
          <mxGeometry x="1" y="0.5" width="12" height="6" relative="1" as="geometry">
            <mxPoint x="-20" y="-3" as="offset" />
          </mxGeometry>
        </mxCell>
        <mxCell id="oVsmTPzflaDgjarKPhA9-60" value="Save" style="shape=rect;strokeColor=none;fillColor=#4285f4;fontColor=#ffffff;rounded=1;" vertex="1" parent="oVsmTPzflaDgjarKPhA9-41">
          <mxGeometry x="580" y="638" width="102" height="36" as="geometry" />
        </mxCell>
        <mxCell id="oVsmTPzflaDgjarKPhA9-61" value="Cancel" style="html=1;shadow=0;dashed=0;shape=mxgraph.bootstrap.rrect;rSize=5;fillColor=#6C757D;strokeColor=none;fontColor=#FFFFFF;fontSize=14;" vertex="1" parent="oVsmTPzflaDgjarKPhA9-41">
          <mxGeometry x="500.00402733964256" y="638" width="70" height="36" as="geometry" />
        </mxCell>
        <mxCell id="oVsmTPzflaDgjarKPhA9-62" value="" style="shape=line;direction=north;strokeColor=#b3b3b3;" vertex="1" parent="oVsmTPzflaDgjarKPhA9-41">
          <mxGeometry x="31" y="120" width="10" height="250" as="geometry" />
        </mxCell>
        <mxCell id="oVsmTPzflaDgjarKPhA9-63" value="" style="shape=line;direction=north;strokeColor=#b3b3b3;" vertex="1" parent="oVsmTPzflaDgjarKPhA9-41">
          <mxGeometry x="31" y="627" width="10" height="25" as="geometry" />
        </mxCell>
        <mxCell id="oVsmTPzflaDgjarKPhA9-64" value="S" style="shape=ellipse;strokeColor=none;fillColor=#9e9e9e;fontColor=#ffffff;" vertex="1" parent="oVsmTPzflaDgjarKPhA9-41">
          <mxGeometry x="24" y="661" width="24" height="24" as="geometry" />
        </mxCell>
        <mxCell id="oVsmTPzflaDgjarKPhA9-65" value="Next" style="shape=rect;strokeColor=none;fillColor=#4285f4;fontColor=#ffffff;rounded=1;" vertex="1" parent="oVsmTPzflaDgjarKPhA9-41">
          <mxGeometry x="139.67000000000002" y="327" width="102" height="36" as="geometry" />
        </mxCell>
        <mxCell id="oVsmTPzflaDgjarKPhA9-66" value="Back" style="html=1;shadow=0;dashed=0;shape=mxgraph.bootstrap.rrect;rSize=5;fillColor=#6C757D;strokeColor=none;fontColor=#FFFFFF;fontSize=14;" vertex="1" parent="oVsmTPzflaDgjarKPhA9-41">
          <mxGeometry x="60" y="327" width="70" height="36" as="geometry" />
        </mxCell>
        <mxCell id="oVsmTPzflaDgjarKPhA9-67" value="" style="shape=rect;fillColor=#ffffff;rounded=1;shadow=1;sketch=0;fontSize=8;align=left;fontColor=#9E9E9E;arcSize=1;" vertex="1" parent="oVsmTPzflaDgjarKPhA9-1">
          <mxGeometry x="60" y="1780" width="704" height="690" as="geometry" />
        </mxCell>
        <mxCell id="oVsmTPzflaDgjarKPhA9-68" value="1" style="shape=ellipse;strokeColor=none;fontColor=#ffffff;fillColor=#9E9E9E;" vertex="1" parent="oVsmTPzflaDgjarKPhA9-67">
          <mxGeometry width="24" height="24" relative="1" as="geometry">
            <mxPoint x="24" y="24" as="offset" />
          </mxGeometry>
        </mxCell>
        <mxCell id="oVsmTPzflaDgjarKPhA9-69" value="Dataset Details" style="shape=rect;strokeColor=none;fillColor=none;align=left;fontStyle=0;fontColor=#9E9E9E;" vertex="1" parent="oVsmTPzflaDgjarKPhA9-67">
          <mxGeometry width="200" height="24" relative="1" as="geometry">
            <mxPoint x="60" y="24" as="offset" />
          </mxGeometry>
        </mxCell>
        <mxCell id="oVsmTPzflaDgjarKPhA9-70" value="2" style="shape=ellipse;strokeColor=none;fontColor=#ffffff;fillColor=#9E9E9E;" vertex="1" parent="oVsmTPzflaDgjarKPhA9-67">
          <mxGeometry width="24" height="24" relative="1" as="geometry">
            <mxPoint x="24" y="90" as="offset" />
          </mxGeometry>
        </mxCell>
        <mxCell id="oVsmTPzflaDgjarKPhA9-71" value="Dataset Classification Details" style="shape=rect;strokeColor=none;fillColor=none;align=left;fontStyle=0;fontColor=#9E9E9E;" vertex="1" parent="oVsmTPzflaDgjarKPhA9-67">
          <mxGeometry width="200" height="24" relative="1" as="geometry">
            <mxPoint x="60" y="90" as="offset" />
          </mxGeometry>
        </mxCell>
        <mxCell id="oVsmTPzflaDgjarKPhA9-72" value="3" style="shape=ellipse;strokeColor=none;fontColor=#ffffff;fillColor=#4285F4;" vertex="1" parent="oVsmTPzflaDgjarKPhA9-67">
          <mxGeometry width="24" height="24" relative="1" as="geometry">
            <mxPoint x="24" y="160" as="offset" />
          </mxGeometry>
        </mxCell>
        <mxCell id="oVsmTPzflaDgjarKPhA9-73" value="Dataset Location" style="shape=rect;strokeColor=none;fillColor=none;align=left;fontStyle=1" vertex="1" parent="oVsmTPzflaDgjarKPhA9-67">
          <mxGeometry width="200" height="24" relative="1" as="geometry">
            <mxPoint x="60" y="160" as="offset" />
          </mxGeometry>
        </mxCell>
        <mxCell id="oVsmTPzflaDgjarKPhA9-74" value="4" style="shape=ellipse;strokeColor=none;fillColor=#9e9e9e;fontColor=#ffffff;" vertex="1" parent="oVsmTPzflaDgjarKPhA9-67">
          <mxGeometry x="22.33" y="450" width="24" height="24" as="geometry" />
        </mxCell>
        <mxCell id="oVsmTPzflaDgjarKPhA9-75" value="" style="shape=line;direction=north;strokeColor=#b3b3b3;" vertex="1" parent="oVsmTPzflaDgjarKPhA9-67">
          <mxGeometry x="31" y="125" width="10" height="25" as="geometry" />
        </mxCell>
        <mxCell id="oVsmTPzflaDgjarKPhA9-76" value="5" style="shape=ellipse;strokeColor=none;fillColor=#9e9e9e;fontColor=#ffffff;" vertex="1" parent="oVsmTPzflaDgjarKPhA9-67">
          <mxGeometry x="22.33" y="520" width="24" height="24" as="geometry" />
        </mxCell>
        <mxCell id="oVsmTPzflaDgjarKPhA9-77" value="" style="shape=line;direction=north;strokeColor=#b3b3b3;" vertex="1" parent="oVsmTPzflaDgjarKPhA9-67">
          <mxGeometry x="29.33" y="482" width="10" height="25" as="geometry" />
        </mxCell>
        <mxCell id="oVsmTPzflaDgjarKPhA9-78" value="6" style="shape=ellipse;strokeColor=none;fillColor=#9e9e9e;fontColor=#ffffff;" vertex="1" parent="oVsmTPzflaDgjarKPhA9-67">
          <mxGeometry x="22.33" y="590" width="24" height="24" as="geometry" />
        </mxCell>
        <mxCell id="oVsmTPzflaDgjarKPhA9-79" value="" style="shape=line;direction=north;strokeColor=#b3b3b3;" vertex="1" parent="oVsmTPzflaDgjarKPhA9-67">
          <mxGeometry x="29.33" y="552" width="10" height="25" as="geometry" />
        </mxCell>
        <mxCell id="oVsmTPzflaDgjarKPhA9-80" value="PII" style="shape=rect;strokeColor=none;fillColor=none;align=left;fontColor=#aaaaaa;" vertex="1" parent="oVsmTPzflaDgjarKPhA9-67">
          <mxGeometry x="58.33" y="450" width="200" height="24" as="geometry" />
        </mxCell>
        <mxCell id="oVsmTPzflaDgjarKPhA9-81" value="Record Schedule" style="shape=rect;strokeColor=none;fillColor=none;align=left;fontColor=#aaaaaa;" vertex="1" parent="oVsmTPzflaDgjarKPhA9-67">
          <mxGeometry x="58.33" y="520" width="200" height="24" as="geometry" />
        </mxCell>
        <mxCell id="oVsmTPzflaDgjarKPhA9-82" value="Notes" style="shape=rect;strokeColor=none;fillColor=none;align=left;fontColor=#aaaaaa;" vertex="1" parent="oVsmTPzflaDgjarKPhA9-67">
          <mxGeometry x="58.33" y="590" width="200" height="24" as="geometry" />
        </mxCell>
        <mxCell id="oVsmTPzflaDgjarKPhA9-83" value="" style="shape=line;direction=north;strokeColor=#b3b3b3;" vertex="1" parent="oVsmTPzflaDgjarKPhA9-67">
          <mxGeometry x="31" y="57" width="10" height="25" as="geometry" />
        </mxCell>
        <mxCell id="oVsmTPzflaDgjarKPhA9-84" value="Save" style="shape=rect;strokeColor=none;fillColor=#4285f4;fontColor=#ffffff;rounded=1;" vertex="1" parent="oVsmTPzflaDgjarKPhA9-67">
          <mxGeometry x="580" y="638" width="102" height="36" as="geometry" />
        </mxCell>
        <mxCell id="oVsmTPzflaDgjarKPhA9-85" value="Data Format" style="rounded=1;fillColor=#F1F2F4;strokeColor=none;html=1;fontColor=#596780;align=left;fontSize=12;spacingLeft=10;shadow=0;sketch=0;" vertex="1" parent="oVsmTPzflaDgjarKPhA9-67">
          <mxGeometry x="60" y="245" width="600" height="30" as="geometry" />
        </mxCell>
        <mxCell id="oVsmTPzflaDgjarKPhA9-86" value="" style="shape=triangle;direction=south;fillColor=#596780;strokeColor=none;html=1" vertex="1" parent="oVsmTPzflaDgjarKPhA9-85">
          <mxGeometry x="1" y="0.5" width="12" height="6" relative="1" as="geometry">
            <mxPoint x="-20" y="-3" as="offset" />
          </mxGeometry>
        </mxCell>
        <mxCell id="oVsmTPzflaDgjarKPhA9-87" value="&lt;font color=&quot;#000000&quot; style=&quot;font-size: 11px&quot;&gt;Custodian:&lt;/font&gt;" style="text;html=1;strokeColor=none;fillColor=none;align=left;verticalAlign=middle;whiteSpace=wrap;rounded=0;shadow=0;sketch=0;fontSize=11;fontColor=#0645AD;" vertex="1" parent="oVsmTPzflaDgjarKPhA9-67">
          <mxGeometry x="50" y="287" width="80.33" height="20" as="geometry" />
        </mxCell>
        <mxCell id="oVsmTPzflaDgjarKPhA9-88" value="Level 4" style="rounded=1;fillColor=#F1F2F4;strokeColor=none;html=1;fontColor=#596780;align=left;fontSize=12;spacingLeft=10;shadow=0;sketch=0;" vertex="1" parent="oVsmTPzflaDgjarKPhA9-67">
          <mxGeometry x="320" y="312" width="80" height="30" as="geometry" />
        </mxCell>
        <mxCell id="oVsmTPzflaDgjarKPhA9-89" value="" style="shape=triangle;direction=south;fillColor=#596780;strokeColor=none;html=1" vertex="1" parent="oVsmTPzflaDgjarKPhA9-88">
          <mxGeometry x="1" y="0.5" width="12" height="6" relative="1" as="geometry">
            <mxPoint x="-20" y="-3" as="offset" />
          </mxGeometry>
        </mxCell>
        <mxCell id="oVsmTPzflaDgjarKPhA9-90" value="&lt;font color=&quot;#000000&quot;&gt;PPP/QQQ/RRR/ZZZ/AAA&lt;/font&gt;" style="text;html=1;strokeColor=none;fillColor=none;align=left;verticalAlign=middle;whiteSpace=wrap;rounded=0;shadow=0;sketch=0;fontSize=10;fontColor=#0645AD;" vertex="1" parent="oVsmTPzflaDgjarKPhA9-67">
          <mxGeometry x="140" y="287" width="80.33" height="20" as="geometry" />
        </mxCell>
        <mxCell id="oVsmTPzflaDgjarKPhA9-91" value="Level 5" style="rounded=1;fillColor=#F1F2F4;strokeColor=none;html=1;fontColor=#596780;align=left;fontSize=12;spacingLeft=10;shadow=0;sketch=0;" vertex="1" parent="oVsmTPzflaDgjarKPhA9-67">
          <mxGeometry x="410.33" y="312" width="80" height="30" as="geometry" />
        </mxCell>
        <mxCell id="oVsmTPzflaDgjarKPhA9-92" value="" style="shape=triangle;direction=south;fillColor=#596780;strokeColor=none;html=1" vertex="1" parent="oVsmTPzflaDgjarKPhA9-91">
          <mxGeometry x="1" y="0.5" width="12" height="6" relative="1" as="geometry">
            <mxPoint x="-20" y="-3" as="offset" />
          </mxGeometry>
        </mxCell>
        <mxCell id="oVsmTPzflaDgjarKPhA9-93" value="Level 1" style="rounded=1;fillColor=#F1F2F4;strokeColor=none;html=1;fontColor=#596780;align=left;fontSize=12;spacingLeft=10;shadow=0;sketch=0;" vertex="1" parent="oVsmTPzflaDgjarKPhA9-67">
          <mxGeometry x="50" y="312" width="80" height="30" as="geometry" />
        </mxCell>
        <mxCell id="oVsmTPzflaDgjarKPhA9-94" value="" style="shape=triangle;direction=south;fillColor=#596780;strokeColor=none;html=1" vertex="1" parent="oVsmTPzflaDgjarKPhA9-93">
          <mxGeometry x="1" y="0.5" width="12" height="6" relative="1" as="geometry">
            <mxPoint x="-20" y="-3" as="offset" />
          </mxGeometry>
        </mxCell>
        <mxCell id="oVsmTPzflaDgjarKPhA9-95" value="Level 2" style="rounded=1;fillColor=#F1F2F4;strokeColor=none;html=1;fontColor=#596780;align=left;fontSize=12;spacingLeft=10;shadow=0;sketch=0;" vertex="1" parent="oVsmTPzflaDgjarKPhA9-67">
          <mxGeometry x="140" y="312" width="80" height="30" as="geometry" />
        </mxCell>
        <mxCell id="oVsmTPzflaDgjarKPhA9-96" value="" style="shape=triangle;direction=south;fillColor=#596780;strokeColor=none;html=1" vertex="1" parent="oVsmTPzflaDgjarKPhA9-95">
          <mxGeometry x="1" y="0.5" width="12" height="6" relative="1" as="geometry">
            <mxPoint x="-20" y="-3" as="offset" />
          </mxGeometry>
        </mxCell>
        <mxCell id="oVsmTPzflaDgjarKPhA9-97" value="Level 3" style="rounded=1;fillColor=#F1F2F4;strokeColor=none;html=1;fontColor=#596780;align=left;fontSize=12;spacingLeft=10;shadow=0;sketch=0;" vertex="1" parent="oVsmTPzflaDgjarKPhA9-67">
          <mxGeometry x="230" y="312" width="80" height="30" as="geometry" />
        </mxCell>
        <mxCell id="oVsmTPzflaDgjarKPhA9-98" value="" style="shape=triangle;direction=south;fillColor=#596780;strokeColor=none;html=1" vertex="1" parent="oVsmTPzflaDgjarKPhA9-97">
          <mxGeometry x="1" y="0.5" width="12" height="6" relative="1" as="geometry">
            <mxPoint x="-20" y="-3" as="offset" />
          </mxGeometry>
        </mxCell>
        <mxCell id="oVsmTPzflaDgjarKPhA9-99" value="Cancel" style="html=1;shadow=0;dashed=0;shape=mxgraph.bootstrap.rrect;rSize=5;fillColor=#6C757D;strokeColor=none;fontColor=#FFFFFF;fontSize=14;" vertex="1" parent="oVsmTPzflaDgjarKPhA9-67">
          <mxGeometry x="500.00402733964256" y="638" width="70" height="36" as="geometry" />
        </mxCell>
        <mxCell id="oVsmTPzflaDgjarKPhA9-100" value="" style="shape=line;direction=north;strokeColor=#b3b3b3;" vertex="1" parent="oVsmTPzflaDgjarKPhA9-67">
          <mxGeometry x="31" y="190" width="10" height="250" as="geometry" />
        </mxCell>
        <mxCell id="oVsmTPzflaDgjarKPhA9-101" value="" style="shape=line;direction=north;strokeColor=#b3b3b3;" vertex="1" parent="oVsmTPzflaDgjarKPhA9-67">
          <mxGeometry x="31" y="627" width="10" height="25" as="geometry" />
        </mxCell>
        <mxCell id="oVsmTPzflaDgjarKPhA9-102" value="S" style="shape=ellipse;strokeColor=none;fillColor=#9e9e9e;fontColor=#ffffff;" vertex="1" parent="oVsmTPzflaDgjarKPhA9-67">
          <mxGeometry x="24" y="661" width="24" height="24" as="geometry" />
        </mxCell>
        <mxCell id="oVsmTPzflaDgjarKPhA9-103" value="Next" style="shape=rect;strokeColor=none;fillColor=#4285f4;fontColor=#ffffff;rounded=1;" vertex="1" parent="oVsmTPzflaDgjarKPhA9-67">
          <mxGeometry x="129.67000000000002" y="400" width="102" height="36" as="geometry" />
        </mxCell>
        <mxCell id="oVsmTPzflaDgjarKPhA9-104" value="Back" style="html=1;shadow=0;dashed=0;shape=mxgraph.bootstrap.rrect;rSize=5;fillColor=#6C757D;strokeColor=none;fontColor=#FFFFFF;fontSize=14;" vertex="1" parent="oVsmTPzflaDgjarKPhA9-67">
          <mxGeometry x="50.000000000000014" y="400" width="70" height="36" as="geometry" />
        </mxCell>
        <mxCell id="oVsmTPzflaDgjarKPhA9-105" value="Data Location" style="rounded=1;fillColor=#F1F2F4;strokeColor=none;html=1;fontColor=#596780;align=left;fontSize=12;spacingLeft=10;shadow=0;sketch=0;" vertex="1" parent="oVsmTPzflaDgjarKPhA9-1">
          <mxGeometry x="120" y="1985" width="600" height="30" as="geometry" />
        </mxCell>
        <mxCell id="oVsmTPzflaDgjarKPhA9-106" value="" style="shape=triangle;direction=south;fillColor=#596780;strokeColor=none;html=1" vertex="1" parent="oVsmTPzflaDgjarKPhA9-105">
          <mxGeometry x="1" y="0.5" width="12" height="6" relative="1" as="geometry">
            <mxPoint x="-20" y="-3" as="offset" />
          </mxGeometry>
        </mxCell>
        <mxCell id="oVsmTPzflaDgjarKPhA9-107" value="" style="shape=rect;fillColor=#ffffff;rounded=1;shadow=1;sketch=0;fontSize=8;align=left;fontColor=#9E9E9E;arcSize=1;" vertex="1" parent="oVsmTPzflaDgjarKPhA9-1">
          <mxGeometry x="60" y="2640" width="704" height="690" as="geometry" />
        </mxCell>
        <mxCell id="oVsmTPzflaDgjarKPhA9-108" value="1" style="shape=ellipse;strokeColor=none;fontColor=#ffffff;fillColor=#9E9E9E;" vertex="1" parent="oVsmTPzflaDgjarKPhA9-107">
          <mxGeometry width="24" height="24" relative="1" as="geometry">
            <mxPoint x="24" y="24" as="offset" />
          </mxGeometry>
        </mxCell>
        <mxCell id="oVsmTPzflaDgjarKPhA9-109" value="Dataset Details" style="shape=rect;strokeColor=none;fillColor=none;align=left;fontStyle=0;fontColor=#9E9E9E;" vertex="1" parent="oVsmTPzflaDgjarKPhA9-107">
          <mxGeometry width="200" height="24" relative="1" as="geometry">
            <mxPoint x="60" y="24" as="offset" />
          </mxGeometry>
        </mxCell>
        <mxCell id="oVsmTPzflaDgjarKPhA9-110" value="2" style="shape=ellipse;strokeColor=none;fontColor=#ffffff;fillColor=#9E9E9E;" vertex="1" parent="oVsmTPzflaDgjarKPhA9-107">
          <mxGeometry width="24" height="24" relative="1" as="geometry">
            <mxPoint x="24" y="90" as="offset" />
          </mxGeometry>
        </mxCell>
        <mxCell id="oVsmTPzflaDgjarKPhA9-111" value="Dataset Classification Details" style="shape=rect;strokeColor=none;fillColor=none;align=left;fontStyle=0;fontColor=#9E9E9E;" vertex="1" parent="oVsmTPzflaDgjarKPhA9-107">
          <mxGeometry width="200" height="24" relative="1" as="geometry">
            <mxPoint x="60" y="90" as="offset" />
          </mxGeometry>
        </mxCell>
        <mxCell id="oVsmTPzflaDgjarKPhA9-112" value="3" style="shape=ellipse;strokeColor=none;fontColor=#ffffff;fillColor=#9E9E9E;" vertex="1" parent="oVsmTPzflaDgjarKPhA9-107">
          <mxGeometry width="24" height="24" relative="1" as="geometry">
            <mxPoint x="24" y="160" as="offset" />
          </mxGeometry>
        </mxCell>
        <mxCell id="oVsmTPzflaDgjarKPhA9-113" value="Dataset Location" style="shape=rect;strokeColor=none;fillColor=none;align=left;fontStyle=0;fontColor=#9E9E9E;" vertex="1" parent="oVsmTPzflaDgjarKPhA9-107">
          <mxGeometry width="200" height="24" relative="1" as="geometry">
            <mxPoint x="60" y="160" as="offset" />
          </mxGeometry>
        </mxCell>
        <mxCell id="oVsmTPzflaDgjarKPhA9-114" value="4" style="shape=ellipse;strokeColor=none;fontColor=#ffffff;fillColor=#4285F4;" vertex="1" parent="oVsmTPzflaDgjarKPhA9-107">
          <mxGeometry x="24" y="220" width="24" height="24" as="geometry" />
        </mxCell>
        <mxCell id="oVsmTPzflaDgjarKPhA9-115" value="" style="shape=line;direction=north;strokeColor=#b3b3b3;" vertex="1" parent="oVsmTPzflaDgjarKPhA9-107">
          <mxGeometry x="31" y="125" width="10" height="25" as="geometry" />
        </mxCell>
        <mxCell id="oVsmTPzflaDgjarKPhA9-116" value="5" style="shape=ellipse;strokeColor=none;fillColor=#9e9e9e;fontColor=#ffffff;" vertex="1" parent="oVsmTPzflaDgjarKPhA9-107">
          <mxGeometry x="24" y="510" width="24" height="24" as="geometry" />
        </mxCell>
        <mxCell id="oVsmTPzflaDgjarKPhA9-117" value="" style="shape=line;direction=north;strokeColor=#b3b3b3;" vertex="1" parent="oVsmTPzflaDgjarKPhA9-107">
          <mxGeometry x="31" y="190" width="10" height="25" as="geometry" />
        </mxCell>
        <mxCell id="oVsmTPzflaDgjarKPhA9-118" value="6" style="shape=ellipse;strokeColor=none;fillColor=#9e9e9e;fontColor=#ffffff;" vertex="1" parent="oVsmTPzflaDgjarKPhA9-107">
          <mxGeometry x="24" y="580" width="24" height="24" as="geometry" />
        </mxCell>
        <mxCell id="oVsmTPzflaDgjarKPhA9-119" value="" style="shape=line;direction=north;strokeColor=#b3b3b3;" vertex="1" parent="oVsmTPzflaDgjarKPhA9-107">
          <mxGeometry x="31" y="542" width="10" height="25" as="geometry" />
        </mxCell>
        <mxCell id="oVsmTPzflaDgjarKPhA9-120" value="PII" style="shape=rect;strokeColor=none;fillColor=none;align=left;fontStyle=1" vertex="1" parent="oVsmTPzflaDgjarKPhA9-107">
          <mxGeometry x="60" y="220" width="200" height="24" as="geometry" />
        </mxCell>
        <mxCell id="oVsmTPzflaDgjarKPhA9-121" value="Record Schedule" style="shape=rect;strokeColor=none;fillColor=none;align=left;fontColor=#aaaaaa;" vertex="1" parent="oVsmTPzflaDgjarKPhA9-107">
          <mxGeometry x="60" y="510" width="200" height="24" as="geometry" />
        </mxCell>
        <mxCell id="oVsmTPzflaDgjarKPhA9-122" value="Notes" style="shape=rect;strokeColor=none;fillColor=none;align=left;fontColor=#aaaaaa;" vertex="1" parent="oVsmTPzflaDgjarKPhA9-107">
          <mxGeometry x="60" y="580" width="200" height="24" as="geometry" />
        </mxCell>
        <mxCell id="oVsmTPzflaDgjarKPhA9-123" value="" style="shape=line;direction=north;strokeColor=#b3b3b3;" vertex="1" parent="oVsmTPzflaDgjarKPhA9-107">
          <mxGeometry x="31" y="57" width="10" height="25" as="geometry" />
        </mxCell>
        <mxCell id="oVsmTPzflaDgjarKPhA9-124" value="Save" style="shape=rect;strokeColor=none;fillColor=#4285f4;fontColor=#ffffff;rounded=1;" vertex="1" parent="oVsmTPzflaDgjarKPhA9-107">
          <mxGeometry x="580" y="638" width="102" height="36" as="geometry" />
        </mxCell>
        <mxCell id="oVsmTPzflaDgjarKPhA9-125" value="PII Type" style="rounded=1;fillColor=#F1F2F4;strokeColor=none;html=1;fontColor=#596780;align=left;fontSize=12;spacingLeft=10;shadow=0;sketch=0;" vertex="1" parent="oVsmTPzflaDgjarKPhA9-107">
          <mxGeometry x="60" y="300" width="606.5" height="30" as="geometry" />
        </mxCell>
        <mxCell id="oVsmTPzflaDgjarKPhA9-126" value="" style="shape=triangle;direction=south;fillColor=#596780;strokeColor=none;html=1" vertex="1" parent="oVsmTPzflaDgjarKPhA9-125">
          <mxGeometry x="1" y="0.5" width="12" height="6" relative="1" as="geometry">
            <mxPoint x="-20" y="-3" as="offset" />
          </mxGeometry>
        </mxCell>
        <mxCell id="oVsmTPzflaDgjarKPhA9-127" value="PII" style="rounded=1;fillColor=#F1F2F4;strokeColor=none;html=1;fontColor=#596780;align=left;fontSize=12;spacingLeft=10;shadow=0;sketch=0;" vertex="1" parent="oVsmTPzflaDgjarKPhA9-107">
          <mxGeometry x="60" y="260" width="606.5" height="30" as="geometry" />
        </mxCell>
        <mxCell id="oVsmTPzflaDgjarKPhA9-128" value="" style="shape=triangle;direction=south;fillColor=#596780;strokeColor=none;html=1" vertex="1" parent="oVsmTPzflaDgjarKPhA9-127">
          <mxGeometry x="1" y="0.5" width="12" height="6" relative="1" as="geometry">
            <mxPoint x="-20" y="-3" as="offset" />
          </mxGeometry>
        </mxCell>
        <mxCell id="oVsmTPzflaDgjarKPhA9-129" value="SORN Number" style="rounded=1;fillColor=#F1F2F4;strokeColor=none;html=1;fontColor=#596780;align=left;fontSize=12;spacingLeft=10;shadow=0;sketch=0;" vertex="1" parent="oVsmTPzflaDgjarKPhA9-107">
          <mxGeometry x="60" y="342" width="606.5" height="30" as="geometry" />
        </mxCell>
        <mxCell id="oVsmTPzflaDgjarKPhA9-130" value="" style="shape=triangle;direction=south;fillColor=#596780;strokeColor=none;html=1" vertex="1" parent="oVsmTPzflaDgjarKPhA9-129">
          <mxGeometry x="1" y="0.5" width="12" height="6" relative="1" as="geometry">
            <mxPoint x="-20" y="-3" as="offset" />
          </mxGeometry>
        </mxCell>
        <mxCell id="oVsmTPzflaDgjarKPhA9-131" value="Handling Instructions" style="rounded=1;fillColor=#F1F2F4;strokeColor=none;html=1;fontColor=#596780;align=left;fontSize=12;spacingLeft=10;shadow=0;sketch=0;" vertex="1" parent="oVsmTPzflaDgjarKPhA9-107">
          <mxGeometry x="60" y="383" width="606.5" height="30" as="geometry" />
        </mxCell>
        <mxCell id="oVsmTPzflaDgjarKPhA9-132" value="" style="shape=triangle;direction=south;fillColor=#596780;strokeColor=none;html=1" vertex="1" parent="oVsmTPzflaDgjarKPhA9-131">
          <mxGeometry x="1" y="0.5" width="12" height="6" relative="1" as="geometry">
            <mxPoint x="-20" y="-3" as="offset" />
          </mxGeometry>
        </mxCell>
        <mxCell id="oVsmTPzflaDgjarKPhA9-133" value="Cancel" style="html=1;shadow=0;dashed=0;shape=mxgraph.bootstrap.rrect;rSize=5;fillColor=#6C757D;strokeColor=none;fontColor=#FFFFFF;fontSize=14;" vertex="1" parent="oVsmTPzflaDgjarKPhA9-107">
          <mxGeometry x="500.00402733964256" y="638" width="70" height="36" as="geometry" />
        </mxCell>
        <mxCell id="oVsmTPzflaDgjarKPhA9-134" value="" style="shape=line;direction=north;strokeColor=#b3b3b3;" vertex="1" parent="oVsmTPzflaDgjarKPhA9-107">
          <mxGeometry x="31" y="255" width="10" height="250" as="geometry" />
        </mxCell>
        <mxCell id="oVsmTPzflaDgjarKPhA9-135" value="" style="shape=line;direction=north;strokeColor=#b3b3b3;" vertex="1" parent="oVsmTPzflaDgjarKPhA9-107">
          <mxGeometry x="31" y="610" width="10" height="25" as="geometry" />
        </mxCell>
        <mxCell id="oVsmTPzflaDgjarKPhA9-136" value="S" style="shape=ellipse;strokeColor=none;fillColor=#9e9e9e;fontColor=#ffffff;" vertex="1" parent="oVsmTPzflaDgjarKPhA9-107">
          <mxGeometry x="24" y="644" width="24" height="24" as="geometry" />
        </mxCell>
        <mxCell id="oVsmTPzflaDgjarKPhA9-137" value="Next" style="shape=rect;strokeColor=none;fillColor=#4285f4;fontColor=#ffffff;rounded=1;" vertex="1" parent="oVsmTPzflaDgjarKPhA9-107">
          <mxGeometry x="139.67000000000002" y="460" width="102" height="36" as="geometry" />
        </mxCell>
        <mxCell id="oVsmTPzflaDgjarKPhA9-138" value="Back" style="html=1;shadow=0;dashed=0;shape=mxgraph.bootstrap.rrect;rSize=5;fillColor=#6C757D;strokeColor=none;fontColor=#FFFFFF;fontSize=14;" vertex="1" parent="oVsmTPzflaDgjarKPhA9-107">
          <mxGeometry x="60" y="460" width="70" height="36" as="geometry" />
        </mxCell>
        <mxCell id="oVsmTPzflaDgjarKPhA9-139" value="" style="shape=rect;fillColor=#ffffff;rounded=1;shadow=1;sketch=0;fontSize=8;align=left;fontColor=#9E9E9E;arcSize=1;" vertex="1" parent="oVsmTPzflaDgjarKPhA9-1">
          <mxGeometry x="68" y="3470" width="704" height="690" as="geometry" />
        </mxCell>
        <mxCell id="oVsmTPzflaDgjarKPhA9-140" value="1" style="shape=ellipse;strokeColor=none;fontColor=#ffffff;fillColor=#9E9E9E;" vertex="1" parent="oVsmTPzflaDgjarKPhA9-139">
          <mxGeometry width="24" height="24" relative="1" as="geometry">
            <mxPoint x="24" y="24" as="offset" />
          </mxGeometry>
        </mxCell>
        <mxCell id="oVsmTPzflaDgjarKPhA9-141" value="Dataset Details" style="shape=rect;strokeColor=none;fillColor=none;align=left;fontStyle=0;fontColor=#9E9E9E;" vertex="1" parent="oVsmTPzflaDgjarKPhA9-139">
          <mxGeometry width="200" height="24" relative="1" as="geometry">
            <mxPoint x="60" y="24" as="offset" />
          </mxGeometry>
        </mxCell>
        <mxCell id="oVsmTPzflaDgjarKPhA9-142" value="2" style="shape=ellipse;strokeColor=none;fontColor=#ffffff;fillColor=#9E9E9E;" vertex="1" parent="oVsmTPzflaDgjarKPhA9-139">
          <mxGeometry width="24" height="24" relative="1" as="geometry">
            <mxPoint x="24" y="90" as="offset" />
          </mxGeometry>
        </mxCell>
        <mxCell id="oVsmTPzflaDgjarKPhA9-143" value="Dataset Classification Details" style="shape=rect;strokeColor=none;fillColor=none;align=left;fontStyle=0;fontColor=#9E9E9E;" vertex="1" parent="oVsmTPzflaDgjarKPhA9-139">
          <mxGeometry width="200" height="24" relative="1" as="geometry">
            <mxPoint x="60" y="90" as="offset" />
          </mxGeometry>
        </mxCell>
        <mxCell id="oVsmTPzflaDgjarKPhA9-144" value="3" style="shape=ellipse;strokeColor=none;fontColor=#ffffff;fillColor=#9E9E9E;" vertex="1" parent="oVsmTPzflaDgjarKPhA9-139">
          <mxGeometry width="24" height="24" relative="1" as="geometry">
            <mxPoint x="24" y="160" as="offset" />
          </mxGeometry>
        </mxCell>
        <mxCell id="oVsmTPzflaDgjarKPhA9-145" value="Dataset Location" style="shape=rect;strokeColor=none;fillColor=none;align=left;fontStyle=0;fontColor=#9E9E9E;" vertex="1" parent="oVsmTPzflaDgjarKPhA9-139">
          <mxGeometry width="200" height="24" relative="1" as="geometry">
            <mxPoint x="60" y="160" as="offset" />
          </mxGeometry>
        </mxCell>
        <mxCell id="oVsmTPzflaDgjarKPhA9-146" value="4" style="shape=ellipse;strokeColor=none;fontColor=#ffffff;fillColor=#9E9E9E;" vertex="1" parent="oVsmTPzflaDgjarKPhA9-139">
          <mxGeometry x="24" y="220" width="24" height="24" as="geometry" />
        </mxCell>
        <mxCell id="oVsmTPzflaDgjarKPhA9-147" value="" style="shape=line;direction=north;strokeColor=#b3b3b3;" vertex="1" parent="oVsmTPzflaDgjarKPhA9-139">
          <mxGeometry x="31" y="125" width="10" height="25" as="geometry" />
        </mxCell>
        <mxCell id="oVsmTPzflaDgjarKPhA9-148" value="5" style="shape=ellipse;strokeColor=none;fontColor=#ffffff;fillColor=#4285F4;" vertex="1" parent="oVsmTPzflaDgjarKPhA9-139">
          <mxGeometry x="24" y="285" width="24" height="24" as="geometry" />
        </mxCell>
        <mxCell id="oVsmTPzflaDgjarKPhA9-149" value="" style="shape=line;direction=north;strokeColor=#b3b3b3;" vertex="1" parent="oVsmTPzflaDgjarKPhA9-139">
          <mxGeometry x="31" y="190" width="10" height="25" as="geometry" />
        </mxCell>
        <mxCell id="oVsmTPzflaDgjarKPhA9-150" value="6" style="shape=ellipse;strokeColor=none;fillColor=#9e9e9e;fontColor=#ffffff;" vertex="1" parent="oVsmTPzflaDgjarKPhA9-139">
          <mxGeometry x="24" y="580" width="24" height="24" as="geometry" />
        </mxCell>
        <mxCell id="oVsmTPzflaDgjarKPhA9-151" value="" style="shape=line;direction=north;strokeColor=#b3b3b3;" vertex="1" parent="oVsmTPzflaDgjarKPhA9-139">
          <mxGeometry x="31" y="250" width="10" height="25" as="geometry" />
        </mxCell>
        <mxCell id="oVsmTPzflaDgjarKPhA9-152" value="PII" style="shape=rect;strokeColor=none;fillColor=none;align=left;fontStyle=0;fontColor=#9E9E9E;" vertex="1" parent="oVsmTPzflaDgjarKPhA9-139">
          <mxGeometry x="60" y="220" width="200" height="24" as="geometry" />
        </mxCell>
        <mxCell id="oVsmTPzflaDgjarKPhA9-153" value="Record Schedule" style="shape=rect;strokeColor=none;fillColor=none;align=left;fontStyle=1" vertex="1" parent="oVsmTPzflaDgjarKPhA9-139">
          <mxGeometry x="60" y="285" width="200" height="24" as="geometry" />
        </mxCell>
        <mxCell id="oVsmTPzflaDgjarKPhA9-154" value="Notes" style="shape=rect;strokeColor=none;fillColor=none;align=left;fontColor=#aaaaaa;" vertex="1" parent="oVsmTPzflaDgjarKPhA9-139">
          <mxGeometry x="60" y="580" width="200" height="24" as="geometry" />
        </mxCell>
        <mxCell id="oVsmTPzflaDgjarKPhA9-155" value="" style="shape=line;direction=north;strokeColor=#b3b3b3;" vertex="1" parent="oVsmTPzflaDgjarKPhA9-139">
          <mxGeometry x="31" y="57" width="10" height="25" as="geometry" />
        </mxCell>
        <mxCell id="oVsmTPzflaDgjarKPhA9-156" value="Save" style="shape=rect;strokeColor=none;fillColor=#4285f4;fontColor=#ffffff;rounded=1;" vertex="1" parent="oVsmTPzflaDgjarKPhA9-139">
          <mxGeometry x="580" y="638" width="102" height="36" as="geometry" />
        </mxCell>
        <mxCell id="oVsmTPzflaDgjarKPhA9-157" value="RCS Multi-Select" style="rounded=1;fillColor=#F1F2F4;strokeColor=none;html=1;fontColor=#596780;align=left;fontSize=12;spacingLeft=10;shadow=0;sketch=0;" vertex="1" parent="oVsmTPzflaDgjarKPhA9-139">
          <mxGeometry x="60" y="327.5" width="606.5" height="30" as="geometry" />
        </mxCell>
        <mxCell id="oVsmTPzflaDgjarKPhA9-158" value="" style="shape=triangle;direction=south;fillColor=#596780;strokeColor=none;html=1" vertex="1" parent="oVsmTPzflaDgjarKPhA9-157">
          <mxGeometry x="1" y="0.5" width="12" height="6" relative="1" as="geometry">
            <mxPoint x="-20" y="-3" as="offset" />
          </mxGeometry>
        </mxCell>
        <mxCell id="oVsmTPzflaDgjarKPhA9-159" value="Cancel" style="html=1;shadow=0;dashed=0;shape=mxgraph.bootstrap.rrect;rSize=5;fillColor=#6C757D;strokeColor=none;fontColor=#FFFFFF;fontSize=14;" vertex="1" parent="oVsmTPzflaDgjarKPhA9-139">
          <mxGeometry x="500.00402733964256" y="638" width="70" height="36" as="geometry" />
        </mxCell>
        <mxCell id="oVsmTPzflaDgjarKPhA9-160" value="" style="shape=line;direction=north;strokeColor=#b3b3b3;" vertex="1" parent="oVsmTPzflaDgjarKPhA9-139">
          <mxGeometry x="31" y="319.9999999999991" width="10" height="250" as="geometry" />
        </mxCell>
        <mxCell id="oVsmTPzflaDgjarKPhA9-161" value="" style="shape=line;direction=north;strokeColor=#b3b3b3;" vertex="1" parent="oVsmTPzflaDgjarKPhA9-139">
          <mxGeometry x="31" y="610" width="10" height="25" as="geometry" />
        </mxCell>
        <mxCell id="oVsmTPzflaDgjarKPhA9-162" value="S" style="shape=ellipse;strokeColor=none;fillColor=#9e9e9e;fontColor=#ffffff;" vertex="1" parent="oVsmTPzflaDgjarKPhA9-139">
          <mxGeometry x="24" y="650" width="24" height="24" as="geometry" />
        </mxCell>
        <mxCell id="oVsmTPzflaDgjarKPhA9-163" value="Next" style="shape=rect;strokeColor=none;fillColor=#4285f4;fontColor=#ffffff;rounded=1;" vertex="1" parent="oVsmTPzflaDgjarKPhA9-139">
          <mxGeometry x="139.67000000000002" y="530" width="102" height="36" as="geometry" />
        </mxCell>
        <mxCell id="oVsmTPzflaDgjarKPhA9-164" value="Back" style="html=1;shadow=0;dashed=0;shape=mxgraph.bootstrap.rrect;rSize=5;fillColor=#6C757D;strokeColor=none;fontColor=#FFFFFF;fontSize=14;" vertex="1" parent="oVsmTPzflaDgjarKPhA9-139">
          <mxGeometry x="60" y="530" width="70" height="36" as="geometry" />
        </mxCell>
        <mxCell id="oVsmTPzflaDgjarKPhA9-165" value="" style="shape=rect;fillColor=#ffffff;rounded=1;shadow=1;sketch=0;fontSize=8;align=left;fontColor=#9E9E9E;arcSize=1;" vertex="1" parent="oVsmTPzflaDgjarKPhA9-1">
          <mxGeometry x="60" y="4290" width="704" height="690" as="geometry" />
        </mxCell>
        <mxCell id="oVsmTPzflaDgjarKPhA9-166" value="1" style="shape=ellipse;strokeColor=none;fontColor=#ffffff;fillColor=#9E9E9E;" vertex="1" parent="oVsmTPzflaDgjarKPhA9-165">
          <mxGeometry width="24" height="24" relative="1" as="geometry">
            <mxPoint x="24" y="24" as="offset" />
          </mxGeometry>
        </mxCell>
        <mxCell id="oVsmTPzflaDgjarKPhA9-167" value="Dataset Details" style="shape=rect;strokeColor=none;fillColor=none;align=left;fontStyle=0;fontColor=#9E9E9E;" vertex="1" parent="oVsmTPzflaDgjarKPhA9-165">
          <mxGeometry width="200" height="24" relative="1" as="geometry">
            <mxPoint x="60" y="24" as="offset" />
          </mxGeometry>
        </mxCell>
        <mxCell id="oVsmTPzflaDgjarKPhA9-168" value="2" style="shape=ellipse;strokeColor=none;fontColor=#ffffff;fillColor=#9E9E9E;" vertex="1" parent="oVsmTPzflaDgjarKPhA9-165">
          <mxGeometry width="24" height="24" relative="1" as="geometry">
            <mxPoint x="24" y="90" as="offset" />
          </mxGeometry>
        </mxCell>
        <mxCell id="oVsmTPzflaDgjarKPhA9-169" value="Dataset Classification Details" style="shape=rect;strokeColor=none;fillColor=none;align=left;fontStyle=0;fontColor=#9E9E9E;" vertex="1" parent="oVsmTPzflaDgjarKPhA9-165">
          <mxGeometry width="200" height="24" relative="1" as="geometry">
            <mxPoint x="60" y="90" as="offset" />
          </mxGeometry>
        </mxCell>
        <mxCell id="oVsmTPzflaDgjarKPhA9-170" value="3" style="shape=ellipse;strokeColor=none;fontColor=#ffffff;fillColor=#9E9E9E;" vertex="1" parent="oVsmTPzflaDgjarKPhA9-165">
          <mxGeometry width="24" height="24" relative="1" as="geometry">
            <mxPoint x="24" y="160" as="offset" />
          </mxGeometry>
        </mxCell>
        <mxCell id="oVsmTPzflaDgjarKPhA9-171" value="Dataset Location" style="shape=rect;strokeColor=none;fillColor=none;align=left;fontStyle=0;fontColor=#9E9E9E;" vertex="1" parent="oVsmTPzflaDgjarKPhA9-165">
          <mxGeometry width="200" height="24" relative="1" as="geometry">
            <mxPoint x="60" y="160" as="offset" />
          </mxGeometry>
        </mxCell>
        <mxCell id="oVsmTPzflaDgjarKPhA9-172" value="4" style="shape=ellipse;strokeColor=none;fontColor=#ffffff;fillColor=#9E9E9E;" vertex="1" parent="oVsmTPzflaDgjarKPhA9-165">
          <mxGeometry x="24" y="220" width="24" height="24" as="geometry" />
        </mxCell>
        <mxCell id="oVsmTPzflaDgjarKPhA9-173" value="" style="shape=line;direction=north;strokeColor=#b3b3b3;" vertex="1" parent="oVsmTPzflaDgjarKPhA9-165">
          <mxGeometry x="31" y="125" width="10" height="25" as="geometry" />
        </mxCell>
        <mxCell id="oVsmTPzflaDgjarKPhA9-174" value="5" style="shape=ellipse;strokeColor=none;fontColor=#ffffff;fillColor=#9E9E9E;" vertex="1" parent="oVsmTPzflaDgjarKPhA9-165">
          <mxGeometry x="24" y="285" width="24" height="24" as="geometry" />
        </mxCell>
        <mxCell id="oVsmTPzflaDgjarKPhA9-175" value="" style="shape=line;direction=north;strokeColor=#b3b3b3;" vertex="1" parent="oVsmTPzflaDgjarKPhA9-165">
          <mxGeometry x="31" y="190" width="10" height="25" as="geometry" />
        </mxCell>
        <mxCell id="oVsmTPzflaDgjarKPhA9-176" value="6" style="shape=ellipse;strokeColor=none;fillColor=#9e9e9e;fontColor=#ffffff;" vertex="1" parent="oVsmTPzflaDgjarKPhA9-165">
          <mxGeometry x="24" y="356" width="24" height="24" as="geometry" />
        </mxCell>
        <mxCell id="oVsmTPzflaDgjarKPhA9-177" value="" style="shape=line;direction=north;strokeColor=#b3b3b3;" vertex="1" parent="oVsmTPzflaDgjarKPhA9-165">
          <mxGeometry x="31" y="250" width="10" height="25" as="geometry" />
        </mxCell>
        <mxCell id="oVsmTPzflaDgjarKPhA9-178" value="PII" style="shape=rect;strokeColor=none;fillColor=none;align=left;fontStyle=0;fontColor=#9E9E9E;" vertex="1" parent="oVsmTPzflaDgjarKPhA9-165">
          <mxGeometry x="60" y="220" width="200" height="24" as="geometry" />
        </mxCell>
        <mxCell id="oVsmTPzflaDgjarKPhA9-179" value="Record Schedule" style="shape=rect;strokeColor=none;fillColor=none;align=left;fontStyle=0;fontColor=#9E9E9E;" vertex="1" parent="oVsmTPzflaDgjarKPhA9-165">
          <mxGeometry x="60" y="285" width="200" height="24" as="geometry" />
        </mxCell>
        <mxCell id="oVsmTPzflaDgjarKPhA9-180" value="Notes" style="shape=rect;strokeColor=none;fillColor=none;align=left;fontColor=#aaaaaa;" vertex="1" parent="oVsmTPzflaDgjarKPhA9-165">
          <mxGeometry x="60" y="356" width="200" height="24" as="geometry" />
        </mxCell>
        <mxCell id="oVsmTPzflaDgjarKPhA9-181" value="" style="shape=line;direction=north;strokeColor=#b3b3b3;" vertex="1" parent="oVsmTPzflaDgjarKPhA9-165">
          <mxGeometry x="31" y="57" width="10" height="25" as="geometry" />
        </mxCell>
        <mxCell id="oVsmTPzflaDgjarKPhA9-182" value="Save" style="shape=rect;strokeColor=none;fillColor=#4285f4;fontColor=#ffffff;rounded=1;" vertex="1" parent="oVsmTPzflaDgjarKPhA9-165">
          <mxGeometry x="580" y="638" width="102" height="36" as="geometry" />
        </mxCell>
        <mxCell id="oVsmTPzflaDgjarKPhA9-183" value="" style="shape=line;direction=north;strokeColor=#b3b3b3;" vertex="1" parent="oVsmTPzflaDgjarKPhA9-165">
          <mxGeometry width="10" height="250" relative="1" as="geometry">
            <mxPoint x="31" y="390" as="offset" />
          </mxGeometry>
        </mxCell>
        <mxCell id="oVsmTPzflaDgjarKPhA9-184" value="" style="shape=line;direction=north;strokeColor=#b3b3b3;" vertex="1" parent="oVsmTPzflaDgjarKPhA9-165">
          <mxGeometry x="31" y="320" width="10" height="25" as="geometry" />
        </mxCell>
        <mxCell id="oVsmTPzflaDgjarKPhA9-185" value="Notes" style="html=1;shadow=0;dashed=0;shape=mxgraph.bootstrap.rrect;rSize=5;strokeColor=#CED4DA;html=1;whiteSpace=wrap;fillColor=#FFFFFF;fontColor=#7D868C;align=left;spacing=2;spacingLeft=10;fontSize=12;verticalAlign=top;" vertex="1" parent="oVsmTPzflaDgjarKPhA9-165">
          <mxGeometry x="60" y="400" width="610" height="65" as="geometry" />
        </mxCell>
        <mxCell id="oVsmTPzflaDgjarKPhA9-186" value="Cancel" style="html=1;shadow=0;dashed=0;shape=mxgraph.bootstrap.rrect;rSize=5;fillColor=#6C757D;strokeColor=none;fontColor=#FFFFFF;fontSize=14;" vertex="1" parent="oVsmTPzflaDgjarKPhA9-165">
          <mxGeometry x="500.00402733964256" y="638" width="70" height="36" as="geometry" />
        </mxCell>
        <mxCell id="oVsmTPzflaDgjarKPhA9-187" value="S" style="shape=ellipse;strokeColor=none;fillColor=#9e9e9e;fontColor=#ffffff;" vertex="1" parent="oVsmTPzflaDgjarKPhA9-165">
          <mxGeometry x="24" y="650" width="24" height="24" as="geometry" />
        </mxCell>
        <mxCell id="oVsmTPzflaDgjarKPhA9-188" value="Next" style="shape=rect;strokeColor=none;fillColor=#4285f4;fontColor=#ffffff;rounded=1;" vertex="1" parent="oVsmTPzflaDgjarKPhA9-165">
          <mxGeometry x="139.67000000000002" y="602" width="102" height="36" as="geometry" />
        </mxCell>
        <mxCell id="oVsmTPzflaDgjarKPhA9-189" value="Back" style="html=1;shadow=0;dashed=0;shape=mxgraph.bootstrap.rrect;rSize=5;fillColor=#6C757D;strokeColor=none;fontColor=#FFFFFF;fontSize=14;" vertex="1" parent="oVsmTPzflaDgjarKPhA9-165">
          <mxGeometry x="60" y="602" width="70" height="36" as="geometry" />
        </mxCell>
        <mxCell id="oVsmTPzflaDgjarKPhA9-190" value="" style="shape=rect;fillColor=#ffffff;rounded=1;shadow=1;sketch=0;fontSize=8;align=left;fontColor=#9E9E9E;arcSize=1;" vertex="1" parent="oVsmTPzflaDgjarKPhA9-1">
          <mxGeometry x="60" y="5130" width="720" height="690" as="geometry" />
        </mxCell>
        <mxCell id="oVsmTPzflaDgjarKPhA9-191" value="1" style="shape=ellipse;strokeColor=none;fontColor=#ffffff;fillColor=#9E9E9E;" vertex="1" parent="oVsmTPzflaDgjarKPhA9-190">
          <mxGeometry width="24" height="24" relative="1" as="geometry">
            <mxPoint x="24" y="24" as="offset" />
          </mxGeometry>
        </mxCell>
        <mxCell id="oVsmTPzflaDgjarKPhA9-192" value="Dataset Details" style="shape=rect;strokeColor=none;fillColor=none;align=left;fontStyle=0;fontColor=#9E9E9E;" vertex="1" parent="oVsmTPzflaDgjarKPhA9-190">
          <mxGeometry width="200" height="24" relative="1" as="geometry">
            <mxPoint x="60" y="24" as="offset" />
          </mxGeometry>
        </mxCell>
        <mxCell id="oVsmTPzflaDgjarKPhA9-193" value="2" style="shape=ellipse;strokeColor=none;fontColor=#ffffff;fillColor=#9E9E9E;" vertex="1" parent="oVsmTPzflaDgjarKPhA9-190">
          <mxGeometry width="24" height="24" relative="1" as="geometry">
            <mxPoint x="24" y="90" as="offset" />
          </mxGeometry>
        </mxCell>
        <mxCell id="oVsmTPzflaDgjarKPhA9-194" value="Dataset Classification Details" style="shape=rect;strokeColor=none;fillColor=none;align=left;fontStyle=0;fontColor=#9E9E9E;" vertex="1" parent="oVsmTPzflaDgjarKPhA9-190">
          <mxGeometry width="200" height="24" relative="1" as="geometry">
            <mxPoint x="60" y="90" as="offset" />
          </mxGeometry>
        </mxCell>
        <mxCell id="oVsmTPzflaDgjarKPhA9-195" value="3" style="shape=ellipse;strokeColor=none;fontColor=#ffffff;fillColor=#9E9E9E;" vertex="1" parent="oVsmTPzflaDgjarKPhA9-190">
          <mxGeometry width="24" height="24" relative="1" as="geometry">
            <mxPoint x="24" y="160" as="offset" />
          </mxGeometry>
        </mxCell>
        <mxCell id="oVsmTPzflaDgjarKPhA9-196" value="Dataset Location" style="shape=rect;strokeColor=none;fillColor=none;align=left;fontStyle=0;fontColor=#9E9E9E;" vertex="1" parent="oVsmTPzflaDgjarKPhA9-190">
          <mxGeometry width="200" height="24" relative="1" as="geometry">
            <mxPoint x="60" y="160" as="offset" />
          </mxGeometry>
        </mxCell>
        <mxCell id="oVsmTPzflaDgjarKPhA9-197" value="4" style="shape=ellipse;strokeColor=none;fontColor=#ffffff;fillColor=#9E9E9E;" vertex="1" parent="oVsmTPzflaDgjarKPhA9-190">
          <mxGeometry x="24" y="220" width="24" height="24" as="geometry" />
        </mxCell>
        <mxCell id="oVsmTPzflaDgjarKPhA9-198" value="" style="shape=line;direction=north;strokeColor=#b3b3b3;" vertex="1" parent="oVsmTPzflaDgjarKPhA9-190">
          <mxGeometry x="31" y="125" width="10" height="25" as="geometry" />
        </mxCell>
        <mxCell id="oVsmTPzflaDgjarKPhA9-199" value="5" style="shape=ellipse;strokeColor=none;fontColor=#ffffff;fillColor=#9E9E9E;" vertex="1" parent="oVsmTPzflaDgjarKPhA9-190">
          <mxGeometry x="24" y="285" width="24" height="24" as="geometry" />
        </mxCell>
        <mxCell id="oVsmTPzflaDgjarKPhA9-200" value="" style="shape=line;direction=north;strokeColor=#b3b3b3;" vertex="1" parent="oVsmTPzflaDgjarKPhA9-190">
          <mxGeometry x="31" y="190" width="10" height="25" as="geometry" />
        </mxCell>
        <mxCell id="oVsmTPzflaDgjarKPhA9-201" value="6" style="shape=ellipse;strokeColor=none;fillColor=#9e9e9e;fontColor=#ffffff;" vertex="1" parent="oVsmTPzflaDgjarKPhA9-190">
          <mxGeometry x="24" y="356" width="24" height="24" as="geometry" />
        </mxCell>
        <mxCell id="oVsmTPzflaDgjarKPhA9-202" value="" style="shape=line;direction=north;strokeColor=#b3b3b3;" vertex="1" parent="oVsmTPzflaDgjarKPhA9-190">
          <mxGeometry x="31" y="250" width="10" height="25" as="geometry" />
        </mxCell>
        <mxCell id="oVsmTPzflaDgjarKPhA9-203" value="PII" style="shape=rect;strokeColor=none;fillColor=none;align=left;fontStyle=0;fontColor=#9E9E9E;" vertex="1" parent="oVsmTPzflaDgjarKPhA9-190">
          <mxGeometry x="60" y="220" width="200" height="24" as="geometry" />
        </mxCell>
        <mxCell id="oVsmTPzflaDgjarKPhA9-204" value="Record Schedule" style="shape=rect;strokeColor=none;fillColor=none;align=left;fontStyle=0;fontColor=#9E9E9E;" vertex="1" parent="oVsmTPzflaDgjarKPhA9-190">
          <mxGeometry x="60" y="285" width="200" height="24" as="geometry" />
        </mxCell>
        <mxCell id="oVsmTPzflaDgjarKPhA9-205" value="Notes" style="shape=rect;strokeColor=none;fillColor=none;align=left;fontColor=#aaaaaa;" vertex="1" parent="oVsmTPzflaDgjarKPhA9-190">
          <mxGeometry x="60" y="356" width="200" height="24" as="geometry" />
        </mxCell>
        <mxCell id="oVsmTPzflaDgjarKPhA9-206" value="" style="shape=line;direction=north;strokeColor=#b3b3b3;" vertex="1" parent="oVsmTPzflaDgjarKPhA9-190">
          <mxGeometry x="31" y="57" width="10" height="25" as="geometry" />
        </mxCell>
        <mxCell id="oVsmTPzflaDgjarKPhA9-207" value="Save" style="shape=rect;strokeColor=none;fillColor=#4285f4;fontColor=#ffffff;rounded=1;" vertex="1" parent="oVsmTPzflaDgjarKPhA9-190">
          <mxGeometry x="580" y="638" width="102" height="36" as="geometry" />
        </mxCell>
        <mxCell id="oVsmTPzflaDgjarKPhA9-208" value="" style="shape=line;direction=north;strokeColor=#b3b3b3;" vertex="1" parent="oVsmTPzflaDgjarKPhA9-190">
          <mxGeometry x="31" y="320" width="10" height="25" as="geometry" />
        </mxCell>
        <mxCell id="oVsmTPzflaDgjarKPhA9-209" value="Cancel" style="html=1;shadow=0;dashed=0;shape=mxgraph.bootstrap.rrect;rSize=5;fillColor=#6C757D;strokeColor=none;fontColor=#FFFFFF;fontSize=14;" vertex="1" parent="oVsmTPzflaDgjarKPhA9-190">
          <mxGeometry x="500.00402733964256" y="638" width="70" height="36" as="geometry" />
        </mxCell>
        <mxCell id="oVsmTPzflaDgjarKPhA9-210" value="Description:&#xa;&#xa;&#xa;Originating Org:&#xa;&#xa;Data Steward:&#xa;&#xa;Location:&#xa;&#xa;Format:&#xa;&#xa;Data Classification:&#xa;&#xa;RCS Value(s):&#xa;&#xa;PII:&#xa;&#xa;PII Type:&#xa;&#xa;System of Record:&#xa;&#xa;IMO Assigned:&#xa;" style="text;whiteSpace=wrap;fontSize=13;spacing=16;spacingTop=-4;resizeWidth=1;resizeHeight=1;fontStyle=1" vertex="1" parent="oVsmTPzflaDgjarKPhA9-190">
          <mxGeometry x="240" y="36.47999999999956" width="160" height="333.3333333333333" as="geometry" />
        </mxCell>
        <mxCell id="oVsmTPzflaDgjarKPhA9-211" value="This dataset contains information that someone might find interesting. Who that person is and why they might care is anyone&#39;s guess." style="text;whiteSpace=wrap;fontSize=10;spacing=16;spacingTop=-4;resizeWidth=1;resizeHeight=1;" vertex="1" parent="oVsmTPzflaDgjarKPhA9-190">
          <mxGeometry x="390" y="30" width="280" height="55.56" as="geometry" />
        </mxCell>
        <mxCell id="oVsmTPzflaDgjarKPhA9-212" value="PPP/QQQ/RRR/ZZZ&#xa;" style="text;whiteSpace=wrap;fontSize=10;spacing=16;spacingTop=-4;resizeWidth=1;resizeHeight=1;" vertex="1" parent="oVsmTPzflaDgjarKPhA9-190">
          <mxGeometry x="390" y="85.55629629629584" width="330" height="37.03703703703704" as="geometry" />
        </mxCell>
        <mxCell id="oVsmTPzflaDgjarKPhA9-213" value="Bob Ross" style="text;whiteSpace=wrap;fontSize=10;spacing=16;spacingTop=-4;resizeWidth=1;resizeHeight=1;" vertex="1" parent="oVsmTPzflaDgjarKPhA9-190">
          <mxGeometry x="390" y="113.33407407407321" width="330" height="37.03703703703704" as="geometry" />
        </mxCell>
        <mxCell id="oVsmTPzflaDgjarKPhA9-214" value="Warehouse B" style="text;whiteSpace=wrap;fontSize=10;spacing=16;spacingTop=-4;resizeWidth=1;resizeHeight=1;" vertex="1" parent="oVsmTPzflaDgjarKPhA9-190">
          <mxGeometry x="390" y="145.9218518518519" width="330" height="37.03703703703704" as="geometry" />
        </mxCell>
        <mxCell id="oVsmTPzflaDgjarKPhA9-215" value="Paper, CD, DVD" style="text;whiteSpace=wrap;fontSize=10;spacing=16;spacingTop=-4;resizeWidth=1;resizeHeight=1;" vertex="1" parent="oVsmTPzflaDgjarKPhA9-190">
          <mxGeometry x="390" y="175.92962962962883" width="330" height="37.03703703703704" as="geometry" />
        </mxCell>
        <mxCell id="oVsmTPzflaDgjarKPhA9-216" value="Spooky" style="text;whiteSpace=wrap;fontSize=10;spacing=16;spacingTop=-4;resizeWidth=1;resizeHeight=1;" vertex="1" parent="oVsmTPzflaDgjarKPhA9-190">
          <mxGeometry x="390" y="205.92740740740737" width="330" height="37.03703703703704" as="geometry" />
        </mxCell>
        <mxCell id="oVsmTPzflaDgjarKPhA9-217" value="RCS 10-38 1a" style="text;whiteSpace=wrap;fontSize=10;spacing=16;spacingTop=-4;resizeWidth=1;resizeHeight=1;fontColor=#0645AD;fontStyle=4" vertex="1" parent="oVsmTPzflaDgjarKPhA9-190">
          <mxGeometry x="390" y="235.9251851851841" width="330" height="37.03703703703704" as="geometry" />
        </mxCell>
        <mxCell id="oVsmTPzflaDgjarKPhA9-218" value="Yes" style="text;whiteSpace=wrap;fontSize=10;spacing=16;spacingTop=-4;resizeWidth=1;resizeHeight=1;" vertex="1" parent="oVsmTPzflaDgjarKPhA9-190">
          <mxGeometry x="390" y="265.92296296296263" width="330" height="37.03703703703704" as="geometry" />
        </mxCell>
        <mxCell id="oVsmTPzflaDgjarKPhA9-219" value="US Persons" style="text;whiteSpace=wrap;fontSize=10;spacing=16;spacingTop=-4;resizeWidth=1;resizeHeight=1;" vertex="1" parent="oVsmTPzflaDgjarKPhA9-190">
          <mxGeometry x="390" y="295.9307407407414" width="330" height="37.03703703703704" as="geometry" />
        </mxCell>
        <mxCell id="oVsmTPzflaDgjarKPhA9-220" value="Rocky" style="text;whiteSpace=wrap;fontSize=10;spacing=16;spacingTop=-4;resizeWidth=1;resizeHeight=1;" vertex="1" parent="oVsmTPzflaDgjarKPhA9-190">
          <mxGeometry x="390" y="325.9285185185181" width="330" height="37.03703703703704" as="geometry" />
        </mxCell>
        <mxCell id="oVsmTPzflaDgjarKPhA9-221" value="Cindy-Luo Who" style="text;whiteSpace=wrap;fontSize=10;spacing=16;spacingTop=-4;resizeWidth=1;resizeHeight=1;" vertex="1" parent="oVsmTPzflaDgjarKPhA9-190">
          <mxGeometry x="390" y="355.9285185185181" width="330" height="37.03703703703704" as="geometry" />
        </mxCell>
        <mxCell id="oVsmTPzflaDgjarKPhA9-222" value="Summary" style="text;html=1;strokeColor=none;fillColor=none;align=left;verticalAlign=middle;whiteSpace=wrap;rounded=0;shadow=0;sketch=0;fontSize=18;" vertex="1" parent="oVsmTPzflaDgjarKPhA9-190">
          <mxGeometry x="250" y="16.48" width="400" height="20" as="geometry" />
        </mxCell>
        <mxCell id="oVsmTPzflaDgjarKPhA9-223" value="Back" style="html=1;shadow=0;dashed=0;shape=mxgraph.bootstrap.rrect;rSize=5;fillColor=#6C757D;strokeColor=none;fontColor=#FFFFFF;fontSize=14;" vertex="1" parent="oVsmTPzflaDgjarKPhA9-190">
          <mxGeometry x="420" y="638" width="70" height="36" as="geometry" />
        </mxCell>
        <mxCell id="oVsmTPzflaDgjarKPhA9-224" value="" style="shape=line;direction=north;strokeColor=#b3b3b3;" vertex="1" parent="oVsmTPzflaDgjarKPhA9-1">
          <mxGeometry x="91" y="5520" width="10" height="25" as="geometry" />
        </mxCell>
        <mxCell id="oVsmTPzflaDgjarKPhA9-225" value="S" style="shape=ellipse;strokeColor=none;fillColor=#9e9e9e;fontColor=#ffffff;" vertex="1" parent="oVsmTPzflaDgjarKPhA9-1">
          <mxGeometry x="84" y="5560" width="24" height="24" as="geometry" />
        </mxCell>
      </root>
    </mxGraphModel>
  </diagram>
</mxfile>
